<mxfile host="app.diagrams.net" modified="2023-12-17T08:56:08.065Z" agent="Mozilla/5.0 (Windows NT 10.0; Win64; x64) AppleWebKit/537.36 (KHTML, like Gecko) Chrome/120.0.0.0 Safari/537.36" etag="Acp4cZy2uOJSh5NvpYQh" version="22.1.8" type="device" pages="3">
  <diagram id="C5RBs43oDa-KdzZeNtuy" name="Page-1">
    <mxGraphModel dx="1050" dy="1711" grid="1" gridSize="10" guides="1" tooltips="1" connect="1" arrows="1" fold="1" page="1" pageScale="1" pageWidth="827" pageHeight="1169" math="0" shadow="0">
      <root>
        <mxCell id="WIyWlLk6GJQsqaUBKTNV-0" />
        <mxCell id="WIyWlLk6GJQsqaUBKTNV-1" parent="WIyWlLk6GJQsqaUBKTNV-0" />
        <mxCell id="KlkmZHF0BozQ7KG4BlhC-2" value="" style="shape=image;verticalLabelPosition=bottom;labelBackgroundColor=default;verticalAlign=top;aspect=fixed;imageAspect=0;image=data:image/png,iVBORw0KGgoAAAANSUhEUgAAAvMAAAIOCAYAAAA1CYIQAAAAAXNSR0IArs4c6QAAAARnQU1BAACxjwv8YQUAAAAJcEhZcwAADsMAAA7DAcdvqGQAAPTsSURBVHhe7J0HYBTF98e/qZCEBEhC6IQSegfpIL2pIM0GiCCCDRF7/Sn6V1CsIBZQRMCCShMU6UUB6R2kQyghDUiA9Pa/7+xObhMCXCCJJHkfbzJv3szOHjF3+/btmzdOgYGBaRAEQRAEQRAEId/hbNaCIAiCIAiCIOQzxJgXBEEQBEEQhHyKGPOCIAiCIAiCkE8RY14QBEEQBEEQ8ilizAuCIAiCIAhCPkWMeUEQBEEQBEHIp4gxLwiCIAiCIAj5FDHmBUEQBEEQBCGfIsa8IAiCIAiCIORTxJgXBEEQBEEQhHyKGPOCIAiCIAiCkE8RY14QBEEQBEEQ8ilizAuCIAiCIAhCPkWMeUEQBEEQBEHIp4gxLwiCIAiCIAj5FKfAwMA0UxYEQcgTXFxcUKRIEVWEgktSUhISEhJULQiCIOQOYswLgpBn0IivWrWqMuIrVqyI5s2bmz1CQeTAgQM4evQoYmNjVU3DXhAEQchZxJgXBCFPKFmyJGzfN3jphdGoVaUkkuLOI9FW0tJSbb1OcHJyMgaq2pANnV3P/7SsKrYtx2XsN9tKZbSNl5ZZszLbRsPSrxRG25RV2zxOn8MQtWwr6mWXjRZl1bDX1FpkvowfhmyfgzUrs200LP1KYbRNWbX13Jbjsvs+DcmuM/pNnSnb52DNymwbDSDNCafPhOB///ufMujPnDlj+38ulx1BEIScwqVEiRJjTVkQBCFXoBHftm1bjHvzCRTDaSTERiAlKdbWQ6POMP6ubXyqBkely6pi23Jcxn6zrVRG23hpmTUrs200LP1KYbRNWbXN4/Q5DFHLtqJedtloUVYNe02tRebL+GHI9jlYszLbRsPSrxRG25RVW89tOS6779OQ7Dqj39SZsn0O1qzMttFQ7eI+Pri7z91wdy+C8PBwREZGikEvCIKQQ8gCWEEQcpUSJUqgQYMGePGJO5AYdchmxKWYPUJhgjb+oEED8dRTT6Fy5cqmVhAEQbhZxJgXBCHXYIx8lSpV8PKzDyH+0llTKxRW6KXv2rUratasifj4eFMrCIIg3AxizAuCkGtwsesLzz2FlMuHTY1QEElNc0JiUhpSufzhOjjbDPr33huPxo0b49SpU4iKijJ7BEEQhBtBjHlBEHIFZ2dnuLu7o3pgCaSlSmhNQYWG/IWoi1ixYgVi4xKQknL9WHgfn+Iq1IaLoqOjo8WgFwRBuAnEmBcEIVcoWrQoKlWqhNREMdQKKqmpTki23ad99tlnmDRpkqqTbcZ8auq1DXrGzzMtqY+Pj2pfvHhR1YIgCEL2EWNeEIRcgfHypUqVQlL89Y35Y8FnMWLMh6hY/15UrHcPXnjjS8TE2mOqj50IwSOj30f5On1U6Tv4FbNH+K9gSE3kuShMmDBBZacZOXKkSj05efJknDsfdV2DvkI5f/j7+yuZmW3OnpU1FYIgCDeCGPOCIOQKrq6uavFrSlKMqcma8IgodOg1BoEVS+PAppnYtnoqjp44gwcfe8ccATz0xLs4eDgYh7bOVqVJw5pmj/BfkJLqhMuxCfj222+VIf/www8r/ejRo3HixAnMmjULCYnJSEm5ehC9u2tGYz8xMdGUBEEQhOwgxrwgCP8pX8/6XdXPPH4PvDyLIqBUSbzw1APYsv0Alq3eovqOB9u9thzzvxeGmi3hvyA1zRkTJ05UC1hfeOEFzJ07F1OnTsWCBQtU6sm9e/fi008/RXJyqs3wd2BVrCAIgnDDiDEvCMJ/SvCpMDRrXEsZ6ZpiXh6qDgmNVPVLTw9SBn2N2+7Hdz8uzhCCI+Q93BLqtttuw/3336+M+NjYWOWVZ6gMDfvBgwervQUYG+/s5Phl5ty5c6YkCIIgOIoY84Ig3PI8NbI/vv38FVQJLIfX3pmKwSPfMnuE/wSnNLRu3RqrVq3C5cuX8eyzz6JLly54+eWXERoaik2bNqFTp04qrzwNekEQBCH3EGNeEIT/lBLFi2HLjgMZvO2XY+JUXTOokqpJt47Nse7PL/BA/y7YvG0/du87avYIeU1ampPKXMOUki+99BLKli0NdzcnW10GY8aMQXBwsAqz4SJYCbMRBEHIXcSYFwThP+WxYb1V/cmXvyqDPjziAj747Cc0a1ILrZrVVX3vfDhD6a0Gf7Uq5U1JyGvobG/Tpg2efPJJ+JYsDlfzSuLu5owKFcpj1KhRKvUkvfJOarQgCIKQW4gxLwjCf0rVwLL4Y/Z4bN99GLVaDEHTjiPRpEENzPrqdXMEEH0xBk3aP6xi5jdu3Y85M97NEGMv5C0uzilo27YtqlQJtMkZs9K4uTqhZs0aqt/NzRXOzmLMC4Ig5CZOgYGB19+uTxAEIZtwd08uiuzU2NX2TUP/LI065apVtWqbsmrr4GpVG7Khs+uNOQxZVWxbjsvYb7aVymgbLy2zZmW2jYalXymMtimrtnmcPochatlW1MsuGy3KqmGvqbXIfBk/DNk+B2tWZttoWPqVwmibsmrruS3HZfd9GpJdZ/SbOlO2z8Galdk2GpZ+pTDattfalYvwwivvYMsWI2MRKVasGPz8/MyWIAiC4AjimRcEQRAEQRCEfIoY84IgCIIgCIKQTxFjXhAEQRAEQRDyKWLMC4IgCIIgCEI+RYx5QRAEQRAEQcinFJpsNs7OzvD09IS/vz88PIyt4oWCC7eV5xbziYmJpkbIaySbjSEbLcqqYa+ptch8GT8M2T4Ha1Zm22hY+pXCaJuyauu5Lcdl930akl1n9Js6U7bPwZqV2TYaln6lMNq2l2SzEQRByBkKhTFfpEgR1KpVS5X27dujYlkfuCABzk62f7q+xpg/FeZFycC4FCky6TX2CzIxZVVZxmSpt+ssZ7Fh16fLNuxzZD3WkTnUqPRmpvFZ6NWcV+jtuivOmd606+2/n6zHXm8O9dP+w8SUzbn1z9i4OMTZyt9/r7OVvxEWFoYTJ04gVXahzHPEmDdko0VZNew1tRaZL+OHIdvnYM3KbBsNS79SGG1TVm09t+W47L5PQ7LrjH5TZ8r2OVizMttGw9KvFEbb9hJjXhAEIWco0MY8Lyrly5dHtWrVMPb1p1E0LQzJ8dHpFxVV1EvLrFmZbaNh9huyqixjVUvLluOyf9G0y/Z+pTCKemmZNSuzbTQs/UphtE05g9483qrTctZzqIaqs+43ZNXOMLchZ+t3wZapTz9eyabOlO1zsDbbeg5bzf/SbH/Zy1esxOeff47Dhw8rI1/IO7JjzB8LDsVPc1ci+FQYFXjlmcE4evwMgqpWQNXK5k6v6XMYsqrYzvT/XctGL/uVwijqpWXWrMy20bD0K4XRNmXVNo/T5zBELduKetllo0VZNew1tRaZL+OHIdvnYM3KbBsNS79SGG1TVm09t+W47L5PQ7LrjH5TZ8r2OVizMttGw9KvFEbb9hJjXhAEIWco0DHzQUFBGDb0QXz09qNwiTuApPgos0coDNCo6NatC2bNmoVWrVpJeNUtyj9b9qNDrzGoU7MyRo/sh9GP9kfpAF+EhJ7D5Ri5ARMEQRCEa1FgjXl6BRs2bIg72wciNuq4qRUKIz4+3vj0k0/UExqunRBuLV5+ayr+mD0e/e5qh/p1qqri5VnU7DWYt2gtHhn9Pp7/32SER1xQun8278Xwp8bjudcnISziPI6dOIPnXpuIh0e9g917j6gxgiAIglDQKZCWjYuLCwIDA/H8qHuRGHvO1AqFGR8fH4wZMwalS5fGuXPyN3ErcfxkqDLgr0Wj+tUx+tEBqFe7KqZ895vSDXjoNTz92D146IE7UMzLE+9++B26dW6JMY/fb/v/7KvGCIIgCEJBp0Aa8xUrVsRTTwxHQvQhUyMURJJTgMSkNCQlO7bso3PnzmoNBRfDnj592tQKtwIxsfGmlDX0vK9dvwO/Lf4bwadCle6lMYMx8atflUxP/n39uuCLb+bibNg5lC4lxrwgCIJQOCiQxjyz19StWc5sCQURw5BPxkcffYSDBw8hIen62Wq4Lq9nj+7KoE9JSUFISIjZI/yX9OjcDJ9+NcdsXcmxEyGY9v0fuK1RLQy+r4epBUY/eg8mvf8MZvy0WIXYdOvUAr/9OAEhZyMw97dV5ihBEARBKNgUOGPe1dVVLXR0SXN84dyx4LPYs/9YeizurUKMLP7LkpRUJ5w8dQavvfYaDh06hC+//BL79+9HcnKaymBzLerWrqJCbUhSUhKiomRR9H/NJ+8+ie27DuP2u57GiDEfYsTTHygDXlPMywNLVmxSBv2fy/8xtcAjT43H6Jc+wcYt++BlGzPpq19UvPw3M35D2TL+5ihBEARBKNgUuNSU9Mq3bNkS41+5B0kJUUYaNGKmS9Np0fjjny3/4uW3p7KBmkEVsWTlZiz+ZQIa1K2m+hXpqdUMWVVsm7Jqadk8hyFq2VbUyy4bLcqqoWqj35DZ/+nns/DuB1MRGbxetY2X0aePczQFnPHDojePt+q0nPUcqqHqrPsNWbUzzG3I2fpdsGXq049XsiGlpLogNCwcEydOVGsjRo4ciWXLlqmc8k899RSaNmkC9yKuxjGW4/Qce7evwtMvjMOqVXbPLddXCDlPdvPMM3aeN7BeXp6oWrmcurkuVswTXp4eSg61laAqFRAWfh5Vq5RXBj/HV6taUYXZhEVeQHj4BZUJp3QA0xteeQ7jpWXWrMy20bD0K4XRNmXVNo8zjjfkbP2N65pai8yX8cOQ7XOwZmW2jYalXymMtimrtp7bclx236ch2XVGv6kzZfscrFmZbaNh6VcKo217SWpKQRCEnKHAeeaZrcTNzQ2pKdfe+ZPe+PuGv4VuHW/DX79PxNefvoC1v0/KkEWDBsTufUev8Njv3ndEPdZnHC/lmFjDg84MGtRpqN+997AyPo4eP41de+0x/OxjOyzcWIzJeteeg8o4obxyzUal1zrNrj0HVNHExMRi5+5/bcdEqprtgkpKmjMuXY7Bp59+Cnd3dzz//PP44Ycf0KxZM3UD9/XXX+PgoUNITEw2jxDyE1UDy6qFsFUrl1XtgFIl0z+PlHmTzTYNfcK6Qd2g9DGMk2db4uUFQRCEwkSBjJl3hK+mL1T1mMcHqJrQONCGwgtvfIEmHYZj0pQ5aNx+GJat3qz0pMeAZ9G2x2N4dMz76NF/DIIaD8DdA1/E48++h0ZtBikDnhw9dhrd+j6Jhq3vxzsffINufZ5A7/vGqL4jx06ha+9H8cfSv1X79yV/oUvvkTb9SezY9S82btmt9B9/NgOhYRHKoL+z/2N4ZNT/8MiTr+POfiOV4X74aDA63TEEtRv3wEeTpuGsbWxBJTXVSRnvDKPq0aMHxo4di1OnTuGbb75B06ZN0aJFC8ydO1eF2iQzqN5BwsPDTUkQBEEQBCF/UWiN+ajoy+jRuXkGT7xm2eot+GnuCvz63dv4ZtJLKmvGsCfHZfDQN29aBwt+eB+PP9xPtV8a8yC+/PhlJW/bZfeckyceuQfTvxiL8WOfwqatezN46LOiR9e2uLP77UqeMXUcqlWthAmfTrMZ+LvwzeT/wwtjhiv5j6Vr1Rgy6rEHMeubDxFUteCGjDg7pWHAgAG49957MWfOHBXGQYOennl666tUqYIRI0aox/wuLo7/aScniydfEARBEIT8SaE15snBw6dMKSMhoZGqbtWsnqp9inmqOjTcHkLj51tc1RXKB6iai/SuRsUKxoLLpo1qq/pGOBF8RtUfffYdfv9zDe7s0QHexbyUjlSqaIQmFGR0DPD06dPh6+urFsCWKlUKDz74ILp06YKff/4ZZ8+eVWOyQ9r1Vs0KgiAIgiDcohRaYz6wYmkcP3lWxc5bsea7zhwrf7OEhhk3CSSoakVTypqSJXxMKSMzp76HmV+/r0rPbob3vrCQkop0jzw98G6uzrYCuLo4KYO+Xbt2+OOPP5RxnsLBgiAIgiAIBZxCa8yPePAuVQ978n0sX71VpaZ84Y0vVYaM21s1VH1TZyxUC2C/mfU7mjepbWa5yT4Lfl+DXXsP4/Ovf1FtGvLM0EGmTp+LXXsO2eqMebbr162h6iXL16l4+dvb3Kban0z+Ti2AffqFd1W7MOHklIpBgwapDCnMVqIjaZyc0uBR1E2F4IwaNYoJNLIVZiMIgiAIgpBfKbQWT0CpEvh34wzcc3d7/PLbGkyaOheVKpZOXwS7+JcPEH0xRi2AvbdvJ3w/9U3zSKBnl1ZoWC9IyeXLlkLPrq1UmE2xYh42uTXKlSml+jQMyfn0ix9QrUpFbFjxXbohP//HT1CrZhXMX7QSDwzoiTu7t1Op+Mj9/XviyZEP4KdfF6sFsMMf6o8fpk3Ajt0H8NGk6WjTqokax1Cbu3p0QPlyZVS7IOPqnKb+vV5eRdMNeQ0DcDw9isDH2xvu7q7pITlC/oKfuZ/nr8LpkAgJfxIEQRAEByhweeaZ6aRNmzYY+8wdSEmONXIaE2Xc2XMcGz8M2RhDgTUrs200zH5DVpVlrGpp2XIcdUxV2a3vKIwfOwoPD77b6FPd5pyW41TblO39SmEU9dIya1Zm22hY+pXCaJtyBr15vFWn5aznUA1VZ91vyKqdYW5Dtr9P6viyy0aLsmoYbVOffrySTZ0p2+dgbbb1HLba3q8URtv2yirPPDca466wQs6S3Tzz/DuhEf/kixPRrEltjBxyl8oZbw6yVcYxfHr2w5zlCD7JEDknTJv8aoZ+LbMvNjYeH03+AcV9iuHpxwdSZY6hYIzN7uco/W/ccly2/sZ1Ta1F5sv4Ycj2OVizMttGw9KvFEbblFVbz205Lrvv05DsOqPf1JmyfQ7WrMy20bD0K4XRtr0kz7wgCELOILEIuQh3pbyjWxuUK5vRUy8Igp0LUZdwnuXCJZVlysnJFcVKBOKvTYcQeT7aHGWn3R1PoEXTOhj92L14+rF7TG3WrPtnl23OS7irRzu1B8TEL38yewRBEAShYCDGfC5SrUoFfPv5m+jeuZWpEQQhM19NX4TJX8/H5G/mYcbspYiNT0Lnrj1QpFg5/LFskzkqI43qV1drWLhJFOHC9Ulf/YKHR72DtydMU5uycWO3t97/Ghu37MXvS/7GyNHvYPxH0zHsibFYunJDeorYJSs2YP3Gnaa8HkePn1Ibt4156X0MffQ1/Dp/qdG3fJ2xXuXFcTh67KRay/LmO5MwZMRLtpuGbWqMIAiCIOQ1YswLgvCf0qNLc9zZraWttEKndo3V3g8hZ84g9OxJNG1Y3RxlZ85376Dfg6/iux8Xp2efemPcVHh7e2LM4/ejYvnSeOPdqSpEp4ftRrpHl1bKM//g/XeixW31MOaJQShT2h9r/tqqjl1qM+bnLFiu5Nlzlqi1LVy7MmxwHzwzagg+mDRdGfdnzoZh+qz5ePjBfrbjS+HVsZ+gbp3qeG70MIz7YIrahVkQBEEQ8hox5gVB+E9pXD/IZrTXUKV+napISozH6hUL0bh2AGrXuHITtFbN62Hdki/hbTO4B40cqwz6o8fPYNigu5SnnvWPvy5VC825xwONez4lq1GtklqM3rBedVupgZ17DiojPbCSsUcDvfnWlLBbd+zH9O8X4Njx0+lpZbmhW8P6tVQI3fezF6o9H7ggPSLinNqNWRAEQRDyGjHmBUG4ZXB3c0W92oG4o3Mj1K9d+ZopRvv37qDqozZjOyIyKt1LT6OcGamuR+XAcvhj6Tr06tkebVo2wtffzUP3Lq1V32tvT4KPt5fyzrds1kDpSFlLpqqqVSoqrzzL15+/i+rVCu7uy4JwM7i4uKjkFFIKVnFzczP/Dwv/NZLNRr20zJqV2TYaZr8hq8oyVrW0bDku+1kj7LK9XymMol5aZs3KbBsNS79SGG1TzqA3j7fqtJz1HKqh6qz7DVm1M8xtyNn6XbBl6tOPV7KpM2X7HKzNtp7DVtv7lcJo216SzSbvuJFsNskpKYi6GIPi3sVsFwqdYlQNslVOOH7iLMZ9PFM1z124qOoFP7yPZas2YegT76g0sQcPBeODd0ajdYuG+O6H39WYYYN7IyziAhq2vl8tSp/+xVvYsHk3nnv1I2xcNUt59lt1fhB7Ns1FmQB/jB33Jbbu3A9/3xL499AxfP3ZW9i6Yx9ua1wPjRoYOzkvWbEO//u/Sahds5p6hzO/+cD20yapl/m+WakWZdWw19RaZL6MH4Zsn4M1K7NtNCz9SmG0TVm19dyW4+xz2Ip62WWjRVk1VG1Idp3Rb+pM2T4Ha1Zm22hY+pXCaNteks2m4OLs7Kz+P3KH7oSEBHVdLlOm4KdPLmxERUXhwoULyqiPj49XO7Dz/7eQ9xR6Yz488gLCI6KUXLWKYdAxnV1AKabEs5F+MTJkVbFtyqqlZfMchqhlW1Evu2y0KKuGqo1+Q7b3K4VR1EvLrFmZbaNh6VcKo23KGfTm8VadlrOeQzVUnXW/Iat2hrkNOVu/C7ZMffrxSjZ1pmyfg7XZ1nPYanu/Uhht20uM+bzjRox5haoNOfPfeGxsgjK8KXNvh2qVbf/fzOPC+FkOv4Bqts+xlxf3a7B9vrmLs627dCkaiE4qow0XrjIuPiYuHqFh58zdmJ3UgtiG9WvaJOOcu/YeVLHxHM8Y+8u2upiXV/peEDwvw3QYgkOPfekAeu1tx6qXMYeqVIuyathrai0yX8YPQ7bPwZqV2TYaln6lMNqmrNp6bstx9jlsRb3sstGirBqqNiS7zug3daZsn4M1K7NtNCz9SmG0bS8x5gsmnp6eCAoKwt1390Kn25ujRDFnJCdeRFoKjTzzb4Fk+nvQeuPPiD+MNmvzT8uGTbD2m3o1R3rDaCnMv0X7OYgWjD7dvPLvVgnqJ+sr5tBvyqz1EcYg9hstknlujXGMrSiV7tc/bL2Wsbo/41xqlBaMWmGv0+cw+9V4U9YYc1BgrWWjos7o1wpKNlk1ncDtQC5euoSdO3fiu+9m4MiRIzhzxvYdLeQphdaYj7EZBW9NmInZ81ahR+fmasgrzwxWj+q37z6EoQ/coXT2P2RDVpWaw9SxpWXzHIaoZVtRL7tstCirhqqNfkO29yuFUdRLy6xZmW2jYelXCqNtyhn05vFWnZaznkM1VJ11vyGrdoa5DTlbvwu2TH368Uo2daZsn4O12dZz2Gp7v1IYbdtLjPm8IzeMeWMOQ1YV25bjMvabbaUy2sZLy6xZmW2jYelXCqNtyqptHqfPYYhathX1sstGi7Jq2GtqLTJfxg9Dts/BmpXZNhqWfqUw2qas2npuy3HZfZ+GZNcZ/abOlO1zsGZlto2GpV8pjLbtJcZ8waNChQqoX78+/vfSo0iNOYrUlESH/x6MH7aWlg1Byek6pVeadNloUVYNVRv9hmzvVwqjqJeWWbMy20bD0q8URtuUVds87lrnMH9cMbeu1TEsSnXlHOnnUHpDts9FHV922WhRVg2jrWXzOKNfKYyiXkphEwydalmOMzS2YnQYbVNWbXNsWpoTvp0+HXPnzsXhw4eRnJys9ELuU2hj5j/9ag6K+3jh5J6f8fWnz9vKC1fE2dKw373vqNqkxsrufUdU2jsNvX3UMVZXEARBEAobdIgM6N8Hb71wD5Kj9ytDXihc0KYfPvxhfP75ZNSqVSvdyBdyn0JrzE/57neMeWyA2cqab7//A5OmzMGQx9/BstWbla7v4Fcw8atf8e5HM5RBv2HzHvQb9BI+/XI2vpm5UI0RBEEQhMJCkSJFUKNGDTzQpwXiL3FnZqEwU6VKFQwcOFA9nRXyhkKdzYb5rK/FUyP7Y+J7T+OZJ+7DL/ONsAxmzeCuk9M+exVVK5fH2dBIdO/SEp9NeM6mv0+NEQRBEITCAL2v1atXxxsvP474i5KeVTC4//77VcgVF8hyoayQuxRqY37P/mOmdCUMsen34Gt4cOTb+P7nJaYWmDdrHNas24HnXp+kxvTv3VFtRMNNapau3GiOEgRBEISCD9c5NGnSBG7Jp0yNUBBJTXNCVHSsrcQgOeX6Sy2dnZ0watQo1KlTB9HR0QgNDTV7hNyg0Brz0ya9gDvvfwXLV29VRj2LzlNNmDGDWTHGvjIcHW9vamqB0PDz6NC2sZKZ35rx8mVL+6H/3Z3w87wVSi8IgiAIhQGmn+zcsQ1SkmTNWEGFhvyp0yF4//338eGHH+JMyFmkpJqd16Bu3brw9vZWsqSszF0KrTHftUNT/DztTSxfsw2Tps7DzJ+XqhR0DL0pV8YfDepWUwtkGTNfq3olNKgXpI6b+dOfKma+Xu1qardJGv2Ml5/72yq8/sIwNUYQBEEQCgOMly/la6ZrvQ50ns34aamtLMGxE47F1jO97NyFazD9hz9MDdRaNSFvSE11RvTFGEyZMsUmpyIxMVHJly5d30NftGhRuLu7q0JOnjypaiHnKdRhNq2a1cGEtx5V2Ww+eOtxBJQqqTLadOvYTPW//vxD+GbSS7Z2c4weaSyW/fCdUZj22SsYNuhO1W7dvD6+nfw6Pnr3aRVDLwiCIAiFiWIepnAN+j80FsNHc2M14FRIBMZ/8r2Sr0fj2x/Cx5/PNlvA8FHvov+DL5stITdJSXXC+QvRmDBhgkozOXz4cDz88MPKoKeX/vz5C0i5houe6ymY+pmbiJG0tDRERkYqWchZCrUxLwiCIAhC7sIw1i07DuD/Xn0YDz3QHa8/96Da10VD7/u8RWvx3U9/qnTQmu9+XGxKBkwBfeCQsch2+g+/qzDX6T8swoZNu5Vu997DmP79QoSFn1fl21m/qXBYsn7jTlt7ga3Mx649h5SOLFm+DtNmzrP171Ay4VP6X+YtwbQZc2xjDyhdYSMl1RkhZ8PxySef2Az2FNx1112YOnUqvv32W/Tq1UuFzUycOFGF3CQnp5hHXZ+4OAnHyg3EmBcEQRAEIdcobe6o/r9x36pQG1K1cllV795/FE06PIJ/tuxToRs973k+PRW0I3wz4zd8M3OBkj/98ie8MnayzYA/pcorYz9TenLw8AlV77HdEHTtPdJmpB9U7dlz/sTLb3yCX+ctVW0a8vcNeRa/L1mDi5cuo9MdQ7H+n+2qrzDBOPnw8HC1o+9TTz2F3377TYXLuLi4YNGiRXj22WfVJp30tCc7EkBvwlAdIecRY14QBEEQhFwjoFQJlXSCPDx6Am6/a3R6zPys2YYR/cHbT+CpkQPQs0tLDHtynNINHWjsxF6rRqAKbeU6Ncpk2KC71E1C984tsXj5BqVbvGy9Cnc9cDhYFVKtSgVVP/xgH1UG9Omq2lt37Fe15t03n0aPrm1tc/yFjVt2oXGD2vDxLqb6pnz7s6oLE24uqWjQoAGGDRuGSZMmKaOeBvwzzzyjjHp65YcOHaoWuRYt4mYeJfxXiDEvCIIgCEKuwqQT/26agXdeHY7jwWcx9MnxSn8h+jJ6dGmh5BuBqaHJnN9WqrpHl9b4e8N25YF/YsS9Ssfd2Yc+/gYCqnbE1zPmKt3fG7apWuPlZQT+0xtPfLy9VD3hnecx8N67lFyYSElzwunTp/Hpp58q433kyJEoWdIHfr4l8Oijj6o4eBr5ISEh2QqzEXIHMeYFQRAEQcg1wiOiVOpnZotjzHyPzs2VQa9ZsmKTKQHnzkebUtZUrmSE52gaNaih6lmzF2PgPT3Qolk95aHfuGU3WpqG/p/L1mHx0nWY/+Mn+PyjV5XuetSqURXDHxqgSrvWt5nawkMqF7+ePw8/Pz+89tprKFe2NFxsFqOLixPKlyuLN954Q+3wyk2hshNmI+QOYswLgiAIgpBrcKHqHfe+jMlfz8c7H83CkpWb8eLTD6i+0Y/2V/ULb3yBz6bOwebt/2L651c3uOvUqqLqtydMU/My1KZF07rYtHUvWrdogEb1a6r+YyfO2Az9WkquHmSE5sxZsBwfTPxOyVfjrh4dVD3m5ffUAtghI17GkWOFb2dbN5cUNGzYQIXWFHF3VYa8xtVm0LvbdOyrX6+ehNncAriUKFFirCkXCNzc3FCpUiV0aFUdaalJcLL9p3BizZatViqjbby0zJqV2TYaZr8hq8oyVrW0bDnOPoetqJddNlqUVUPVRr8h2/uVwijqpWXWrMy20bD0K4XRNuUMevN4q07LWc+hGqrOut+QVTvD3Iacrd8FW6Y+/XglmzpTts/B2mzrOWy1vV8pjLbtFX72OJYs/xvHjx9nh4KPC318fMyWkFNwcVSLFi1QvUoAnN084eLqCWcWm8zaxdXDJtuK1qvC9tVKUXvtYqtdzFq12VcUTrZaFSUXUXrW6XqlY9tejLa7UZxtsi6qbZYMsputZtE6LWu97cKWobgaOicWV0PH2lacbH1a5jhDdlHFSestuisLr7AsNplFtSnbat2XPsYZabYPQZqqDdmuM4ptsL3NFNK2kpZmbxsya7NYZdsPo1jbVr1RUllS03Ay+CiWr1yrHtNr+DifsblC/oGbRvXq2Q5Iiuafj+1l/B2lfzfbahrc3K/lckwcinsXw/Oj7kevHq3VuDK2vsH3dkP0pRgUKeKOt15+GLc1rp1+vJ9vcbRqVs+MfXdSxnz9ukFwtv1dVw+qiGJengisWFZ56Lt0bIHSAX4qFKRLhxZo15obPNrOEeBvMzqrw9OjKAbec4ca37pFIwRVrYSiRYugRbMGaNKojhrL+Z58dBAC/H2RmJik4uibNW1g61H/ODWGJf1ap2r7NUb322XbT3OM2Uiv1TEsSnXlHDlzPTVl8zijXymMol5KYRMMnWrZZGf22b46DENeDVQ1/6OH3tk2hgtir/4+gZ9//hlHjx5VqS01NrvTlIScwikwMND2dVtwoAHRpk0bjH3mDqQkx6o/OoX6wzL+CA2V0TZeWmbNymwbDbPfkFVlGataWrYcZ5/DVtTLLhstyqqhaqPfkO39SmEU9dIya1Zm22hY+pXCaJtyBr15vFWn5aznUA1VZ91vyKqdYW5Dztbvgi1Tn368kk2dKdvnYG229Ry22t6vFEbb9tq7fRWefmEcVq1axQ4F8+CWLy97BOQ0fAQ7evRo9OzZ09QIgp0DBw7gxRdfxJYtW0wNUKxYMfVYX8g/1K5dG1Mmvoq02GDzK5dfuhRYszLbRsPSrxRG25RVW8vm8Rl0Sq806bLRoqwaqjb6DdnerxRGUS8ts2Zlto2GpV8pjLYpq7Z53LXOYf64Ym5dq2NYlOrKOdLPofSGbJ+LOr7sstGirBpGW8vmcUa/UhhFvZTCJhg61bIcZ2hsxegw2qas2nqs0hsydbb7dvTt2xdLly5FfLx9h32b3WlKQk4hxrx6aZk1K7NtNMx+Q1aVZaxqadlynH0OW1Evu2y0KKuGqo1+Q7b3K4VR1EvLrFmZbaNh6VcKo23KGfTm8VadlrOeQzVUnXW/Iat2hrkNOVu/C7ZMffrxSjZ1pmyfg7XZ1nPYanu/Uhht20uM+bxDG/OdGruaGkGwcza+uvr7EGM+fyPGvNmm3tJvl20/M82ta3UMi1JdOUf6OZTekO1zUceXXTZalFXDaGvZPM7oVwqjqJdS2ARDp1qW4wyNrRgdRtuUVVuPVXpDpk6M+bxDPTwRBEEQBEEQBCH/Ica8IAiCIAiCIORTxJgXBEEQBEEQhHyKGPOCIAiCIAiCkE8RY14QBEEQBEEQ8ilizAuCkG9ZvnY7Hn1uYnphm7z01jRVXwuOzwrOoecRBCHnOBZ8FjN+WmorS7B89ValW7bans1IEIQbQ4x5QRBuKbixkKOcDT2PwAqlMeqRu1VpWLeq0j829E5VX4ulq7aZUkY4J4sgCDnH5G8WYNiT7+Pi5VhTY/DLgtWmJAjCjSLGvCAItwwpqanYsvMotu46amquT4Vy/qhfu7IqAf7GzoLvTfpZ1eR4cKjy1NMTv3Hrv6Y2I9Szf9wns3HJYmzExMbj82kLVd/Mn1eYWkEQssOe/cfw64I1WPzLe3hqRF889EAPdO14m9lrwM/avEVr8d2Pf2L3Pvvnf9mqzZj+wx823RHVZj39h99tN+MbVVsQhAJszLsWLWkrflkU34yliC9cVCl5lVLCXtytpXh6cc5QfIzilrl4Z1GKGcW1GJwyFK+rFE+juFiLR3pBhlLUKM6ZS5GrFHfA6cqS5uSWRXFFGrIqLlmW1DTnLIrTVQpgs+cylJT0knZlsXVkXVIylGSW5BTb+3Ez/0KEWw165DduO4SPv1qEBYs3m9rrM/3HZcrYZqHhTrTXnQbCw6M/Rt87W2PYA93wyv9NTx+joSF//4jxqr9ZkxqYs3Cd2QNMnLJA1fT6t2tZT8mCIGSP7buP4OHBd8DL03YNugoxMXHpXvsnnv9IfXbnLlxjM+Y3KV1o2DkcO3EGb7w7VbVDzkaqWhAEmwln1gWOVLeycPKoDHgEGqVoJVupiDSWIiwVbKW8WcoZxb2sKqluZWyltFFcSyPFNcAspVRJdvVHsosufkh29jWKU8n0kuRUwlaK24oPkuCDRFW8kZjGUgwJaV5ISNXF01Y8jJJSVJX4lCKIT2ZxtxU3xCe5IU4VV1txUSU20dleEpxsBbaShth4o8TEp5olxVaSERNnlMuxSWZJxOUYloT0cikm3lbicOkyS6xRLsUY5eJlXLx4yVIuIvpiNKKjWaJUiYq6YJbziLpwzlIibSUCUecjcOF8uFHOsYTh/LlQnI88m17OqRKCcxFnzHIa58J1OYVzYacQGXbSVoLTS0TYCUSEHjfK2WMIV+UowkNYjtjKYVXgVtL8CxFuJWjIHzwagg+/WIiwiCgk2W68HKVrhybpYTYBpQzPvGbZaiP2ffpPy1Qhf2/cq2rN/D824OtPx6DlbbXRtX0TDBvYzewBivt42v7GY1HaNm+VwDKmVhCEnCagVEk0aVAD3t6eqn30+BmUK+OPozYDvmmjmujWqQW8vDwQERmFcmVLYdigu9Q4QRAAp8DAQMcDVPMBHh4eaNOmDcY+cwdSkmJMrSAYpPi0wYgRI7Bq1SpTA7i6uqJ8+fJmS8gpSpYsqbbr79TY1dRkDUNr6JGnIR8VbXxmmzeujvf/N1jJ10KHvgy5r4uqNZUbD8GJHTNV/+mQSPTq0dLsgTLMGY6jx9CjzxsBhumQzHPS2J80dQEG9G6LJ4f3Vjrh5jkbX139fWzZYl8AWaxYMfj5+ZktIT9Qu3ZtTJn4KtJig20WBV/GFv/Wbf2Xr9mOdz6chcW/vo9inh5mv+rFiKc/wDeTXsRnU+fh5Okw1KtdFd/M+h1ffPQ8GtSthnDbzf3i5RuUY2n0o/chJi4e6zfuxs/zVuDbz19Xc6hzmudjbbwHQ7b3K4VR1EvLrFmZbaNh6VcKo23Kqm0ed61zmD+umFvX6hgWpbpyjvRzKL0h2+eiji+7bLQoq4bR1rJ5nNGvFEZRL6WwCYZOtSzHGRpbMTqMtimrth6r9IZMHZc/9e3bF0uXLkV8fLzSE5vdaUpCTiEx84Ig/KfsO3AKX05fmm7I5yQ1qpVXhkTVwDJXxNVruIB2x24jHpes37zPlAwYovP7T2/jg8lzTI0gCNmha4em6NbpNtxx78tXZLPR0JCvZPssXrxs/x5g7Lw25INPhSIs4jx+mb8CIWcjcPDQCXOUIAhizAuC8J9SJqAE+t3VEo8M6pxeHh7Yyey9ORg6UyOoPO564I30uPrMPPJgD7zx3kzc8/A7qpTwKWb2IH3x69BRH+K+Pu1NrSAI2eW1ZwfjvTdHmi3b5760r6rv7dNR1S889QC8vb3QrFEtvPHiUNv3gi+KedGLD5QvWwpvvzrS1jZCcMi8HyaYkiAIEmYjFCokzCbvcDTM5mYIj4xSdWZv+55/T6SHzRAuer0cG6889HoRnnUMF9sds41hP2XCObW+mO0YiZnPWSTMpmDgSJiNahsNS79SGG1TVm0tm8dn0Cm90qTLRouyaqja6Ddke79SGEW9tMyaldk2GpZ+pTDapqza5nHXOof544q5da2OYVGqK+dIP4fSG7J9Lur4sstGi7JqGG0tm8cZ/UphFPVSCptg6FTLcpyhsRWjw2ibsmrrsUpvyNRJmE3eIZ55QRDyLTS4MxvyxGrIExri1FmzaVjHUK/7rXNqvRjygiAIwq2KGPOCIAiCIAiCkE8RY/4GYLYLZsLQRWe/YGytfux/NTiGj/czQ11W8byCIAiCIAiCcDXEmDfJzhby5O2XjbR2LDqF3ZSPns7ykb8gCIIgCIIg5AZizNtITU3Drn0nsGrdHlNzY1i97svXbk/33DMjRlZYx/y1YbepNRbjcft53ScIgiAIgiAIWSHGvI0jJ0Lx8ZTfMT8bW8gzlZ02tjOHzTDUZuqMxdi3fqoqu/cfV1vGW2F2jRFjPsXqBRPUGO4yqeGulcV9vNI9/4IgCIIgCIKQFYXamKdH/lhwGF4f/yNOnYlEcorjW8hbw2wyZ85YsnIrtuw4hLptRqqydNU2HDp6xuw14JbyL4waoLJkMGOGdYfKRvWqqo1uuPOkTpMnCIIgCIIgCJkptHnmuYX8zr0n8OmU33H67Dmlq1W9PL58376pxdXIvN27hmE23Baeu0lyx7qstn63jiF6Dnr3J3/zm4q7J/Tu86aATwA2L58ksfg5hOSZzzt0nvlBA+8zNYJgZ/uO3ZJnvgAgeebNNvWWfrts+5lpbl2rY1iU6so50s+h9IZsn4s6vuyy0aKsGkZby+ZxRr9SGEW9lMImGDrVshxnaGzF6DDapqzaeqzSGzJ1kmc+7yi0nvmw8ChMmbkMZ0LPm5qco13Lemrrd4bSXI3GDYIw/cdlymin9/37X1aaPQY03mnoN2tcA2ER186QIwi3Mk7ObnlWYuOScDkuOcs+KbdWEQRBEHKGQmvMlyjuhXt7t8YTQ7vjyWE9VHliaA+z9+Zg6AzDcDr2eVHF1HOL+MwwNGdA77Zo3nW02mqe285rrAtjG9cPuiKMRxCEjNDrs2rnSYyevgOv/7AdpyIumj2CIAiCULAptGE2QuFEwmzyDh1mM3jwYFOTO5w7fwGvzt6LdcEpuK9GIk5eckJcahFMH90G7q4u5ijhVmPbtm0SZlMAkDAbs029pd8u235mmlvX6hgWpbpyjvRzKL0h2+eiji+7bLQoq4bR1rJ5nNGvFEZRL6WwCYZOtSzHGRpbMTqMtimrth6r9IZMnYTZ5B2SzUYQhHwH94UIO38Jn839Bw3e3ImzUan4sl8J3H97FTzavjQSklMx6P1liLqc/QXkZ8+eNSVBEARBuPURY14QhHxFWHgEpq06gYe/2ITVx5LxVhd3vN+vNMr4eqn+4sU88GwHH4TFu+H577bhQrTjITdffvklFixYYLYEQRAE4dZHjHlBEPINwadD8diMQ5iy9Aj61CuK17r54vY6AXBxsYfTxMYlYPn+i7iYmAYkX0b0xUtmz7WhRz44OFiVw4cPq3L58mWz1+hnoW779u1KxzorTz71PF4QBEEQchsx5gVByDdEXopH9KU4NCmbhOZBfvD2dFd6ht3EJyZj15EwvDr/NEIupmDuo0HoHuQONwfj5hnDvXDhQlXmzp2rYrknT55s9gITJ05UhvyhQ4fQsmVLvPzyyxg/fryK//z999/VGPZ37NhR6e+++241RhAEQRByEzHmBUHIN7i7OGFw3UR4FCuOb/8KQdTlBCQnp2DzkQuYsvI05v4LjOpcHm/fVw8hZ07DzzMNRd0dS4N411134amnnlKFRnjv3r3Vwi3Npk2bUL16dbMFDB8+HL/++iv27duHfv36Kd2sWbPQokULvPLKK/j+++/x8ccfSwy+IAiCkKuIMS8IQr6iiLsLnutZGSW8PTF1bTj+t+gcFu+9iM4NSmPCgEDc3qiKMsLnz5+PDRs2KAM7MTHRPNpxmFmlRo0ayhhfu3Yt7r33XrPHQBv2VgOfWZJo9NMzr73z1lAdQRAEQchpxJgXBCFfkZySiqJF3PFQ27K4lOKCThWiMXFoQ7SvX95mgHshLi5OGfH0sA8ZMgRRUVFISEgwj84evXr1wurVq/Hnn3+iT58+pjYjVmPd19cXzz33nPLY62I19gWhIJLmUhyu3tXgWoylqlmqqOLixVLZUgKN4slSCc7ppaJRPFgqWEp5OBXVpZyllIVTEaOgSBl7cS9tKQGqpLmXQpqbLv6W4oc0V6Okuvrai0tJs5RILym2f2OKsy4+9uLkrUqyUzFL8UIyrMXTXtI80ktSWlGjpLIUsRR3VRJT3CzF1SjJLC7pJSHZ2ShJLE5mQXqJT2QIoi6pRklgSUkvcQnJRolnScpY4hIRq0qCpcQjNlaXOMSkl1jExOgSo4qQNxTYPPOfT/4UTk5yryJk5PSZUMkzn0fkRp758xeiMGfVDpTwKoJmtcrh53XBuKdVBZQoUQLx8QkoWrQI9u7di3fffVfFrtOIZxjMHXfcgWHDhpmzXB1ms9m5cyeef/55ZYTTUOdxNNKnTJmixnBxK2Pmn332WeWtp57/1vfee0/FzjPkZvny5fD29lZFjPmskTzzBQPmmZ8+5T2kxV99x3OhcOJWtAQeGT1e8sznAQXWmOdFOa+4ZLvgx9ruYEv7lzQ1wq3KqVOnxJjPI3Jr06jzUdGYs2wT3NyL4NT5RAxqXxUXYxPx195Q3NmsEn77bYH6f1q1alU1/ty5c8rg/ueff1T7WjCkZuzYsahSpUr64tVHH31UeegZU0+0MU+DnQtkO3XqhAcffFAZooQG/YwZM5T80EMPpR8nZESM+YKBMua/HIuEqEOmRhAMiniVxmMvfCHGfB4gruubICUlBet2HcezM/fh0Wk7se2QLHQThNzGt0RxPNyvs+0GOsFmzCdg1ZaD+HXdUTStWhLVqlVVhjwNjObNm6vSsGFDJCcnm0dfm7JlyyrDn4a8jpX/+++/0aFDB3OEnfbt26swmscffzzdkCc03nWIjRjygiAIQm4jxvwNEh0djTFfrcZDs07B1zkKzQISMeb7AzgacsEcIQhCbuHq6oL7ujVHuzqlUMIvAE/3b4G2LRqpLcRTU1NVrCZj5VkYKsPUldmFnuMff/wRv/32WwZjnaEzXNgqCIIgCLcCYsxnk5CIC5j6x07c/s4WHI7yxKS7imJ456ro2zIQrSs64YkpmxEcFm2OvjH4mP566ezYrzeuuRl4rtwMScr8Pnk+ye4h5AT+viVwX+dG6N+5CUoHlDK1Rs75adOm4Y033lDlk08+QalS9n5HoVedXvrMMe9s0+suCIIgCLcCYsw7yLnzF/DNiiMYMXU7/twbjSfaeOGT/r6oXt6Ik1eewuZ+KFfSHYMmb8fps2FKfyMw3vZ6xjy3nGcKvJuBXsePPvrIbOUOOfE+BeFqFClSBM7OGb/GuDCVN40///yzKvPmzVPZaARBEAShICLGvANciL6E52ftxqQlwehb2wX/uyMAHer4ZdhCPjklBav3RWJPeCoCPOIQee682eMY9F7TQ57Z284t4aln0QY+x3ABJwuNFo32smeeg3G/1FvHcgzzcPv7+6NixYpKR485DXzruSjr96DJ6jwcr4/V+qu9z0uX7NvrZ/XeOBd1urb2CYIgCIWLPf+eyFBITGw8wiOjlHw12H+1MceDQ9UcglAQEGPeARKSU5EQH4fafgmoG+iHYkVdVWwuYRabrYcj8fa8I9gZ7opvBlbAwMbF4OXhofodgcYqs2MQbjTDVHqagwcPqpox+lwBfrUQFabFW7RokZKZPYRGMuFCPmbnIPT4MzNHVtBwZvq93bt3p7fJ008/jZEjRyqZXO08HM/3SPhvyXxDobE+dbjae2M/z6v7mOpPDHpBEITCSa+Bb2DyN7+lFxIeEYUlK7cq+Wqw/2pj3pv0M47ZDHpBKAiIMe8ALjbDvWNgKupXKoGJK87iZESMymSz42gkvlwdhpVHEjCwTSAm3F8dly6EI/VSKFyd0xxedPfiiy9i48aNKisGY3FLly5t9hhxu9wevl69eggKCsKhQ4fQpEkTlQ6Phf00fhkb3KhRI3VMu3btlJecem4nT+Nbz83MHNRnnmPixImq0FjnWPZraFRTd7XzEI7v0qUL6tSpoxYHMrQm8zmsXOu9aRgCxD6+L6aUFITrse6fzVi9cZfZEgThViUlNdWUHGPKR0+nFxJQqgTataynZEIvO7321/LW6zFZeeTpqddef0HIb4gx7yCuLk4Y1KYCutfzxedrIvHSvDB8uykG3er64H99q6ND40Ds27sXc+bMUXmtv/jiC0RERJhHX5sjR45kMJ4Z+qLhxjfcUZIb4VwNGsA09DU0tpkXm3oa1tZMHHXr1s1gMGuOHj2qbhqygtk7yNXOQ3gTwHM5GpvsyHuz9lnzwguClcTEJGw5cAbDJ67BI/Pi8dKiSPy89jBSbyCDjSAIuU/k+Yt49d0fcejYldeiq6FDbGh0E3rV6V0n1N31gOG9b951NJavvfLJMMfUbTNSjeHY8xfs4Z73PPwOXnzrG9Wn5xeE/IQY8w6RhpRUI0tGz6YVULe8B5qXjcfMx+qjQ6PK8PHyUIvwGFrSvXt3DBo0SBnkYWGOL4K1GrE6zEaHqnA7eYakWD32VpgbmzcE3LiGnmwWesKpZ1o9a2gO56Y+M9WqVbvuQtWrnYfQY79582Zl1Ddt2lTprkV23psgZAVTUO48EIyXZx/E89/vQ/Fi7vji7qIY1coTU1cF46dV+82RgiDcCqSmpikD/omXv7bVIYiLSzB7ro8OsVm8YrOpsUOjfvTIPhj1yN34+tMxGPfxbLPHDo31T955THn2f//pbUSeu6j02hv/67evq74qgWVUWxDyE2LMOwCN9VKl/LBq53Hbl088qvu7omP98mpzmsTERLUhDY1c7jDJsJEPPvhA7WrITC6OwDCSzp07q8We1ph2Grbr169XBjKNeevNQfHixfHLL7+oWHKOo5ebXnLOoRePUs/MHlp/zz33oHfv3lkazMOHD1dx6jwXx2YV83618xB67PkEgcdztzeN9X1ayc57E4TMcMH5O9+vx4BvTiEsJBhje5XBI238UKF0STSv7ocRLYripYWRmPbHDvOI/w6GnglCYYfOsP2HTuPDL35DRKRhSGcHHWLz5PDepsbO0lXbsGTVFmXsz1n4N2oEXbmj95Ydh9D3ztZK9vIsmj6mfu3KaFw/SHnns/LoC0J+QIx5ByhSxB1dWzVA8aLOmLP+MC7HxCp9xLnzmLt2P46cilDGb7NmzXDfffcpw3zo0KHYuvXai3M09HBPmDBByYxPp0yjloWx9DSIaWxrPaHhO2LECCUTxpzTmCbMTqNDY2hcaz23lmdbw7AaHVrD3NnBwcHqXESfhzcaVgP7audZuXKlCrtp1aqVinXX82Z+n3wPer6rvTf287wazsV+QYhPSMT81TvQ9OU1WHk8Ge92dcGb/WugvK8HXF2MrzMaDeX9i6N7pRjM3BKNY8Gnlf6/Yv9+eUIgCOGR0fjg8wU4cjx3wlj+75WH0g1+lqywxspbw2xefeZ+fD5hFKbOWIz5f2wwtYKQfxBj3kE8PYrinp63o1JJN+w5HYPN+4Lx3cpDqFWhBJrWC1KP/GmEcht5Fnqq3dzczKOvD8NVaNRzDh0iQxhLTz2Nbaue8eQDBw5MD3Mheg7W1nhzq94K57bG6nNujtPvg1hlTVbn0cdyi3vrvJnfJ2vrfNa5NHouDeey9guFl0MnQvDO0ihUL5GED3v5onFV+/oSEn3xMuZvj8S0v86gfNnSuKNyXLqRfz14M6kXdBM+DdNPqPhkyd3dXRV908k+tjmOT5YYMsYna3qcxirzWN3P4zT66RQL+1gLQkFi6qwViItPhL+vN0r5+SDAdsNdxN3xa+S1GDnkDjz54uT0uPqsFsFyzNsf/KD6Z/68QnnqiV4UGxYRhaqBGa91gpBfEGM+m9zdpRV6N6uIwIrlMLpPU3Rp21RtXENiY2PV4lcWbiPP8BtBEHISJ9xbMw6nY1yw59Tl9IxRSbbP2t97z2DILzGIs30On+1dB6/1r4dH+7VD2TIBasz14NOfr7/+2mwhPSMTQ8n4tOn8+fOqbNu2LT0lK+nZs6d6YrVw4UKULFlShd6xZIY3CgxB0/NcuHAhw80D15CMGzdO9XH9SFahboKQX3l4YCf879l70ssLT9yNKoGOfTa7d7pyHVYxz6JoUKeKkp9+tA96dW+pwmy+/2WlMsxJ2TK+qhCOKe7jpcbUqFYeL4waoOagMc9jqK9bKxDdOtodXIKQXxBjPpsUtRnu3VrVxd3tG6BcWftCGYab8ILONJMsb731VpYXdEEQbhxu71ChhAs+v68cFuyNw9ajUTgaGoMP/ziFRQfSMPVuN7xwbwu4p8bilVdewWuvvITNNqOcT86uh35iRA87jXUuZidc+8K1K9yHgYVGtzV0hk+jCMPsaNDTQM9qPwhu0sYwOj6tYqEXnzoN16PwCRz7mNkpJCTE7BGE/E95m1Fdv3al9BJUpYzDnvmswma4UFXHzzMGfsh9XdS4998cruLgSdf2TVQhHMNwGo5peVttdSznCPAvoY6hnnNwnCDkN8SYvwG48NW6+ythrPyaNWvU43gWpmhcvHix2SsIQo6RlobA8qXxeMey+Hn7RczaEIa2dctg4qAg1KlphLzNmjVLGdcMz1qyZAni4x3b6ZHrO/g55ufXuk7j7bffTve4s1jDwDQ0xLl2hJun0ei3Zqi6EWRvBUEQBMERxJgXBCHf4F3UFaei0xAWHoGGlUuiYTlXPN+jAu5uVg7FvDxVvHlCQgJOnjyJqlWrKi83247u+cB9HZiRivsuaE89N0Nj6tXDhw+r9rXQ6z3atGlzhTHft29f5Zmn155lypQpSicIgiAIN4MY84Ig5BsqVyqPTo0qYuaaozh9NgKermkoXqwoklNScfx0KC5ciML06dNx7NgxvPTSS/jf//6nUsYyu5Qj0BhnzLrVyKbHndmVGPrCmwUa/FlhXSTLDEzWxeWEC8EZuqPDdapUqaJ0giAIgnAzOAUGBhaobRI9PDyUV4zZIfKKbTt248DJCAy6u7OpEW5VGLrAUArrjrIMmypf/sq8xMLNwcWgo0ePxuDBg01NzrFtz79Yu+skTkeloHfjUgiOjEVcEtDv9jr46acfVUaphg0bqrGMPR85cqTa+0G4deBCYv59WP+/8EmKn5+f2RLyA/ysTf9yLBKijOwwgqAp4lUaj73whVr4bw11tNmdpiTkFOKZv0GSkpKw5WAInv56PR7/9RwmbXHG/83ehstxsuhVEHKbJvVqoWPjarYvsDSs238W1cr74YFuTREQUMocIQiCIAiFAzHmswlT4f177Axe/ulfPDV9v+0XmIr/61kc7/bwxrZjUfh4/m5zpCAIuYWTkxMa1w3Cy/e3wEtDe6LtbfVQ3MfY84ApYZlthhuusezatUvpBUEQBKEgIsZ8Npk8exW6TzqOYyfP4NN7SmPk7QGoUsYblUoXx+j2xfHbnst4ccpKc/R/BzeduV6eakfGCMKtjL+//xWbszVu3BgXL15URjwLF8MyDaQgCIIgFEQkZt4BEpOSsXLrYYxfHII0V1cMaeSGNjV84epqT0+ZmpaG8Kg4zNkSgT+PueGnIf64rWFdszfvoaHOPNuZF+FZcWRMQUNi5vOO3IyZF/I/EjNfMGDM/Jw5c9TCb0GwwieoAwYMkJj5PEA88w4QdSkGX648DU/nJHx4pw/a1ymVwZC/ZOv/bWsYpqwNR4CvDwbXugx3S//1oFFNz2GdOnVUYQo86vjlaL0pybxdvHX3SPbpY1hb4XycV/dltaGNIAhCXnLp0iVTEgTHuWS7fq3bshtJySmmRhAE8cw7QPi5aPz4xzosOFIEnasA97appO44GT+/40gY3v87BbeXuYxHetRFjSrlkZqaBjdX1wwG/7XQxjd3kOX7fvrpp9V27oTp8PROsjTk6e187733VA7rzp07q90omTrP2sfQmZYtW6p4YXrdmUpv6tSpahz7ycsvv6zOK5558cznFtoz37Ot/G6FKzkc6oHnnntOPPP5nLz0zB84eBAPf3cSO6M8cF/VS5j+Qk+zR7gVEc983iHGvANEnL+I31euR+MaFfB/S8+heQUXVC/rjVW7Q3A6rhhGtPRA64ZBiIqKwsyZM5Wh3alTJ/Tu3RtFi15/a2ga1RzPzWZoiI8fP14Z9oRfkMHBwSr/NWXmwOYFj+h/I4/L3KcNdULD3gq3jef8YswbiDGfO2hjvlNjV1MjCHbOxleXMJsCQG4b8ykpKdh2KBTf/xWMtcfi0KVGUXSolIpPNqSgVoAr3nqgMUqV8DJHC7cSYsznHRJm4yD0wvv5+eJ/d1XA3tBk/LIpFA1rBuKj+wLRsn5VZRDSQCxVqhSefPJJ7Ny5E2fOnDGPvjkc3RZeG/KZ4c2NdSt6faMgCIIgCLcqB44EY8ysf/HsD/vharNW3r+zOB69PQA1K5fBOz19EHU5AW//sgex8UnmEYJQOBFj3gHcXZ1wOdkFx0+HoZy/D9oHeWBE+3Loe1tplPApprJp0JhnbHrx4sVVDnoXFxe1WU1OMmzYMLzzzjtKpoH/2Wefqa3mCb3t2lNP7z7Dbwi97uvXr1e7UwqCIBQ2+H0cERFhtjLCvujo6HRZ4vhvDZhQ4tOf16Hr58E4EhyMd+/0xYjb/VG1bHFzBOBf0htDW5bE+mMxmP3HX6ZWEAonYsw7QHEfb9zZug7W7g/DviOnbL+0VBR1c0ZySgqOnwnH2bAI5e3mtvE///wzxo4dqwzqN99805whZ/joo49w9OhR9TiTj6kmTJig4uDJuHHjlHHPvmXLlinjXrN8+XK8+OKLqk8vsBUEQSgM8KlqbGys2coI+/SaJDpkPD09lSz8t0ya9bsKo3m+RSomDqyBsv4+cHF2Un2pqak4ez4Wczeexld/n0O9gDT4XD+aNR06trh2jM4vhppaQ3J53eb6s8x6jmfCCa41Y2ESCX382rVrzVEGWq/HCUJeIMa8g1SrXBGDujTAjmMROHL2Is5EROGPfw5hx6GzcCviqS4IQ4cOxddff60KDW9fX1/z6GvDGwHGvRN60q1hMJxXx7QzjIZ9OlzmrrvuUnpCo54b5VDPLxGO08e1b98+vY+1vgGwjhEEQbjVoRc9JiZG1fS2W+Nwrd53q8ddw+8/jrlw4YIy4jPDzcasxldcXJwaf+7cORW3LeQdiclAuwoJCI9JQ1qq/f9VXFw8FmwNxzd/hSHRxRtj+1fHiDb+KMoYHAfhuqk33nhDPUUfNWqUSjihHVxcm0ZjnmvJfvnll/Qn2kyjyqfi9957r/r76dWrlzq+b9++6Nq1qxpDaMhzjRuPL1GihFrgLQh5gRjz2aBqpfK4r2tTeLimYfeJ8wgqUwz392iJKhXLmCMEQchL9vx7AjN/XmG2MjL/jw2q/3pwTHhklJJZX22+7LB87fb0OYWcgwY5Ew0UKVIE3t7eCAuzGXU2HbF6360edw2NcxpgJDIyUtVWrMcw3IY3AzwHi7OzXCrzkiIuwP2NiuL0ZRd8teyw7UYrBdsPnsE9311EcGQsnu1ZGS/2rQunxEsoH1AcPt7Ze6LCJ9cDBw5Uji7KOiSW/68PHDignm7zb4uGv+app55Szi8a+4THsxB9E8gbAz49ZxIL3gBMnz5d6QUht5FvqGxSvnQpjLm3LV4b2hXtWzaGdzFPtWKbX/b//vsvVq5cqcq6deuu+mhXEIScYcfuI3jjvZlXGO00pJ95/SvVfz0mf/MbwiIMw5s157tZ5iz8O31OIWfx8fFRWcJY+PQzISHB7Lk2NOQZasgsS9f7bmZmMCYz4Dl4DL/jhbyluM1AH9u7Eo7HFsOYn05g9n5XTL7bBe8+2AzVK5dTT2jo+Z4/bx4a1attHnVj8Ik14bo0hs3Uq1dPZaO7Gtx52sqhQ4dMCcorrwvTQwtCXiDG/A3Au3emwLTSokULld6Qj2VZ+EXzwAMPmL2CIDhKSkqqKTlG905NsWhJxovmN7OWKL2VmNh45a2n5117zelBP3TkjDreekOgPfTst3I8OFTpOQ/ns6KfEmR1Y6HPm/kY4daFSQyE/wZ/nyI4eS4OHp4eeKunH6qXdsOE/uXRrnlDlfyBSR0+/PBDNG7cWHnPFy9erNasZfXEJTswcQRDZBnCynCa7MLMcfTs04OviyDkBWLM5xDc3ImP2KzlwQcfNHsFQXCEyPMX8eaEnzFu4jxTc33aNK+L5WvsYS00mHfsOaL0VoaO+hAhoZG4dDkW9w0flz4+Kz76fK6qR4z5NN2gZ92xz4tK/vfQSdz1wBvpxjn7eg18Q8n09PMGgbCf5+J5dVu4OazhM4yZ58JVwlr3ZeWtZxw94Rh9zNVgGA8dMsJ/Q9/u7RB1KRbb9gejmJcHAku4ongxT/WkhHHpc+fORbVq1fDYY4+pMBk60F5//XX8/fff5gw3Budq3ry5WsB6IzD5BdfO8XgWySIn5BVizAuCcEsQbbt4fzVjOTbtOIzoi9kLUXv12fuxZOVWJS9bvR0jH7pDyRptkDMsjsXfzwfrN+1H1/ZNUCOoPHr1aIn6tSurMeSNFwZhyH1d8PbLQ3A29LzSjft4Nhb9+LbSv/rM/ejaoQk2bDEez1v7pnz0tJqfhJuhNkMf6Kb6AvxLqLZw49AoDw0NTd/HQz8lZfgNvbY07LiYNTOMtWcfx1xvYyr208urn7TqGwEhb/D09MCAzrfh8Nlo7Dh0GknJKTgRcg479+5XxjLDnuj1ZvahoCBjw8YGDRrg9ttvN2e4On369FHZ3zSUqSNMCvH9999j0qRJyjDXeuuYGjVqZDieoTTUEcbgM0SLITYcY01SIQi5iRjzOUDkufM4GpyzOeUFoTBBj/X/ffQr1qzfqxa7ZZfWzepg0VIj1ObHuatU2woNct+S3mYL6NW9JYKqljNbV+Llac91t37zPlUfPxmaweCvUM4/3dDP3KfPVSWwjLrRoBd/3CezxTOfA3h5eal49oCAAFVrGP5Yrlw5lUVEF8J9QJilhGMZN1+pUqX0nbnZZx1nlTmO46ljW8hbSpfyw72dGuJ4RCwiomKw82iozWIpokJrGNJ6/PhxnDx5Ut2cMcyGXnpHdg/m34LO6EYoU6fhTQLbuhDrGGaVsx7P8dYNGylTZx0jCLmNGPM3Ab0/i/85gKHfHMRD3x7C2l0nzR5BEByFXvh3P52LbbuPISU1e/HyGhrfHdo0UAZz4/pBGYxxUraMkSaW3nFdrMa3I1SpVCZDPPzpkMj0eYk1bEeH2RB6/1f/NsH274zB3EXrTK1wMzCePSsDmzoWem51P2UuYiWZF7NmHmedUx9n1Ql5S7kyAXis3+149M4GeKBHCzSuG6RCqBjPzvh2pphk7DyzyUhYlFCYEWP+BuDudOGRF/DQh0vx8OwwtAq4iAdqJWLMD4ew78TNLcARhMLG6bPnwLTf9WtXSi8N6lQyex3nnrtvx9SZi/HIgz1MjR166peu2oaX3pqmFqKyaLiL8/e/rLxi4Wpm6GFnXDyP5U0D4/L1EwCG4zA2nn08h0YvpGU5Fnw2g/EvZB96yWVjp8KFdzEv1A4KhI+tJryRY7YZhrTMnj0br732Gjp16qSezAhCYcXF9uU41pQLBPSi8PFobsWq7T8WgqnLj+KNeUcQULI4xnYpitZ1yiKwdHE4Jcfjq1WnUa+8F8r62R+73cpwx7sFCxagQoUK2f4ypDdkzpw5apMMxgxysY+OHbxVuXjxIhYtWqQe0WqYVpTxtkLOwlhmZnmqUvbaPgPfEsVwW6NqaN+6LjqYpUGdynBzvX42EWcXZ5Qt7YvSpUoob3zL22qhZlDFK/rc3VwxYkhPJCQmIzExCTWqlUeFckaIRsN6VXHxUmz62IrlSykd4RyVKgSgWuWyqnRu3xihYedRvqw/nnuyf/oTAI4vX87P9pmIU15/xuFzPPvpwec57+/XAa1uu7kUegWJy8l++PPPP9NzfBN6wq9lrNOQk5zvtxYMX+JmSnmV/YeLlxnGwsJwqTJlyqBnz54OhdgIeQufbnHzLebet65j0eFsQs7hFBgYeOVWePkYGhBMD2XdijknCA0Lx9d/hWPJnnBU93XCHXW90aBSxs1E4uITbWNC8fcpV8x7rJrtYl7B7Lk14a53zMIzceJEtbjHGjfoCHrzDO6Gx5snXogzb9Ryq8E0ZiNGjMCqVatMjXFxYAymkLMwn/fo0aPRqfG1M4cIhZOz8dXV38eWLVtMjRFvLEZZ/qJ27drKqaNDmQRBQ2N+wIABWLp0aYbdmm12pykJOYW4OBwg8kI0Hp22B7M3huGlNs545Y4KaFS5eAZDnov2Fmw+g+XHnVDf9xIuX75k9lwferTpIWfNmxAu6CGsramtOIZFy/q4H3/8UXnJOZ7H6zEa6jkm89zTpk1TmQAIDXnrOOu25txEgzrre6HMNGA02LjojP3Eeg5BEAQh/3Ir3lilpqaqJ13csVcQBAMx5h2Ae9iUKpKEWr6J8ChW3Ha3aej5ZXLhUjwW74zA+N+OIhre+O2xqnioVVmUKO542MaMGTMwePBg7N27Fzt37kTnzp2VnkYx+zSbNm1SRcv9+vVT207T2OZOePRycQvyli1bphvU9L7zLpir/tlHmbrM0HjneTmOcDtz8vLLL6sUXYTvRXvjBUEQhIINv++HDx9+y4RPMgXl7LVH8NSUv7BqR7CpFQRBjHkHcLZZ7y0rpKJLnRKYvCYSh85cRFJSMv7eexYfr4jEmahEPNIlCC/dVRVHDuzFgZ0bEHMpOluegyFDhijDecqUKThy5Ppb0BOGE/EY7lg3ffp0lRuXbW58oY15et8ZRkM9y7x585SOnnjGOTLM5vHHH08fP2rUKNXWnvqPP/5YxZhTxxy89MZTz7AaHss5GLvIfqKPFQRBEPI/fArLHO7/pVHPPP/MHHfv1IP4enUwfNxS8dSPxzH3r3/NEYJQuBFj3kFcnJ1wZ7NKGNraD5+sOoeHZ4Zg5s5kPNm+BJ7vXQeNa5RVsZ/Md8vFlJMnT043kB2B+YytZA6VyQp/f39V6xy3ViNae/C58ISLEDUMiaEuM8yJO2HCBLX7HY1+HbbDGwNrDl0a8Nn5dwmCIAj5l7CwMBUT/18Y9QypORd1CcM/WYlhsyLQtmQ4pjxYGSM6V8Yb7ZLx8m9hWLb1eL4KueGT8ayejgvCzSDGvAM4OaUhOdUJcXEJaF2nPG6v4YX7Gzphzqj6qBtUCe7ubip+fs+ePWpV/Z133qmyw4SHh5sz3BjMLrNvn7FhDWHWmOzCLa+1YU+YOYK6rKC3ff/+/SqH76xZs9TNAXP5WuPn+X7E8y4IglC4yEujnsb5/hNhePfnrej47ma4ehTDD4OL4f4OtcwRQJM6lfF0S2e8Oe8Idh8+ZWpvbd577z3lIJs7d66pEYScQbLZOEBiUhLWbN6Lg6fOo0fTQGw4dA5Bpb1Qq0pZxMcn2Ax5Jxw7dgxvv/22WhDKtEs0vGvWrIlPP/3UnOXq3HPPPSpPrg5VYVYAbhHN8JU6deqgXbt2qFKliloRzrAWjuO/jxlZGPqij9GZZKzz6Yw1fG9k5syZykCnJ57e//Hjx6s56G1nikrCVFKMwadxTy89bwZ4Xp6PNwL8QiI8D7et5vskfA88z0MPPXTLGvySzSbvkGw2wrUIvhiI1atXp6/PIVfbDEr4b2Ca53HjxpmtjJQuXVoZptyR95FHHsnRbDZL/tqK/1sRixolk3BnQ1/ULlPU9neR8XvkTGgkZm1PwIHwRDzRzBmD+3Qxe64Nr3V0UPEadejQIXVDop8+83pJvW7zGsnrG8dzLGWtIxzPsZmvd3o89bqPY0eOHKmuPx07dlS6a70Pyrrf+n7o5Mu8u6w+H+fgv08fw/HU6fdOqCO6TfQ467H695T5XHxv/Mxaj78aks0m7xBj3kFSUlKwZM1GbDl+CX7F3NAkqDSKe7pi0abjaFO3Ig7v2aSMab14lYtNaSgzRv160NPB8Bf94eB716kitZFNo17ngec4fvjoZdf59HmMvhnIPJ+eg1hTUFK/bds2NQc/tAsXLlTvm2E51g8q56MRXLFixfTzEeqbNm2aPh/fEw3/G0lzmVeIMZ93aGO+d5d6pkYQ7Bw+k6K+Iw8cOGBqjO9v2fPh1oGJGbIy5mnI33777fD19VXfqR988EGOGvNvTlmIP4974I0evqhRPuPfQ1x8AuZvPoPPthXF+I7JCCheFE4pCbi7ZydzxLXhtZIOK8369etx/vx5ZcBm5aDidZ3XNiaWGDZsmDKMGeLKax+vn3SOaecb4XWRySl4o8O+7777DgMHDlROMO5YS/uEzjL+3vg+dLgsx/LJN41nvo/ISGMDyqlTp6qaTjnOyTF08HF9HaFxbe3j/xuuo+P74fvn+XgOOu34Hvie9dy8mSYcx+MJ3wftFs7B3w3X3GnbQt+EcD7+XWQ29DMjxnzeIcZ8Nvlj9UYs2X0OlXzSkOTsjvZ1y6FZgxrK402v0h133KHGMVTl9ddfV48lhVsHMebzDm3M0yAQhMzQqODfh+SZv3V59dVXMxjzNBRpSHKNF5Mh0LDNjTzzE2cuQqKTB7adTcPg5r4IKuuNqMvx2HQiAVuOnkNZP2+M7FBO7d4cFnEeZ0LD0L3T7ebR14a2wWeffYbNmzervzcaqNr4vZ4xzyfudFTRufbUU08pI5cGMn8flOkU4w2ONsp1O6ubhczvg2mhmZmORjrHWZ+C8z3yusWbAsJ+JqvgLrjWPn0+fXPB90/D3OqEI3Tk0fH4/fffXzGOT+O5ro7GP98P1/9R5u+ANyH6BsARxJjPOyRmPpt0adMU97WrZjPgq2PEHU3Q5rZ66oPAGD/uLsoPCUtERER62IsgCIIg5FdoxNMoo7G3e/dulRGNhnyukQY0r+qD+1qUwYcrIzFzXRg+stWnIi7i4U5V8EKvGqhcqQI+/PBDHDqwD7WrGzs2Owo92TSgCb3M1qdD10I/cebxOrEEDXmmlCb8ndDDrT3WPAfbV/tdWd9HrVq1lNGvsRq89JBrQ54wjJbr24i1T5/PCp/Sa3hzQHuF4zNnzdPjeF7OTxgNQE89odHPfzNvHvj0Qbi1EGM+mxRxd0PrRjXQvkkNlCplPB4jjJNnHvbHHntMleeffz7D9sWCIOQ8CQkJOHMiArO/XI0Jo+dh/sw1CA+5IJ89Qcgh8tSI1zgZ6yfa1S2LN7sVx+bTcXiqYym8MbAZ2jaoYjPA/fDXX3+ppzsM7fQtWcI88MZgeKlGr+Ggl9tRtBGeOWkFYUiLDpG9Fta1I1lBJ6GG79eaAc/6XnUITWYYjsMIAr5XetczG/2OwJsBPkHgkwzWwq2DGPM3ADPX8PGRFT724mMoPt5i4RcM01QKgpDz8EnYqRMhWPjNDsz95i/1mWx2R1lcjkjDr1+tw5IftyMy4pw5WhCEG4He3zw14k1a1QvEtmPncTbiAiqVK4VuQUVQo2IpeHp6qtAQhrCyfuaZZ5Qj7d1331W6HTt2mDPcGH379lWbJPJazvCS7EKPPJ9iMFSFc+hw36vFltPrrcNreF4mj8gKJpagN51z0itOo1zHrz/77LMq/EWfj576q0FvPG+AeE7tcXcU3jDwHLyp4GJZ4dZCjHlBEPIV9MYv+HEZvvvfNiQ6R6HjgNpo2KEMKlTzR/O7yqFZjwoIPRuOSY9txqo//1HjcxNeXK1rdHhjry+0GvZbxwhCfoCJE/LSiNc0a1wfTWuUxZpdJ3H+guE158ZR586fV7nnaVAyNSYXofLzxqw7NOR5U389mMiBx2koU0d69+6tQkm4MLt///7p3mt61q2ebB6jve2Z5+Mmi4RzMMZet4n1OMI56WXnjYPOIEes74nw5oAZ5Tgn56MhrkN+eBPD9UnsYyw/1wzqc3B+LfOGgotZeS4uMucNQlbjeF59bur0v5tPDhjPz/M0atRI/a6EWwdZACsUKmQBbN6RWwtgd+3Yg1/fPomA6mlo0LE0fMsVhYdnUbMXuHwxDmHBl7BjeRjcnD1w/8sNUaGiPW40p9HfNTrjA40LPuq2LljLPEaQBbAFhdxYAEtS09KwYetu/LThFIq5OcHL3QnlfZzwwF3tVbhHvXr11AJQftb4uWLoB41gRwz6WwF+J/A6pNNL3yg6VSRhRAAz5GRnkWpuIgtg8w7xzN8EfNQfE5eIpet24rPZKxAbn2T2CIKQWyQlJaNG9yTUal4aB7eGY/WPJ7FvQyhCTkZg1+qz+HtOMEIOxaFNn8oof1syP6jmkdeHF0Z6t2iY8GJrNVCsfTTY+diZY55++mlVqNPwkfk777xz1bhbeu45D4teTMZH2GzrRWqcm32UeV5rzKzW6/GCUNBwthmCbZs1xH0tyqFUiWLo3LgShg3ojiJFiqj+c+fO4eeff1Y3gzQU6W3OL4Y8yezRv1EOHjyovOUs9PJbnwQIhQcx5m8Qbha1ZMsxPP71Fny48jwWH3HC/37cgfOX4swRgiDkFi6uzmjcvjLuHNoYHfpXR+ipC1g1LQIX48+j4z210HNIPdS9LRBO2fyGY3aJCRMmZJmJihu+8PE2+3gR5uNqegT56JrF6mHj42nOQ4M+K+g54zxcLMec1Fa6deumFqnxBmHdunVqHNMB6r0iaNTTC8kxLPRwM+ZWEAoit7dsgif6NEPrJnWVsc6wOTrSaMQyXj4qKkptXBUXl7+uvToN5M3Cefjdw8L5dHYcoXAhxnw24ZfI9v3HMXTKbrz8SzBq+aXhzTv98Vo3X5yOvIy3fjR2VxMEIXfhhd3DswgqVPND+761UO8OZ/Qe2BblAn3hXiT7u4jSM84QPR23ag2JYR8XltHYpzecm7/QiL4WnIf5mnlsZuh1pyef82WGKeB0ijnGyRLGqDL+ltCo53thPmkW3mDoNHWCUBDhwleddIKhtDRaueiVIXxPPvmkypHOsBtBKKyIMe8gXHQTHZuId6Yvw91TTsE98Tx+GFYaA5qXRkBxDwSULIanbi+OTaeS8Niny5GcnGIemfNYH/cTvXJeEISbQ+/GmBU09Okl18WRWFduuMOFbVYYIsO4Vm4ew3kchTcGGi5es74XicUXCgs06umJZ+ENvZubm1qfw7VPglBYEWPeAeITEvHDyr3o+e7f2HmuKCb0LIJXegWmG9NEbRqVANTxT8GGs87Ytc+xTShuhBUrVmDIkCHphoD1Ii8Iwo3BdGv0cusbY3rPNfSW0xuu49szY81TbYUZJLp37652etRwETbPxTmvNt+16NKli3oywJt6QRAEQRBj3gGiL8fh101h8C+SiFe7lETTar5qQwtNVPQlfLv2DL5Zfx4tqhXHoFrxcHO1918PXtC1p11vxMCFc48++qjSWfV6wR0v5nxMz0IDhFtNW40PQSiouLq5IjEuBdEXLiHlKk/AkpOSbf2XkZKYBmcXx77mGNrCx/X8LPEzZ00NR5YvX44XX3xR9fHzqo1pprLTn8es4LbrVvr06aO2wuc8N4JOMadDfjKnwRSEgkx09EUsXbNRLYQXBMFAUlM6QMT5i5jz51+Yc9gDzcokY0j7ynB1dUai7ctk86FwTFiXhr7V4vHEXfXUrrB8DMhHflaD/1rwgsx4WJ03ltCQ56NDZqrggrfOnTsro50Xcv1v04/WaUTwkT09fcK1kdSUeUdupaa8ePEi9mw6htOnQ2wGuBfKVfG1fZOl4ci/wWjVoTHOnjyndoVNTExC1eqBqNukivpeyC78nHGbduZWFnIeSU1ZMMit1JRW+OT7clwituw9gtfmn0FwrO06H3AZ08Z0go+Xkd1GuPWQ1JR5h3jmHaSouwsm3lsOEUme+HFjKFbtj8Ynf57AP6dc8OWAknjpgZa4fPmSWpRDw3rGjBlXTUuXGe7gpned00yfPl1tBkFo5D/11FMqvEYQCjtMQdeqcwN079MWZQP9sG/nUWxfdQLnzyRhxa+7cPxICGo1qILufdugSata2TLkrSkjacgza4wgCP8d3Czqz83H8PjUrRj7ewjublwC3/VzBdyKYtQ3W3E6wsixLgiFGTHmHYSegeI2I+L5HhUReikNW45EoE+b6vhfn8poUL2C8sIzPVzVqlWV4U1Pe0hIiHn0taH3nZvLcKGc5IwWhOvDhW8lSvqgSfN6GDT8btzWpSrKBfmgzZ01cO+QnqhVrxqKF89+3mmdMpKFHnlJ8yYI/x079h3CPZ/twRvzj6NugDPG9QpAv8YlUbmcP17u5o+iabF45YdduBSbu7s8C8KtjhjzDuDu6oTLKW44EnwWfsU90a6aBx5uXxGtq5eEl6eHWk3PUA0uRKXxwLAYehMcNeYJd7Kjd16nuxs2bFh6jmrOxwV0XPh2NfQOcIJQ2OCj3IaN66FX/y6oXqO6qRUEIb8SExuHsd+txd3fhKBocji+GOCL/s38EVDC0xwBeBR1w10N/bA/NAGzf5d9FoTCjRjzDlDcxxt929fH9uPnsXnfcWWok7j4BOw5cgYnQ8JUqrlDhw7hn3/+wcyZMxEWFnbVDWMyoxe/MgaeITqEj/d5c0A948u4AQ3j5bOib9++6Nq1qyyAFQRBEPI9U35diVm70vBKG2e83bcaShT3Nnug0j4fPnsRX685i3k7zqFVRcDXK3sJJ/gEnEkluN7Met3UfSw60xSfuHMNG8dmzj7FY/UcPEYvitfz8zjqGEKr57CeT49jemkWvas0x1k3guMc7M+sFwSNGPMOUrFcGQzq1gTHQ6Pw7+mLOHYmEnP+OoATIedQskRJZeAzS8Vbb72lygsvvKB2p3MEbvjCx/qs9SJWPt5nHmv9yF9vZENo9FvzSjNEh2Mk17QgCIKQ30lJTUXHign4NywRaan2HB2xsXGYse4svlsXidoVfPDmPfUxsLm/enruKEyCwOxThM4zOuK0ga37uAEVd3mm4UxHGa+xzEpFJ5s2pmmI6/0iCI/TT8j5hJ3OPB7HNW8sNOb1+fRNgR7HzeEuXLiAXr16oXjx4ukOOg03kGvbtq06nmltBSEzYsxngzIB/njwjtbw93LCvlMXcXudUhjSpwPKl7n6RjOCIAiCIDiOu7MT7m3shXgnD3y46CAuxyXh792n0GdaNJKSUzD+vuoY1r0Bws6cQKkSnvC1eO4dgcYxDW06z2igW7ObsY/OMxrg9JozXS3DYHUorE4TTeOdMuegI41Z9Kxw7RyPoWPO29sbBw4cwLJly9RTe940aDiOc9DYJ3xfLEQn0ShdurTK4kVD3pr1ThA0YsxnEz7uG33v7XhrRHc0aVgfzuYW01wAu3XrVsyePVsVppGMjY1VfYIg5B5cnL5j0wEs+GYrDvx7yNQKgpCf8fAoitfurIi0Ij54ee4pbAwtiu8He+PNgc1QrmwZhIaGKoN67ty5aFC3lnlUznL+/HmUK1fObEEZ5dRprIb1tXaP5ho4evTp8e/du7epvZLMczB0lyxatAgnT55E8+bNrwj1EQQixvwNwG2kixTJmNu2U6dOaoFqpUqVVOEd9DPPPGP2CoKQG4ScCcEX/7cACz49gLBzwZj+zEF8P3lphguuIAj5i3K+Hjgcehnu7m54pnMAGpZ3xyt3VsBtDWqp+HEat+PGjUO7du1UoolZs2ZhyZIlysB3hH379qV7vTdt2oRq1aopOTMMtbHuM8Gx1JGgoKD0dNKciw68q8E+PgGgx5/hNNmF3n3GzDMciGmvBSEzYsznEFykyjg3a7HGvAmCkDOkpqbizMlQLJr1D354bxt8S3mh74tV0KlfA9zzTnkkxzth5vh1WDV/F8JDz6nxuQmzTemLOmtecDMXQRAcp/+dnZCYkIgNe46jiM2gL+XlDC+PIsqJ9tVXX6lNiGjIP/LII2pTOmaR41o17qzsKIxP574SzBTHXdWzgnHy9I5zHAvj3fWOzvxcc7doLkql5z1zmI0Vhu7Qq86xNwKPY2E4D20LQciM7AArFCpkB9i8I7d2gA0+cRI/vL0brkVS0XJAAMpWyrhjaEpyCoIPR2Dd95EoX7MYBjzdBP7+uberqP6u4YWWxjy9d9xnYuHChSoeVvcJGZEdYAsGubUDbOT5C5i3ehfcXdJwKioVrWv4oahrGop7uqnP3KBBg5RHnTuLfv755+pvh0Y5F5BeCx7L739uzEhD3bpzOm/M6WXPnDlO36xbxxKOZ+GTeF9fX/VEkO+DTw9YW8NwOIe1Tdk6juflXPrcHM952a/Pw3HWOW51ZAfYvEM88znAmbOh2Ln/qNkSBCE3iYw4j4B6iYBLCv6aFYoDe48h1ZLxYs/mE/jnh2iUqpGCYuXjER9rv4g4AmNSecHnxTOzU0D36Ys7axoGLOzTi+GYnaJu3bpKZuFF25pSjnOzrc/BCznrzPGw1HORnX4/glBY8Pctif6dGiEmLhGR0bE4FX5BLQRlKmfW/Dzwc8UwG3rk77///usa8lZoJGc2zmkoZ5UCmuMyj2U2G96Mjh8/XhnyXCjLOQnnyGx083htjOs+6zgeaz03x+v5OEYfLwhZIcb8TcB0lLNX7ELvyUdw/3en8Mc/Ro5ZQRByDy549fBxxZDXW6HdoLI4vtYdf07bj7W//YuFX+zF+SPuuOPp8hg4pgNcPcyDHIRxqYxtJbxQWx+/8+LNWF3Cpw1W4/x68KJs9c5zp1mmsaNBwnNw92fCc/M8GoYCcOFbdHQ0OnfuLAa9UKjwK1kCT9zfDa/c1xwP9rodQYHlEBcXh8jISLWfy4svvog333xTfT5YHIEppBlvf7Pwu4KpIlnokbemjxaEvEaM+RsgJi4BOw6H4r73V+CdFVF4qH4iXmiRgv9bdBJrd9tTTgmCkHtw5+V6TYJw38t1UP/2skiMcUKHB4LQZ1RdVKtZST3izQ40lD/++GNlsNPwnjRpktlj9DFzRqNGjVSb8bo6LR0Xv7Nc62JOjxqP0cb4119/jQ4dOiiZ0IjnOXlunodoLz29jSz0RvImQBAKE/wclylTWmWMIwznYcrHBx98UIVvMOadN9cBAQGq/3rws5iV9/1G4Off6kEXhP8KMeazyYZdR/DyD3swavpuVC/vj8/7+qBH04poXbcCHmhcFG/OOYhlW4+Zox2Dj9Kz4+UTBMGOq5srylUpiVLVgMCqZdUaiBuBhjYXqlkfbWvYx+wVGhr19JpnB46nMc65WrRokcEA0LJVx/Ud1lR1DN2pVSt3UvAJQn6BN/H9+/dXsdhMFVmzZk28+uqrEoctFGrEmHeQU6dD8PiUzRjxwyk4J13EW71KY1jr4ijra1x8XVyc0aWuH1pUAJ746Qz2HXQ8hp6LcCZPnmy2BEH4L6BhwJR1Gu1FJzTsjxw5oryBOg4+u4/V6YmnR54Gfc+ePU2tAW/oifWcFStWVLU+Hwu9gIIgCIJgRYx5B4i8cBFPzvgXG49cxMc93PBkl4qo5O8JZ2fjMX5KSioiLsZj1l8n8fdpV3SqcBHJSYmq73rw4s10VzQiuMhNFsoJwvVJTUm7bspJ9nOco/DROxetMgUcP0fc7VFDY55ee3rX2Wf9nDEExrpF+9Wg150e+fnz56swAStMbcc5GRc/ceJEpaPxz/zU3BlSn1MQCjvJyck4H3URqWkFKhGfINwUYsw7QEpqGgKLJaCiTzJiUt3VAjzC+uy5S/h+YyS+WXkSJfz88MOIGni4Q1UElLr6bnDXghd8euA0slBOEDISUMYfMeeTsfK3rQg9G25q7dCIP370JBb/vBlIcoOHV1Gz5/owXR3zONNAf/755zOE1vz666/pnz96zenJJ9zRkelOrdD4f+ihh8yWnQYNGqRvOmNFx+d///336Z9/fhdwYZ02/JnFQxAKMxEREZj0+wE8MmUbfl6939QKgiDGvAM4OzmhURngwZZ++GJdNPYERyExMQl/bjuFcUuj4OWShGfuroeH21fEujUr8fvcHxBy+mS60X8teNG3prFjWxbKCcLVqVSpIoY9excqVPXDttXHsHLxBpwJDkdKInDi8BmsXLQJh7eHo06zsug/tFO28pZzJ0mdGYOe+AkTJpg9Bgyt4eePtTXOfeDAgRnCbvg5trb5eaZn/Z133snSyOd4zps5jEbPzb7M3nxBKCzwejt7xU60/+QQFu8KRcsyiXhlUSSmLd5pjhCEwo0Y8w7CkJqWtcvhxa4B+GpdFIbPOoMVJ1zxbu9SGNmzHiqXLaly3TLvNBfHTZs2DWfOnDGPzh6yUE4Qrg13gmzbqTl6DW6DWnWq49K5BMTFJCP0ZBQaNquN3g+2Q7MWTdS47GD1fjPEJbtx8ddj5cqVynDXUNZhNYIgZCQmNg67jp3D4I9W4f+WXsKIOpfxxcBA9GldFR93TcXkvy5g9pqDGfaZEITCiBjzDuDslIbEFCdEX4pBg6Ay6FzLC8OaFcG3w2ujSqVyKmUWt5Pev38/br/9drRq1QrlypVDWFiYOUP2kIVyguAYJUuWQIOmtdBzQBv0f7ALuvZpidr1q8HLy9MckT3o/dafoZxKX0e0591qyBOtFwTBDp9qr999Ai/9sAsPT9mGqmW88eU9PrizRVVzBFCvegU82dINny49hX92HTK1glA4EWPeAYp7e6FOUAX8seUEoi5EoZyPK+oH+iojnhtYxMTGYv369Vi2bBmmTJmCUaNGKZn5bx2Bsbf0AuoFbvS6y0I5QXCcoh5F4VPCO9ueeEEQbj1+WfwXRswKhkviZXzYvyweauWHMiUz3qAfPxWK3/cnwNU5BSdPnTa114eOMCaaoGOMT9K1g4ywz+oo0+OIHqt3f2afHq91VvRY63wa6nm8FbazmkcQHEGMeQdg3up2t9VDs6rFMWvtEVyIvqwWxR49GYLpS3bheEiUCnV5+OGHMWPGDHz11VeYOnVqhi+Ja0EPILeCtiIL5QRBEITCyIEzUShVJBEtqnmjfMmiKvUz4eL2kHMxmLbyGJ5dCtzXqChe7uQDL3fHN4hbsGABRo4cqRxj48ePh6+vb7phzT4WDfPXM3U0admypQqB5TGEfdwlmoUL4zt27Jh+zec6Ns7Lscx/z0xzhIY9N72insdruJss31PmeQTBUcSYzwad2rZA10YVcPJ8PDbsCcbmw+dwV6uaaNmohjnixtEL6/hhl4VygiAIQmGlRFFn3FvfBb/vvYzNhyKRlmpkjvvunyhMXxcKv5Il8eeoqmjfqAqqlveDZ1F380jHYAgsM1cxQ9V3332HDz/80Oy5NjS2eYyGBjvbDImtUaMGFi5cqAzxfv36qXTT7KOjbejQoUrPG4W3335b6fU89MZv2rRJJbdg4fq3NWvWqD5BcBQx5rNJ26b1MLRrXfRoWx9DejRF47pBakc6xvjxQ8v0kCwhISFITHQs13xWyEI5QXCc5KQUJMQlqRzUgiDkc9KAehW9MaJ9WUxefxkfLTmN/1sahZLOlzHmrlp4uHM1lC0TgDfffBPbt25GvdrZc6gxe5xOIsFkEbx2OwLXwllhsgsNZWbBoiefmbD0mhueh23quenc0qVLVUisDqmhIc+bC3rrtddfELKLGPPZxNXVBQ1qVkajmoHw8THyTBPeTTPEZvjw4aqMGTPG7Mke2vNuNeSJ1guCYCcmJgb7th3HDxNXY/Lrv+OXL/7G0f1nkJBw4zfSgiD8t7i6OKlQ1vpVAvBx7xIIuZyCcXeXwZP9WiCovB/c3FxVemY+yd61axdSU5LVd8GN3MxzHxcrNMg1kZGRpnR99HGZd5ImnId6Gvb04tOYZ9gOw3uYTpp7VWhvPUtOZ9ESCj5izOcQ3Ghm9+7dGQofuQmCkPPwSdjhf49j9odbsGLedviVL4o2fSqhqLcL/vh+G+ZP2YTQszeWTUoQhP+WDrfVxN5TUThxJgKlS/ni9sruqFTGFx4eHiosZty4cWpn9GeffRaVKlVS69Ree+01bNmyxZzh2jBhBOPYOQd3etYhrV26dFH7t1DPfia2uBbcyJFjGSPP4/r06aM88tzrhXHw9L7rhBTUWxfL6g3pGCP/8ccfq/OxT/cLQnYosMa8Ixs2CYWP+Ph4UxLyK8wg9cOUhfjutV3wqZyIO4Y2QM3bSsOvjA/qty2LjvdXRVzKRXwwaBN+/3UNEhISzCNzB17I9QWbF2TrzsyEF3BesG8WXuRpIAhCQadOzSC0a1AFa/ecQljEOaXj5zgsPBylSpVCuK0eNGiQSvZALzafXJ84ccLhDeIY9kJP+uTJk1UcvPaE0+BmOCv1Pj4+Kr5d7/TMY7SsYf+ff/6pnhJs3Lgx/Yk624RhM8HBweltfhfocBpuSMfz8Rgey5sC6pkJTxCyi1NgYGCBsnp5596mTRt88M4YpKUmmVpBMAiNKoKnnnoKq1atMjVGtqLy5cubLSGnKFmypMr0MHjwYFOTM+zcvge/fXQcxcs6oXpTP5SuxrSUxeDkZGS0OB9+CSGHYnBoeziKFvFE/6cbokLFjLGuOYk25PUCdqaN5Z4TGp3JggvUBTvbtm1Tfx9WbyrDELKzY6/w31O7dm3MmTNHZWnJabbs3Ivpa07AyxUqY01lPzcM6t0R7777rlpwymQPjHcfMWIEvvnmG9SrV8888urw88rvf70A9Ua555570KlTJwl/vQb8Th4wYIBaJ2B1pDHDj5CzFFhjfuwzdyAlKcbUCoJBik8b9cUvxnzuk1vG/NbNO/DvjpMICqqKA7tOI/xICirW9oBfVReE7ktBZEgsylX3Qs0mZXDwwFG069wEFSo59v+XMaz0wB05ckR56PgYXS9kt/axZjaMWbNmqTGEOhoI9MIzNa1eAMc2DXp64JjRginx+Jifj9lZcxwNjF9++UWN5w7OfNzPVHV8zM/x3L+Cnnl67ngOzkOPIt8DYeiBvlmgUUWPIR/7k+XLl9+SGa7EmC8Y5KYxT7bv/hfbT0SjaTU/NKoThJSUFLXwlbHmfErHmqmaZ86c6VBaZj5J27t3700/5eITON48SHz71RFjPu+QmHlBEPIdzi5OqNGoHHoNaYb7XqiHS5djsGZqNJxLXMaAMQ3R9b4GCKxRGk7Z/IZjlgs+/s4qExWNaxrf7OMeEHwUT68cjX4W7emjkT137lwl8waAi+P143edcpZz0IDnnBoa7jT6OSdT5XEejqMhnxn28WaJ/XyMz3l1rmwSFRWl+mjk830KQn6lSYPaGNKjiTLkaRwmJSWpG4dz586hdevWKj2k/iw4Ao3vnAhX4xxiyAu3CmLMC4KQb+HF3dvHG7f3roUm9zijZ782KObtlR5ykx3o+eZTPX2Btj4+Zx+NbRr7NCTo9aZnOSu4IzO9hIRGvXW/CC50Yw5qztG1a9cMC+zo2ddGPzenYc5pehGzgh75119/Xck8hqFjK1asUG1C7z5h2r3MmTUEIb/Bz4v+TPPpOz3z77//vvoMDRkyRD19sqaJFITChhjzgiAIJvSiXw0a+vT+6XK1mFuGirRr1055ymnU07i3whhf6zxZwRsKhupw4dzNLp5lWJAgCIJQcBFjXhAEwQYX1DGMRqeG0wtbCXdcphf9ap5ya25qQs86t2unUU/jXsP4d4bEOAJj6emdt3rvNdZ5uOj2s88+U3H2giAIQuFDjPkbIDwyCnv+PWG2MnI8OFT1O4IeFxMbf9X5sgPPzbkEoSBTtGgRJMSk4OypyCw3h2Ja2tiYOJwJjkCKrdvF1cXsuTY0uufNm6c2c+Fj/YoVK5o9BnyU/+KLL6o+LrTTMeotWrRQYTfMbqGhN543BjTqrTz//PM4evSomoPlajcHjMdlP+OBGfeeGRr5eh4uJtNp7gShoHPu/AXM+WMVEhIlW50gaMSYvwGWrNyKXgPfuMJopyHdsc+Lqv96zPx5Rfq4YzYjnPPdLO9N+lnNJQgFmSrVKqNpqzo4uOc4/lm+Dwf3HUNsbKzqi42Jxf6dR/HPir04evAkGjevA1+/kqrPERjeosNfTp06pTzgGmaEYcpJ9rHWxjO99tRZw254Y0Bd5gVyPIbj9Dms8fnW45kpQ4/RWWp4Hj2G82c1D2GbY4l+b4KQn0lNTUVI5EXMWr4bvT7cgrf/dka/8StxKvyiOUIQCjdizJukpqZla6OpKpXK4Nff/jJbBnMXrVP6zNBjbvW88ybgdEikKuyzwnFZefYzz6HRXv2sPPKc52p9gpBf8fLyRINmNdDrvs6o1zwQRw+cwaY/jyMiOAG/z9yGsLPn0bpLA9zVvyNqN6iKIkWKmEdeH8ana6/5zp07lQdcEIT/Dt6MzrTdtD8ydQ9+3XwWw9r44/M+xVDR1w2jpu/CodPnzZGCUHgRY95GckoKlq7eiSkzl5ua6zNsYDfMWbgug6G8aOlGpbcy7pPZePGtb/D2B9/jnoffUeN37TuG5Wu2q7J4xWZzJPDSW9Mw+Zvf0Lzr6HTDneN5nJ6j490vpp+TBn7dNiPVMXc98AbOX7ik9OTzaQtx3/Bxqm/DFvsGNoJQEGBmC3d3N9SsXR2DR9yNTvfUQ+1m5XDHg01wz4M9UaFSObjZ+rOb1Wb16tXp3m6mhLTGuwuCkLds2LobLd/aio9WhKNvXWf8392V0L6GN0r7FcdTXcqjmnc8np2xCxdjcneXZysMr3v00UfNliDcGhR6Y54e+Y1bD+HLGUuxa3/24tZpuGtDefna7ejVvaWSNTTId+w5gjdeGKyKb0lvNb5r+ybqWJYnh/c2RwOPDb0TUz56Gi+MGoAdu40MFN/9tAxVA8vi129fV4XHUEdo4H/yzmPqmN9/ehuR5+yPHD+YPEfp2MfzCUJBhQZ7LZtR37Fba1SuLJuRCEJ+52z4eTz95Ro8+us5tCoXh+8G+qN9HX94FHE1RwDJySmoX6k4Qi+l4JfFa01t7nPp0iWVkUoQbiUKtTHPL4Pla3fhgy9+w6XLcabWcXp0vg1TZyxW8pyFf6u2FRrkNLDpHWe5HlUCjRAd72Ke2HcgWMm79x/H4Hs7K5k0bhCkdGTLjkPoe2drJXt5FkWNIPsul19/OkZ56xmbL2E2giAIQn5h1h/rsfRIGp5p5Yanu1VS10RNcnIydhw7hw+WR6idYXvUcIGvl93Ivx70rOtwOnrYuZsyZQ3bOh0sF6hzsTv7uaEbM11xgTwXt+tjOJ8ew0XwPJ5Q5vzs0wvmqeM4a6YsQcgJCq0xn5KaiiWrd+LL75bi4qXsG/IkwL8EGtcPUl75Ej7FVNsKv4C6dmiivOO6OOolj7pofCFw3tBwuxcgJiZO6TRWQ90aZsPz0DPPuPy3P/jB1AqCIAjCrY2rE9AlMBHrjsUiNSXV1ELt9Pzp0lOYtSka991WAm8MbIa7G5eCu4vj4XSZd1dmKN2zzz6bnpJ2zZo1GDFihJK5wdvKlSvVWC5E54LyjRs3qg3eqCNZ7QytoQefi+W5qRs3nBs3bpzaxO3pp582RwhCzlBojfkzZ8/j14UbkJiUDI+i7uklu/Tq0RIjxnyawXuuadOiDqbOXIz5f2xQITc6Dl5D73vmBbCZoeed82/c+q8qH30xN90bP3LIHcpQ57z0wNNTr6GOmW0qlLv6JjiCIAiCcKtB27xPQ2+U8i2Od387gpMRcVi05RRG/BSNin4e+GxILfRoVRdbNm6Au3MKSpdyPGNVVrsr9+zZE8uWGeGr1o3aaOSPHTs23dDPzPV2hu7UqZOqmb6WNwDMZqWzYHF/CEHIKQqtMR/gXxzPPd4b/3v2nvQyZmTGNHJXo2wZX1VI/dqVVYw7a2Lto6d+0Y9vKyOcYTZ/bdit9ESH5HABbDHPoujeqalqEx7foE4VJbe8rTZmf/0Kpv+0TJXnnuivdOTpR/uguI+XmrtGtfLqfXAusmjJRqWnZ/65J/srnSAURJiFav3KnZg+bg12brd/xgRByL8UKeKOp7pWQIVSPnh/6VmcSy6Gbx4MwJg+jVCmdABOnDiBTz75RBnltapXM4+6Plntrsy0s0uXLk0PkSlbtqyqmSKWHnl68ilnhaM7Q2dGjHkhJ3EKDAx0PB9jPsDDw0N9uMY+cwdSkmJMrSAYpPi0UY9QV61aZWoAV1dXlC9vX28g5AwlS5bE6NGjMXjwYFOTsyQmJuH4oVNY+vMOxIS4o1yjNBxZ7YJqbZ3QuV9jlK1QSv2/FW5N6MHk38eWLVtMjZE/38/Pz2wJ+YHatWtjzpw56THkOcGCP1chNMYJvVrVxKXLl/DjhrN4pEsQSgeUwubNm1WoCsNhGL/OzdMCAgJQs2ZNde139Luchjs3ZdPhMtyorUSJEqhXr94V+0OsXbtWhc/QUKc3nsY9M18R/ru52VzmYxgfT88895DgMePHj0839HkMw3X0fhAFFSYnGDBggLpRio+3hwRzozshZyn02WwEQchfpKSk4MCeo5g/dROWzNyPSjX8cOfoQLTuURv9Xi8Pz2KeWDBlC37/didOHD2jxmcHXuTp7eMiNdbaW6ex9rOIh00Qcpbe3TvA080Jf+08qtrF3J3g7uaqjMP58+crg57G8n333ac2ditVqhQ+++yzq4bDWLna7srDhw9XYTJWo1wvbKVB/sorryhdjRo1EBYWln7zcrWdoQUhLxFjXhCEfMWxoyfw41v/4vThC2jRuwzqtiwPD08P1VfM2wsN25dF3Q5+2LH2FH77fB/ORTqeRo4XYl7k161bp9qs2dYXaO3N0/2CIOQ8zs7O6N2hKZJS0rBi52nExifin70n8ffmXcqw9vHxUU9wOI7e9N27d+Pee+9ND5u5Flntrkz4hIgx8lasOz5rLzqfHmk9udrO0PTC870SHmsNv+HYgu6VF/IWMeYFQchXREddRJUOiXBxA5Z/fQq7Nh1GfGwSUpJTkBCXjK2rj+Cv6RdQro4TStWNR2KCcdF1BC5S4yNzXvB5IWZN792rr76q+g8dOqTG6H4WHV8rCELOUaK4N/p3aQZPl2Scv5yA+IR4NKhdHUFBQcqQZ6aYvXv3qidjO3bsQI8ePW54kzd61enxf/31102NIOQvxJgXBCHf4V7UFfc/3wxdR1TG5RM+WD37EFb9cggrfzwA57ji6PNCZfR/tC2cmePOQbT3PXPsK713TD1HaLgzXteaCUMQhNzBy9MDDw/ojv8NbIH7erZFKb8SiI2Nxblz5/DTTz9h0qRJahEsddHR0eZR2YeecnrOZcdnIb8ixrwgCPkSNzc3VK9dCT1HVMdt3QJRpJgTuj1YD50H1UDFymVVfG124M6OTDF3LWjMM+/0jBkzVHysIzG6giDcHIyJZ0gNoRe9d+/e6qkYDXrmjWfe9goVKqh+QSiMiDEvCEK+hhlrSgZ4wae07aJfuiRcXFzMnuzh7e2tvO7XgwY9vXjff/+9yqYhC2AFIe/gTTyzxLB4enqicuXKePjhh1GmjLGDuiAURsSYFwRBsKEXrmUOoeE27syYkRkuYHv77bexYMECUyMIhZOLFy+akiDY4R4gQt5QYPPMM2WcIGTm1KlTkmc+j8itPPNbN+/A/m3B6NG/dboXPjz0HPbuOIiOPVqlh9ekpqZi+cJ/cHvXpqhQybH/v4ybZ6gNs1owF/LOnTvx999/q9AaeuTphdfGO2N0Z86cmd4nZA/JM18wYJ756V+ORUKUfQdyQSBFvErjsRe+kDzzeYB45gVByFeUr1gGMReS8ftPG3D6VIjy/lg9QMwrf/jgMcyZ9heckt3h5e1p9lwfeueZJaNBgwaqza3fmdM6K2O9UqVKYsgLgiAI/zlizN8EWzfuwpf/W441SzebGkEQchsaz488fzcatqyKwzvDsfKPDTh+4CwSYlOxf8dxrPpjM8KOx6DdHXXQf1gn9YQgO9A7zAw2XGDHzDbWDBc8t05JyTFiyAuCIAj/NWLMZ5OEhEQc2huMb95fhKVfnoZPuURsWRCJyW8uwO4thxEXa3+UJAhC7uDm7oamLRqgx4CWaN6micp0kZoKJCclo3XHpjZ9K9RrUDt9l0ZBEARBKKiIMe8gfHR/aP9RLPhqO5bO3gX/ssVx55gKaN6lBro/XhFV6vpi3W+HMWfyZuzedjB9d7ichGnw9Bbyt0Kea74fyeQh/JcUK+aFKkEV0L1PWwwe2Qsde7ZEpcplUaRIEXOEIAiCIBRsxJh3kLMhoZj34REc3h6GRp0DUKdlGXgVM2JxPTyKonqjMmjSMwDhIdGYO/4ogo+fUn05xaOPPprjCwlvlvHjx4sxL9wS0DPPkt3c8oIgCIKQ3xFj3kHi4hJQoWU8ytV1w9oZ4fhn2SFER8YjPi4Rl6MSsG3tEayeEQLPEs6o0jEhRz3zOjPP/v370+N1rbtU0qBm+jyOsxrX9N7Te85ae/K1dz+rcWvXrs2yz9rW74V65uT+5Zdf1LHk8uXLWb4PtpklRB8rCIIgCI4y8+cV2PPvCbNl53hwqOq7HjGx8di49V+zBSxfuz3L+bJDeGSUmkcQbgXEmM8GTi5Ar2HNcPeY6vB2C8DG349h9c9Hse63I3C6XBLdh1dBv8dvg7NbznoHP/vsM4wdO9ZsZYRGMtM8nTx5UqXKo6y3peculfTmMx3jRx99hJdffhlTpkxR6fY6d+6sxhA97p9//kmfQxvj7LMa5txp72ow84d+H5xfH8djRo4cqWRBEARByA5vvDcTk7/5zWzZ+WneGtV3PY7ZjP7pPy0zW8CchX9jx+4jZuvGCIuIUvMIwq2AGPPZhI/yy1UMQLt+VdD5gTooXsYJ7e6ugU6DqiEwqJzKWX4j0CtOrza920R70smRI0eumjVj2rRpmDhxojLUWebNm6d0miFDhihPPm8GFi5cqIx5Fs5pheP0HI5shMMnA8zHfe+996rNc/T7LV68uCqlS5fG6tWrlY7w/HwfgpAbXIy6jLBT0bh8yfj8CIJwa5OSkmpKjkNvuIZy8Okws2WHHnd667XXnOMWLdmIQ0fOXOHF5xjqrPPSi6/1mb337Jv/xwZVYmLiTK0BPf88xvoEQBDyCjHmbxAa9T4lvOBZ0mbA+nre8BbyhJ50Gru7d+9G8+bN8d5772HRokVmr4HVO27l6NGjaNGihdkCypUrp3QaGtaEW9XT+Laiw2OIHkessqPQ++/v72+2oIz8WrVqmS3j/IKQ0/Ap0MaV+/DTpxvw4+cr8eNH/2DnxsOIi8t4oRUE4dYgOSUF23Yfw+MvTcW+g46vLRvQux2+mbXEbAFLVm5VOis0pN/+4Hsl02v++bSFSs6K6T8usxn4p7HvQDDuGz5O6WisDx31IVas2aHao1/+QhnuRPfxHCGhkfjoi7lKT2jEa8//pUxGviDkBWLM3wIwj/XUqVOVEf/9998rY9oaVsPdKOl9t6I9+NWqVcOmTZuUTEJCQpQuu9Ao0gQHB6cb9L6+vmpOcrUbClKxYkVV65h+FnrsBSE34CZRe3cexLdvbMTmVQdQo4UPOt5bHYGNPLFqzn7MfO8vnDp52hwtCMKtAL3xq9ftw9sf/YKIcxeRnJxi9lyfru2bYMeeI8qoJouWblQ6K6/833R0aGNs+NagThV8MHkOAvxLoFePlqgRVB5D7uui+siA3m3x5PDeeP/N4Th+MlTpNmzZD9+S3krHsT9PexWTphpPqa19PO65J/orPeENQY9OzdQxmd+TIOQFYsxng9TkNNuXT7LZyhpuIZ+alL3Hhwyh4c6ThAYwDWFrWM3rr7+uDPZ77rlHLSJlKMzkyZNV3/Dhw1VMOm8EWF588UWlyy5vvPGGOp5zf/zxx+jdu7fSMw6+X79+6ryZbyho6DNkhx7+Dh064LffflNZdzhWFrsKucXFi5fw7UeL8Mv4f1G5hQt6Dm2ACkF+8PIuiqp1A9BtaBC8ywCfjdiOeTPXICYmxjwyZ+ETNf69E/69M6d95iIIggFvwNdtPoCvZizFxUs35r3u1b2lMqoZBkM5MzTKvc0sc6zffnmIkrNCj9MwpOZs6Hm0aW5/gs0bAW3oZ+7z8vIwJdv184VBymPf8e4XJcxG+E8QY95B/PxLooiLJxbO3IB/9x5BQnxi+hbyrJKSknHi6Gn8MXsDkOgOv1LZ23XyWtBzz/jzhx56SLXbtm2rjG7CmwDtSWfh9vL6xoDjdQgObw708YSGufWGge169eqpbey5nb3e9ZKx8YzDJ7ypsBr0fHrQqFEjJXM8j2vfvr1q16lTR9Uk87kE4WY4duQ4Ig4DJco7IynaDZHhUemfRXI+7DJS49xRqnYSQg5exoXz9njYnOTSpUvqb57wBpwZrDZu3Ii7775bybmx14Qg5Fd27w/GJ18twvmoG1/X0r9XW0ydsViVHp1vM7V2qlQqg8YNgpSHXJfsULaML9Zv3me2jHh7zklo/J8OiVQyCQ03PvvEy7Oo8th/O+lZ3D9ivKkVhLxDjHkH8fUtif7DOqPdnfVwMSIJfy3fhl2bjiL+UioO7j6FtUu34MyRC2jariYeeKIrypQxvgByEhrWNBqsaSkJDWUd2mI1mjlOh7pQbz0u81jCfm5Rb92+nujzUs9ao8+rz8F+vQ2+NupJVucShBuFj+Yr2K7jXQbWQopLPJZ/GYa/fjmKA3tOYNn0I9jwSxi8Sjnh7pFN4F/dZuTb7fzrwqdT2quus0Kx5s0pdXw6xhA3Po1q2bKlehp1LQ88F7Zr7z1hm+fg8TyOi95Zc359PsIF5dSzcLwg5Hc27ziCKoGl0aheFVUa16+CEsW9zF7HoNHcuH6QKvSaZ2bYwG7oNfANFcNuXcBazHbc0lXblO5atG5WB+cvXMJLb01TYxlL/+qz96u+bh2bYOrMxRj3yWwVi2/NZKMXzC5esTnd+BeEvESM+WzARa616lRH517N0LF7S/iU8FTpKt2KOOP2zi3QtW8L1G9UK9/tPmn14AtCfoB7Q5Wv4odu/W/D0HEN4O4NbPk1FqXrOmHQ601w+x314VfaxzbQPMABaEwvXbpUedvpVddPuEaOHKmMduqaNm2qQtx4A2v1wl8N3tT+/bf9ov/nn3+if397rK2Pj486fsKECWouwrUpTCXL98Gybds2dRMgCPmZwf1vx5vP3ZNexoy4CxXK+Zm918YaLvPIgz3wQL8OZitjHz3xi358W8n0pJcuZRj8VQLL4OtPxyiZcOEsPfgazsGxvFn4bvLzaHlbbaWf9N4T6THw7Nu8fJLtPfujRlAF/N8rD6UvwC0T4KvqcmX88ftPxvkFIS8RY/4GoLFeuqw/2nW5DYNH3o0ud7ZB2Qql4OFhj6HLT1g9+IKQ3/Dy8kKzLtVQ/05ndOh+Gzw9b+xzqJ8e0VjXi73pQV+/fr3KBEUvOdeW0LjODkz7qo1xrn3RNwlEPy1jrdPFMi0sz8k1KSy8keCGcYKQn/HwcFeeeF18vD3g4uyYCWINl6FHnsa5JnMoTf3alZWu752tM3jvaZTrsZQ5TkO9HkujncdSZx1DOIZ6Hk9ZG/rWc/J4QchrxJgXBEGwwTAxpoTl2hFunKYN8DZt2ijvuS6//vqr0jsKPfH0yHO+ESNGmNprw70erOe0hrcJgiAIghUx5gVByHdwvat10evVyd5uzDTo6SWnMU1vOJ9Y0Utu3cTNSmSkfUHc1aAnnh55GvQdO3Y0tQZ6XmbD0WE2Xbp0UU8ArDH0giAIgnA1xJgXBCFf4eXliYRLyTh24Axis9ighUZ+dNRFHNp7GqmJTnBzdzN7rg2NZ73olKE0ffr0Ufrly5erlK/UWxeq1qhRA2FhYUp/PeiRv3DhwhULwffu3auOX7VqFcaNMzauofHPDFA6tCfzDYAgCIIgWBFj/iaIOh+NEwcicC4id1LfCYJwJVWDKqPjnc1x5mQo1v6+Bzu37MflS0a6O6aL3LZhP9Yv2Ydz5yLRrksT+Pkbi9OuB41oayiNNry5iJVeeupZ65h3evG1XkNPflZhOAyx4Z4NmWGKWX0+ayw9w2r0e2FaWkEQBEG4GmLM3wBMTffPqr348cMtWPj935j98UabUbELFy6IUS8IuQ0XoFetWQF9B3ZHuzvrIPxsNDYvOYGIEwlYPHMHYmMS0PPelrirX2dUrFIWrq6u5pF5j05BWaVKlfTFroIgCIKQk4gxn02OHQnGtLf+wvpFh1C7vSc63VcLDbv7Yffmo/jmlX+we3vu7f7Gx/u8kcgKGg1WdC5sFp2Z43pwnJ6Hx1/tXIJwq8CFqg8Muwt3DGmKZp2ro++Iluj7QFf4l/I3R/y30FNP77re5E2j9YIgCIJwszjZLobZ2FLl1ofpIZl9ggvKcpLLl2Pw+/cbsPvPWDTs5Yn6rcpniMVNTU3FwZ0h2DInGhWbuKD/yDbw83Ps8b6jcMOaV155Jcs0kvT+aeOA//ann346fUEd88hfzyvIMICuXbuqY/jI/1rnys+cOnVKxS8zRllDz2358uXNlpBTlCxZEqNHj8bgwYNNjSDY4boE/n1s2bLF1BihS35+juUeF24NateujZnTPoZzijh/hIy4uBbF0Mf/p/bviI+PN7WGE0bIWcSYd5CjR45j8bf7kBibhJIB3qjc1BMVqvjDibvX2Ag9HYkTO+IRcSbaZtk7o/vD1VG3vrHxhCPQ6854Xy6q4wVNQ+/4oUOHlH7YsGEZDGx60lnYthrzlLnZjHUeK/S+e3t7p8focg4uuCPDhw9XNTfKodHLxXcFafdWMebzDjHmhWshxnzBgMb8nDlz1HVHEKzQPhowYIAY83mAhNk4SGpqGnyrpaLfqKYoFeSG9T9G4o8vDmLv9iNYPvMgln8RAU+/FPR6pCH8a6WaRzkG09O9+uqrGD9+vNokRofF0MBnm/rmzZtnSIPHY/iBYB+96JnhDUBmdLYOHkMPvN5mnhfVhQsXqjJ37lxVmI7v66+/zvYGOYKgSU5OxvHjx82WIGSEDgdBEATh5hFjPlukwaekF1p3rofh429DleYe2LskCSUrumP4h43Q4a7G8A3I3hbyhCEwDG2ZPn268r5zB0hC7/h3332n+jZv3qzS4BF66/v164d9+/apPp3STkP9c889p4x8nUaPWOdjFg5eTBlew/M/9dRTqjC2l4XGPreUl0V7wo2SkpKCiIgIsyUIGeH3z8WLF82WIFydC+eisX7pHnz0/HxMfv13bPv7IKKj5W9HEDRizN8gzKjR7PY6qNXZCS07MzTGy+zJPvSy02NO7/vff/9taqG84wMHDlQyHz8z7zSh153Gtg6Tsaa0I2wznR1j5XmMXtRqnY906tRJGfWCkBvwseqJEyfMliBkZOvWreKdF65JbGws1q/cjtmfbMK/206jceeyqN7U12bMH8aP47dh67r9GcI3BKGwIsb8LYD2stOwpnfcijWjjDXMxipfLesMverc8GbKlCmmxoiP10RHR6N48eJmSxByFi4Kp3eeRpsgWOF31oEDB3Du3DlTIwgZOXroBL58cQ3+mncMtW4vhrZ9q6JikB+q1PVH27uDUP12Nyz//iCm/d8qhIWGm0flHtwwTkMHGR1wfLJtRdYNCP8VYsxnBwe2kFf9N7CkmIvA+MXw2WefmRrg2WefVeEy/OLggl561gkXvDLkhjr2vfPOO0qvoU6XyZMno1GjRkrPLerpmaeeTwNmzpx5zd0luQW91fgXhOzCmPlPP/1U0jAKGfjwww/x77//qhs+K7L4VSD8u9i66hguX0hE1UYl4OXphdQ042+FiyrT0lLU0+oKtbwQcSIJW9bvUX25yZEjR0zJICgoCGPHjr2qM00Q8hIx5h3E07MoUhKcsG/bcZw/F5WlUX/p4mUc3HMSiZfT4GEb7yj0ns+fPx///PMPJkyYgIoVKyr966+/rjKCcMEqvQI0xpmFhvz222/YuXOn8rozA41OQ0k4Xpe+ffuq3SQJY+HvvfdepV+0aJGaQ2eq4Tn1eQmz5jDjiyyAFW6GpKQkdRH8+OOPTY1Q2OGTGjomTp48aWoE4UqK+iWi9X0BcE70wqalJ7Bx/hmcPBqKY/vDsO7X08rY9y5WHI3u9IKLe/Y8aO+9957yovO6yuuiNfud7mOh04tojztrOsMIQ1h5PZ01a5ZqZ0aHz7Jw/Zo2+ikz+QTPzcJ1bdRxnPV9cLzW63GCcDUkNaWDJCen4EJkNLZs3Imw4MvwL+eJyjXL4sDuY6hVvypCTobj7NEYlCxXBE2a10OZ8v5wc7PnoRduDSQ15X9DrVq11IVpyJAhpkYojNCQf/fdd5UDI/PTGnpcK1WqZLaE/EJupKakZ37RvOWoVr0ySpfzxeWL8fh35zFsWXAB7l5OaNG7DKrXrYiinm7Yv+sY4uIvo8ddnc2jr82PP/6oMrXRocV00J07d1bhrXR60QBft26dMuj5VJoZ43SaZ/779N8sDXo6xZhMgob2ypUrlWPMOsYKjff27durJ+P8HiQ8lnYK94RhmC3hDYI+njcZbdu2VeGyfGrPpwBcC5efkNSUeYd45h3E1dUFpcr44o4+nXDXwNZwcXPBhkVHEHkyARsWH0bMpRR06d8Yve/pgoqVy4ohLwgWDh48qLI1PfLII+qGSihc0MtIY4RP/LIy5IkY8kJWODs7w6eEJ1p0qIf6d7ihZT9/NGwRBM9iRVRfduFTcP4t0kCnAW5dpzZjxgz1FJFGuTY4s0rzbOX7779X+yVkhp50GvEMZeV3H9eoaZh8grRo0SI9mYV13xfC98H1dHwv3NBRh9kKQlaIZ/4mCAsLV5tF+ZYqjoqVxLObHxDP/H8Ls0BVq1ZNLbxu166d+rwKBRum1T169Ki6obtaaA0NloK0OV1hIrc982Ur+JtaYO2yjSjpVwINmtYyNcDeHUey5ZmnZ9y6+aK2FeiZZ9+oUaOUFz0zVq+71TNPaLTT606jW4+hx56hsjTmdbppfQ4a85Qzz8NzbNy4MX0jSP1UIL8invm8Q4x5oVAhxvytAS9UvGBnXgApFDyYS/5aWWvoXbWu1xHyF/nNmKdtwPVm3Eclc5iNNQQnsxFtNa4zG+H0ptOYp/dcG/Mcz/AZ3qT26tVLxddnx5jnDQLXzDHkJ78ixnzeIca8UKgQY/7Wg97a62WJEgom/L4OCAgwW0J+JLeM+T/mr4RvSV8EVi+DIkXd1U2f1ZjnmLiYeOzddhzuXmno0uNKb3pWMOSLmzMyAQRDXJo2baqeFNK4Zh+zw+kF+0w6wdh1QuOa4TI0tonVCCe8ERg6dGi6MU8bhPHwtEe6d++efg5HjXmG6XBneL5PMm/evHy3iaMY83mHGPNCoUKM+VuT8PBwxMXFmS2hoEOjRcJqCga5Yczz5v7k8RCboX4U0RejbH8rpVG+mh/2bDuA4iW9Ub5SGYQci1L7rZQoWRINmldF2XJlzKMdhx51euZpMGfefFG4ecSYzzvEmBcKFWLMC4Ig5By5YcxraADGXU7Elo07cPpwNBLjk+Ds4gx3D2dUqu6HRrfVh5e3B4oUcfzczFjDhaWEueKZDjq/ebzzC2LM5x2SzeYmWL92C8Y9Oh+L52bcBU4QBEEQhJujaNGiKOnvg253tUfvB1ujSn0/1GxSBv2GdESnHm3h6188W4Y8oeHOUBgW7rouhrxQEBBjPptcuhSDbX8fwpR3FmLL/POo1dYbx7ckYPKbC7B+6T5cOG9PPyUIgiAIws3j7++P7nd1QPsureBT3MfUCoJAxJh3kOTkZOzcshezJ2zFppUHUbluKXQZXh71Wwai44MVULdlWezfdhI/TdiCDat3ICEhwTzScbgYhuFBLHrnuf8Svh+d8/Zm4EIezpVduBiJi4r4+8iJ9yEIgiAIglDQEGPeQU6fCsFvE04jIiQKjbuWRtV6/ihStIjqc3N3Q4UgXzTpVgaJKbFYNCEUx46cUH2OwpXygwcPNlu3BlxlnxNG9IcffogaNWqYLcdp3ry5ynTCzTYYYycGvSAIgiAIQkbEmHeQpKRkVOuWgKAWPtjwcwTWzj+IkCMXEX3hMsJPXsb6RYfx148hKFWhGGr2is9W/my9WJfxe0xXxWKN46MRm5WHmt57erxZa0++9u5nNY5bQmfVZ23r90I9c+T+8ssv6V71q3nK2ab3XR9rhfoqVapckbOXc1rnyApmGGBaMBamELveeEEQBEEQhMKGGPPZwMn22+rYtx56PVELgVUrYP/mU1jz40ns+OsESpUqje5Dq6PrA/Xg7OpkHuEYn332mdpeOitoDNMrbfVQU0e49TS9+czQwg0waPROmTJFbYjBdFsaPe6ff/65wsvNPquRzLy4V4MbX+j3wfn1cTxm5MiRSs7MihUr0K1bN7NlZ9OmTdc1zq2pwpiCzNvb22wJgiAIhYnw8AgsmLYJS37ahqgLUaZWEAQixnw24cYVfqVKoHGHCug5pAkqNHRB1/sboEXPQJQu7wcXFxdzpOMcOXLkqjmXp02bhokTJ6Z7qLlxBHWaIUOGKE8+bwYWLlyojHkWzmmF4/Qc3AhDby99NfhkoG7dumrXOm5goT3/3PiCpXTp0li9erXSEZ6f7yMzTAFpDbHhPPTgU0+vf2Yvf1bwPbdo0ULyAAuCIBRC/lq2GZOeXIeQkNM4uPsUJj+3Cps3bjN7BUEQY/4GYf5UNzdXuLilwd3dRbVvhqsZtEePHlWGrKZcuXJKp6FhTei1pvFtRYfHED2OWGVHofef2QQ0NPJr1bJvqX0tr3nmEBtHYVgPDfkGDRrk6y2tBUEQhOxx6eJlbFt7BJ+/PQe7V55H5+Gl0eW++ug2pCaa9SmFdbPOY9r7i7Fr49EMOcxzGmtIKGs6oHhtspJViKkg5CVizN8CPPvss8r7bkV/WVSrVk2FpGhCQkKULrswNEYTHBycbtD7+vqqOcm1POQVK1ZUtY7pZ6HH3hGsX3z0+PNYbmfNGwLKV3sqwS23hw8fjoEDB5oaA8b+6zn1EwO2qRcEQRDyN1xztu7PfVgwaR/8yhVD+0EVUKFaKeU04yZ/VWuXQZdHy8DFzQnzPt2L7Rv3mUfmPNZEEKwZVvrOO++otuZa4amCkBeIMZ8NUpLSkJSUZLayhl9CKYmOL34lr7/+ujLY77nnHnWHT2/05MmTVR+NWX5R0DPN8uKLLypddnnjjTfU8Zz7448/Ru/evZWecfDcDY/nzXxDQUOfITv0THTo0EEtSGXWHY511BNBo/3QoUNmyw6fNlxrO3d+aXIBLmPu9fm04c7fzaxZs5Ssd/LjOfTvTBAEQcjfJDhdQPlmSdj6UxL+mnMUF85dNHuAsJBIrPrpKI7+nYKyjZIQdfGC2eMYOhmE1QGkve5M8mB1FmVOBMFkDHw6bn3ybYXz6EQR1jGci23W+lrGNsfpmwWN1utxgnA9xJh3kIDSfvAr6Yelv27Gri0H1BdLUnKy6ktJScHF6Mv4d/cxLJm7Ed6eJVC6TCnV5wgMQ2H8+UMPPaTabdu2VUY3YZy49qSzrFy5Mj12nON1CA4NY308oWFuNZbZrlevngpZOX/+fHroCz3ljMMnvKmwGvSMg2/UqJGSOZ7HtW/fXrXr1KmjapL5XFb4/pYtW2a27NCrfy1jnjz11FOmlJFRo0bhwQcfVLJ+74zLp14QBEHI/zg5O6Ftz/p44uu6CKhUAutnh2LVnH1YMXs/ts6PRuV6xTHso7qofVtFONvGOgqNZO34uXTpkqppTOukEbt371ZOrmsxbtw4PPfcc2YrI5xLPwlv2bJlukHvaMIK3mDouXmMhJgKjuAUGBiYZsoFAg8PD7Rp00Z9YHMaet1PBZ9B8OFwnA05CzcnD9uH9hJKlPRBfHIMAvxLoUqtsqhYuRzc3NzMo/576PGnh5whLf8F9Obzy+tGY+dzEn6RjhgxQi3A1fCxbfny5c2WIAiC4Ci1a9fGnDlz4O7ubmpuHl5rF81bjmrVK6NsBX/Vjr5wCavn7Yd3CQ+06BoE7+JeKuxm744jiIu/jB532Q3ia8HrEZ1S1vBNGtYXLlxId17xaTg98nSc8fr5yiuvKAcUDXOG3fz666/KyK5UqZKah//2xMREdSxhxjmGr/KmQV97OU/Tpk3VuWiwU8d01MR6PB1lTFhB5x1vCvhU3Tp3foL/fwYMGIClS5dmWNfAjHpCziKe+WzATDaBVSqiTedGuLN/R1Ss6Y+i3s4oVbEY7urfCbf3aIqq1QNvKUOeWD34/wXPP/98lqE2giAIgnA9eO0t6VccfoFOKF21KHxKFFOG4o1AxxKNaRrNOsyGYTMlS5ZUMuHT5us5n/gkmLHz1jVhhEY+Q3H+/PNPU2NHr1W7VsIKZqLT41hbn5YLwtUQY/4GYPrJYt5eaNayIR4Y1httOzSHt4/XLWfEaxhK4+hi1dyA3o3/8vyCIAiCQGikM7yFa8C6du2qdEwqQW8xveW6XC8MlPNMmDDhisWw9KRv3rxZGfX0xGeXoKAg5XyzvhdBuB5izAuCIAiCcEuRlpaG5CRjXdrV4Ji0FFux1Y7CRaUMw507d64ynAkzq+lEE5kXnloTQWSGjjJrqmjCORnzzrkYXpJduFaMsfZ8HyxZnVcQMiPGvCAIgiAItwwMofEt6YvNKw9h84adSEhIMHvsMLPcxr924sD2EJQK8DO114d7tRDGu9ODTvjk2JqyuWbNmqom1kQQmRNNkEmTJmUIhWGSCo5v1aqVCunRIa6OJqygJ37jxo1K5vu53hMCQSCyAFYoVMgCWEEQhJwjNxbAEi56PRl8Crv+OYboCzEoW7k4zoVFoahnEVtxw9mjl1GmUgk0bBVkM3jL3HAMvZB7yALYvEM88zdB2NkI7Pj7BE4dv/pmS4IgCIIgZA8ueq1cJRB3D+yITr2bwKNIMSTGpyLucjJKFPdDj3tvQ49+bVGuXFkx5IVCjxjzNwDTRS2bvxmz/m8bNqzcjl8+2oFF3/+DiIhIc4QgCIIgCDlBhYrl0KpjA/Qf0hV3P9ARzdrWRdnyYsQLgkaM+WyQkpyC/buP4MtXVmHP32fQZlBJdBtUH+0fKo2TR8Pw1bMbsHndbiTbxt0MzFGbOd1VZrgxReZd47LCkTEaLrRh4fkdge+R4/V7zc65BEEQBMFRmEXOq5gnPL08lCwIgh0x5h0k6kIUZn2yEj+9tR81WvngjhG14R/gq/qKl/BBl/tro1n/Elj85XF8NfZPhIdFqL4b4dVXX71uXvYFCxaoci1oaI8ePdpsXR3m2mW8IzfDYOEq/+tBw52r/DmeMtcoXO/9CIIgCIIgCDmLGPMOci7yAuLi4lGycgpC9ibjxKFQpKba1w6fPh6GE9vj4R2QijSkICI8eyE3mb3cVmgsX61Pk3kM6wMHDiAyMlLpNVnNxV3qli9frna1Y+EOdVboqbfOwWNXr16tFhpzZzzm22UmABZHvfqCIAiCIAjCzSPGvIOkpqXBp3waBr3YGrU7emHjT5cw57292Lb+X/z2+R6s/Pwiytd3wcAXW6J4pewlCKIBrL3czZs3///27gSwpjP9H/g3K7LIIhJJREIkalexpFTta+2KVtVSxfiN1m8wLf111Kh/mba0Wp2OqlFqKG3V1lFUUGLfSSyJJdaEbGSPLP887z0nudKQGySyfD/jOOe87znn3nbSm+c+5znvqwJwnYx327lzZ9UnxxQULBd0jATtixcvRnBwsGp/0HFCtvVppY1J0N6xY0eMGzdOjZsrM+ZJW/5rHzlyBBs2bFCLKVl9IiKiosjMzERSQiqSE9PUSDdElMfC0dFxprZdLsgsrDJ+rEzm8CTFxsTh+pVb8G/ggxqe1dG8Ww1Y2KUiLDgVfq0d0fd/GqCOv5eq5Qs7cwUeXi5wdauunf1wMnTTBx98oBYZe/azzz7DwIED1ZTPMpmFlLBIEC7/XPv27UOXLl1w+PBhda4MC1bQMUOHDkWTJk1w+/ZtlW2XIPxB15KAffny5XjnnXfQqFEj+Pj4qGvPnz9f/fPIsGOjRo1Sowvs3r1bTVVtfG1/f3/VJ2Po/uUvf1HnllZ3797Fxo0bcenSJa0l5xttznuvWrWqtkdERKaqXr26+t1SnHXsN6/dRvDms/h1zWGc2HsZKUlpsHO2hK2tjXYElUbygPKaNWvUxFoZGXkTgOXEndoWPSnMzD8i+dLQqIUvfFqboWmgD2xsqmg9RScZ7mHDhqltKVlp2LCh2pa6+fDwcFUGo2fA8/9HYMox4mHH6dNbr1ixQk2QoY/RL8eMHz9ebQsJ1qWNiIiouCUkJODXtbux6qPDiL4Vgza9fdC0Yw1cCr+GZX87jp3/PYzk5GTtaKKKi8F8KWFcw66X2UhmXqaG1mvZC6pnN+UYYcpxMgueZK1lWmsh5Tc3btxQ20I+WKWNiIioOJ05FY4FE4NwPOgWAoc4I7BXHVSrYQ93b0e06+uPwOG22Lv+Kr6cvhXXruT9niqM/K6V330y6IO+mELKVOXYwYMHqxJV40QX0dPGYL4IsrMNs9I9TLYcVMQ5dSdPnqxq0uUhU8mKS6Ze+Pn5qbV88Ehf/gdXRWHHhISEqLaHHScfTHqbZO6ljEbI3QIp95HRbmSRrL1+B6Egx48fL7Cmn4iIyFTye/bk/sswt8qGay07pCWYIS01XesFUpJTkX7XAtW9qiAtMRvHD5/Regonz3bFxcUhNjYW6enpajHFsmXLcgeKkMSWnE9UWjCYN5GdvQ2y0sxxaOdZREXe/kNQL0F8fNwdHNsXhtS7WbC1Nb3s5r333oOTk5Mqf5GHTGfNmqUy6WL79u1qLX1SeyYfIsLLy0st4kHHSKa9b9++ql086Dh5aFXa9OOWLl2q1u3bt1cfXhLgyyLBvLQJeX8BAQFqW/Tv31+t+QAsERE9rsqOGWj3sic8vJ1xeu9N7PzuGs6fvoLQw1cR9O11nDlyFbUbuuLZXk6wyAn6TSWTPtauXVuVl+Yn2Xf5Haxn4GWwByHb69evR9euXVXCLTAwUO3LcZIEM87SS5t+nrTrCS55Nk36ZJHXEXKu7EuSTV5D6HcAZJk7d65qIyqMmbe3dxHzyKVblSpV1JCJet33kyLBumQD9v5+COHHb6OaZxX4N/HK+XC5DL+G3ogIu4EbYcmo1cABbTq0gIODvXqwkkqXq1evYuzYsQgKCtJaAEtLS3h6emp7RERkKhmEQQZJkODzSZFk2ca12+Dr5wP3mi7q4cnQE2EIWhKNylXN0XmUJ+rW81YPWJ4+Fo6U1ET06N1ZO/vh5I706NGj1bYMrSxJLyFBtzyvJnez5U62xBByt1meJxMSbOvHSxAuyS/J0gv5AiAjwkn78OHD8dFHH6lBOCSAl2GcjemvI3cE5Hj5YiBJM0mUyZcAufst5a5C3ufEiRNzk2hljfz/IwN8bNmyBampqVorkBN3alv0pDDaNJH8UMrMc116voChf+oEV49qOPn7NcTdvIeTu6/CpkpVDBzTFr36d4KTkwMDeSIioidAEi5NAurj2f5WaDO4Gvye8VG/kx+FZOQlCJeR4yTw1hN/v/32m7orrpekTpgwIfcudWHatWungvStW7eqQH7Pnj1qXwaN0MnryBcCfYALY3qwLhMvSpmtPJsmi2T/Cxo2mig/RpyPQEpi2ndpjReHB6Jzv+bo+XJrdO3TBm413B75A4aIiIhKhmTODx48iC+++CK3LOZR9enTB4cOHVJDHst1ZShG2X/++edVv5TOSGmrZPYLq9GXLxR6Lb8s8qWCqDAM5h+Ds7MTfP19UN3VRWshIiKiskCeG5Mhm4XMuTJjxozcGnfJpOvlOAUxntxRnh+TiRQl0Sd8fX3VfocOHdS+lHfKfCxSoqPXyxck/3sgMhWDeSIiIio1zHL+Z2VhhcgrsYiNji9wFDlpi7kVh/hbSahU2fR6fQnS9QdMZQLFtWvXwt3dXZXXyLaUwUifPFc1b9487az7SWAeFRWV+5yAnC/7PXv2VPt6Rl5/yFYGiJAJFwt7rkDew4IFC3Lfg9TcE5mCD8BShcIHYImInpzieABWRN2IRsjxMFy/EqXqx33qV8fZUxdR1dEWru7VcCkkFilpCfDycUf9prVRzYVzoJQ2fAC25DAzT0RERKWKm4cLOvQIxCtjesPG2QK7N4YiMjwFYUdicOC3MFSvVQkDh3dDm47PMpCnCo/B/CPIzMxEwp1kbF23D3P/vBZrlwXhblySaiciIqLHZ25uBksrS3Ts0hZDJ3RG0xdqoWUXXwyb0A1tXwhEpUrWHDmOKAf/KyiiuNg72L3pNJZ/ug2XjiWiSadquBuJnP2t2Lr6OG5F5j0UQ0RERI/PyckRz3dohZbPNStwwieiiozBvIlk0oq9Ow9h6XsHce70FTRt54l2Q2vCr4kHAvt6oGW32mpm2OV/P4ItG/YgJSVFO7N4yFBaxs8FyBPy+gxy+cksdA97gv5B5JzCzpOn7jlLHREREdHTwWDeRFevXMdv/4pG2r0kNHjODc41bGFlZan6LCwtUNW5Mp5p5QpL+zT8vvguLoZHqL7iIsG88UOc8mCnTDCRP/iWGeZk4gvpLyo5p7DzZGivI0eOaHtERFSRyEOOMpILUX4ycz6VDAbzJsrIyESdzulo2tkVJ7fHYOcPF3D+UDRuR8bh0qkY7MrZP7olEnUaucC/Z1rOGUX7IdZnh5O1ZLr1cWZl6ulp06bl9gnpmzJligrejbPxkydPxrJly7Q9A5mKWtqNyfnG15TX0O3atUu1S/+dO3e0VgO9TzL9HAeXiIgkYIuLi9P2iO6XlJRU6ERZ9PgYzBeBWc6/rVZd/PHiGw0R0N4XN67ewo7lNxEeEomGrWqhx8gGaNPLH2aWRZsFVoJ3fXY4IZNGSMZbyKQVTZo0UX2SiV+5cqUa01aGV5QhOPVzhD7ckx5oS/Y+Njb2vmGgpE3GsNWvefz4cSxcuFD1SbDetWtXTJw4UY2Tu3z5ctUuJMM/c+ZMdY7MdlfQlNRERFSxyORJ8vuBKD+5sy93bgqaJ4CeLAbzRSQ/mPZVbVG3iSt6vdoS/u3N0XNYMzRo5QEHJ3vVX1QSvEuQLrPDydTNEqQLCcol+/7zzz9jzpw56kNTtuXhn2eeeQYuLi7qHGMSiC9ZskRtS5Ze9o3t2LFDZeqHDRumzpVJMeT1hbwHmTSjffv2akrqN998U7ULyfALeR969p8f4EREFdvdu3exZ88ebY8oj0yUdePGDW2PihOD+VJCsu06CdKFZOf17LssEnh/+OGHqu9BJBA/cOCAysDLRA2yb0xKZ4wz9cajAkgW38PDQ9u7n/TJ3QD9vezfv1/NgkdERBVXWloaIiIiVOKJSCfPUXz//fc4c+aM1kLFicF8KVC3bt3cLLfUr+sfihIsBwcHw97eXmXRZZHpngsjQfdbb72FIUOGaC15GjRogC+++CK3Tl5eV78T4Ovrq74I6IwfsA0ICFBlOPr7kIXDgxERkQTz3377LR+EpVxSlivxRP4SG84LUDz4b9VEUj2TmZ6N1NQ0ZGcV/HCrPAh0716GOk6dYCJ5CDUwMFA9XCo18npwLcHyggULVH269Mmi18NLJj//A7C6vn37qr7XXntNa8kjmXrpb9WqlTpXXvfrr79WfZMmTVJLx44d1SJTaOtGjhypbplJu5zH4SiJiEjI774LFy6ou7aPMnIalR/ysOtnn32mnscr6MHoKlWqaFv0JJl5e3uXq7GD5AdFgmF95JcnRTLZR/ecw7UrkXCsbouaPq6wta+Co/tPo2nL+si4l4kbl2V0m3g4OTmjdadnctZO2tmFk7IYWSQbL0G0lLXomW+9TwJ443IcvV2y5LIWer9+vL4tjM+VLwVSxiOvZ5xhl3/O8+fPq3b9IVzj8/Q7CPKaQo6X65tyx6A0kF80cufC+K6DpaUlPD09tT0iInoUlSpVUr8LBgwYgBEjRmitVFFISc2sWbNw+vRpnDt3TmvNI88U1qpVS9ujJ4nBfBHI7aKY6FhcvXgLYecuIiPJUk0OZWOb803T6h7q1PWCj58HXFydVYBoKsly62O1S0ZdHkKVB1DpyWMwT0RUfCRgk89TR0dHlfSpXbu2GrDB2tpaO4LKE7kjI4NzyJ3727dvY9++fUhOTtZ672f8vB49WQzmH0PI6TMIOR6OOn6eCGj1rPoQe1R6xjt/ppyeLAbzRETFz8LCAjY2NmqcccnGyj6VP7du3VJ38WNiYnKfxStI5cqV4ebmpu3Rk8ZgnioUBvNERCVLhie8d++etkcVCUtrSgYfgCUiIqJiI0MeS4kFs/MVi9yZYSBfMpiZpwqFmXl6VJJhsrW1hZWVldZC5ZWMyCF1vzJKCxFRacdgnioUBvNUVPoDfZJlevbZZ9XDfFVtzWGRe1+zoGdltLYCuswKPF7ktBfY9cdGdQ0Tj1VtBTQ/8H0U+OzPg47N/Uu5/6gCznngc0UFXENtFHR8AW1Gx/6xN19L7u4fj8zMzER0dAxOnDiB0NBQFdBfv36dQT0RlWoM5h/D5YvXcPF4PDz8bPBM4zpaK5VmDOapKCQLX69ePQx+aQB6d26Me6nxOUtsTo8EgjmL+pO3bdiTbbWj1oatvDZDv9ambeddQ9ay0vYNO0b9qsGwr22rfe08w/mG7bxr5CzqT962YU+21Y5aG/oN23n9qsGw5G7n/K1f26gt7xp57fmvURLv03Co+itnVXCbOkcWrV3tGw5S+2o75zfjf1auwurVq9VQvjLTKRFRacSa+UcQFxuHtd/uxLL/O4EzIWfx47wQrFiwDZGRkdoRRFTWSWJAhtab/9Hf0KWVM5LiLiA9JUbrpfJMwnqJ54cPH4bFixejTZs2cHBwMHQSEZUyDOZNJLdZ78Yn4MCOUCyZ9TuiLiei5yRXdHu5KXq9WRPpmelY9v4h7Nh4BPGxd/8whfHDyLCUD7qTsHLlytxhKx9EJm0q6p0IOUeuLeeZeq4MOyXnbNq0SW3v2rVL6yEqX+RBPSmnmT/3bVS+F47MjBSthyqaGjXc8OXChWq8dD7ASUSlEYN5E8lkUavm78UvX53HM887oOPLdeFUzVH12Ve1w/O9/RDQzxnBa69h6Qe7EXkzSvWZ4sCBA5g0adIfgnYJuEeNGqX6H0aOk/NNJa8jIwtcuXJFazHNlClTcgN4mSV2Yc4vOKLyqG7dupg86U/ISgzTWqgik+clZs6cCS8vL8THx2utRESlA4N5E8XH34FF1VQ4+WQhZGsizp24iqysvMcNLpy9ipNb7qCKYxYqu6QjLrZoH/j9+vXDmjVrtD2DBQsWqHZjEkxLJl0y5AVN0CBt0q/36Vl74+Ply4Fce9q0aZgwYYJadHKMZN7lHOMvF9ImM7w5OTmpYcbkvYaEhJic1ScqK2TEmvr166OuRxayszK1Vipv5PM7/R6QkfN/sSnPtzZt2gTNmjVTM5mypJKIShMG8yaSD/sqTsCrU59Hm1dcEf57NtZ9ehp7t57Bxn+dxrGf7qFx16p49Z3nYFtdf5DKdJ06dcKGDRtU8C0kqJagW9qNyQgLQoL60aNHq21jkj2X7JHMIivX6ty5s2o/efIk+vTpo7YbNGiggvH8dwLkNeWYjRs3qv3hw4erLwFEFYnMUjigX0+kJ7M+vrzKzjZDRhbw448/4vDhI7gnO4WQB3UHDx4MX19f9TCsjHJDRFQaMJgvIqmZbNDEF8NnNMVzg2oi/grQ6AV3jPywMZo/V/+xxqD+6KOPsG7dOrUtgb0E5vm99tpraN26Ndq3b4/169drrQaSJZfMee/evdW+ZN/btWuntqWsJjg4WI3KIOfOmzdPBevyy0n/ArFz5064uLhg0aJFKlu/fft2zJ49W/XJNRs2bIghQ4aohwJlLfvGWX2i8kAyr351PLQ9Km8kCZ+SloE1a37AqlWr1AOu586fR/q9wu/CyGde1apV1XZGRgZiY2VkIyKip4vB/COS4Qx969eER2Mz+DWqgcqVK2s9j65Dhw65pTbyC0b2jUnQ7ezsjDlz5uDOnTtaax6pm3/vvfe0PeDChQsquNdJcC8ZeyEBuWT5BwwYkJu9l2Ebje8EuLu7Izw8XNsjqhhk2vnKlunaXsFOhV5ErSZDUavxUHg1HpKzDMayVb9qvVRaSWVkRoa5SoRI2eBf/vIXlRz58ssvceLESRXQP2xMeQnkJYjXJSQkaFtERE8Pg/lSRALt7t27q1p2+QWjB946ydrPmjULP/zwg8rQ57d27dr7Sm/kdrBk5PW6eFkkQDc2bNgwVVYgJTdSnmM8/rp8eZAHAYkqCvmSbm9vj8x7po1e88G7r+PqqTV4eWAnvPf/luDi5RtaD5U2UlqTmWWuSge3bt2KkSNH4vLly2qUmiZNmuDTTz/FsWPHcU+K6IsgJoblWET0dDGYL4LsLMMMgQ8jQ1JmZ5rwNNUDyC+Y+fPnFzg6jQTbM2bMUOU0evmLMSmFkQBevgwIKYWR68ydO1edIw+xCgncZV8W/VjJ1MudgOjoaIwfP171ScZeSn8KIgGPZLfkOKKKbsTQ7mqdlJyq1jUbDkS7Xn9GzQYD8O3Kzar980U/wLN+P3jU74sxb87JPVYs+NdquNfrBXf/nuj3ylTU8OuBk6cNI+nUqNsNz3UZBbe6XfDv79Zjy2974erbCa51ZOmIX38LVseJ6j4voHXHV9Ti4v08Ro57F+//v4VwqdUGLdsPQdStaO3IiicjJ5DfunWbeiZIygvPnj2rPhNlUqhWrVqpseS/++47NQNs+r287HthOJkUET1tDOZNVNXBDllp5vj9l5O4dvXGH8aRl1uz0bdisPe3U0i7m62GqzSVZOFlEZI537ZtW24G3bhPgnXJvgspp5GyGSHH6tsSuEs2Xh5mlQA9IiIid7ITmckyv+effz73gVe5EyDbUlMvVqxYkVt/L+SLhv6+/Pz8ct8LUUW3fPUWtXarnlfWdiniJs4dXoVRw3rih3VB+MdnK7B781cIO7IGZ89H4K135qvj9h48hbmfLsfCj6ci/PhaRMf8cSSsi5ev4+LJjXj9tX7o3qUNbl0Iwq2LQejVvR1GjPs/7ag8QZv+jRe7v4BftuxCowZ+WL96IS5euopNm3dqR1Q85ubZ6nNLnkW6ffs2Dh06hKlTp6rnir7++ms1MMArr7yihqE0Nzf9V6OUZRERPU0M5k3k5uaKV8b3gJuPLQ79dhG/bdiH69cikZ1lhujbcdi5ZT92rg+BraMVhr/ZA7W8vbQzCydBtyw6PZgW+fskuJZyGQm89YdPJcDWt4XeL/Q+WeQXmZDr6W1yPeNyHtmW0hvpM35dIcfqwbzQ3wtRRfW3D/+tauYPHDmDNUtnwtUomO/RpTVsbQzP0uzZfxKtAhqgjo+HanvG3xubt+1TfefCItS6R5fncvqq4I2R9w9HK3p1a6v6RFJyCn5ctw0z5/wLZ89dUm1Rt/JKPer714GtbRW88HwLte9f1zvnv2sbtV2RmZtlq5IaGdlLygnfeOMNtGjRAi+99BJatmyZe5dRZv61tOCvRiIqO/iJVQQyUk27js9hyLiOqNeoDq6ExiEh9h4unr6Nml5eGDSmHbr0bKcyO0RU/uk1879v+hzPtWyotRaviVPm4n+mzEFgyybo0bWtaouMqrjlM6bKyJQym61q1K4xY8agceNGsLbKCd4rW6m7jt26dVMlN1IDX5QyGyKip43B/COQEQ2at26EHoNbo/fQdjnrQAS+0BQu1V20I4iI8jRpVBcHj4SqB2SlVl6y8j27Pqf6PN2rq/Wvv+1TWfdvlhmGnJXsekH+u3UPWrdojB5d2uDyFT5wayrJzEspzV//+lc891wgrCwN84GYm5vBMuc3oZTYjBgxQk0aZsHMPBGVIfzEegx29nZwc3eBg4Nh3GEiooKMGd4bf3p9ANr1nAC/gCF45aWu+Pwfk1Vft06tMe0vIzDxr5+gW/834VLNUbX71q6p1vl9OW86Dhw+hcBOI+DkYK+1UmEszLNQy8sTjRs3hpVFNoyn9pOAXsqfpM/ePieYL0LNPBHR02bm7e396EOvlEJS79i2bVuOskIFkrH0x44de98QnDIcoaenp7ZHFZn8LDRq1AiLP5uK5PjLatZPRa0N24Y2bVF/8rYNe7KtdtTasJXXZujX2rRt/RpR0XEY+Orbqqb+31++LwflNGvXlEVWai9vW+0bvZ7WobVpi/qTt23Yk221o9aGfsN2Xr9qMCy52zl/69c2asu7Rl57/muUxPs0HKr+ylkV3KbOkUVrV/uGgwz7+rZ+vuqX0cqy0bVr1/s+P4QMOkBE9LQw/UBE9BTJSDXu9V5UQ1M2a/squncOxBcf/1XrJSIiejgG80RET1EdH0/cPPdLzvJf3Dy/GTPeeSN35BoiIqLCMJh/BDKu8M2rMVj37W589L9rserL7bh28TYnDyEiIiKiEsVgvohuRUVj84qj+HHRHiTdyUCrnh6wtLLCumV7sH7xUVzldO5EREREVEIYzJtIsvHbNu3CP988gNvRt9Gmrw9a9PCAZ51qaNqhBtr190OGxV18884RrP3PNiQnJ2tnPllhYWEYP368tgf1oK+1tXXuIn1Hjx7Veh9OhmkjIiIiorKLwbyJrl65jsNrk2BTLSMngHeGuUXeiAeGdTbcvBzh5J2NE+vTcOnCFdX3pCUkJCA2NlbbM1iwYAHS09NVe58+fRAYGGhSQB8eHq5tEREREVFZxGDeRJmZWfBqcw+B/Wrh5oUk7FoTgRPbI3HtchRCgiOxc2UELp6MReO2nqjT8V7OGaaP+Llp0yaVJZfM+sqVK1VbYmIiBg8erNqkTzLyEqBLoL5+/XrVnp+dnR169+6tgvs1a9aoNjlPv7Z+HaGfL2u5bkGvR0RERESlG4P5IpAEfIMWXuj5WmN0f7UBEtPisHNpDCJvxKD9ED/0HvUsmrb1hpmFIWNvqoEDB2L79u0quz5s2DDVNnv2bDXFuLRJKc24cePQvHlz7N+/H/369VPtD9K6dWtcuHBBbfv5+SE0NFQd/9577+GTTz5R7fr5spbrFvR6RPRgp0IvYtDI9+HVeEjOMhjLVv2q2r5dtVk7goiIqPgxmC8iKamxsraCq6cjur3UEo16maP70GbwquMC60pWuaU3RTF58mTMnDnzvtKY+fPnqyBfMuUySUlwcLDWUzSScZ82bZrKuo8aNeoPJTq6J/V6RBWBBO0vvjwdUycOxdVTa3KWHzDylR5aLxERUclhMF8KzJ07V2Xkp0yZorZ1EnhLplxfTHXgwAEEBASobcm4iw8//FBl9R/mUV+PqKL5bs02LPn8r3iu5YMfIt+64xBqNhgAz5zlp427DG1BB+FRvy88numbs31ATRjVtts4NWnUrI+WqGOIiIiKgsF8KdG+fXuVnT9y5IjaHz16dG4gnl90dLS2dT/JwkvN/aRJkzBx4kTVJuU2TZo0UeU2eh29MTlHPOz1iOh+8XcSUcPVWdsrWLeOLXEt9GecP7wKb73zqWpb8/N2/PrjfNw4uwHdOrXGruBjeGNkXzVp1Iy3x6hjiIiIioLBvIksLS2QmQbE3L6jhqnMzv7jA64ZGRm4E5uIjJQsWFhYaK2F0x9QnTBhAqZPn67apk6dqgJxaZdFHpIV/v7+iIqKUm06Cd5l39nZGSdPnkRERIR6GFZIUC/lNdIvQb0xCeDlHCnvedDrEVHBIm8VXLKmk8z8G2/9A/4tXtFagHenjMSyVZvxwUdLkZSciiEDuuDa9VuY8n8LVJaeiIioqMy8vb1NH3alDKhSpQratm2rHuJ8kpKTU3D2+GVcOB8BSysLeNauDsdqdjhx6AwaN/dHUmIqblyKQ0pqCmrW9EDjlnVgX9VeO5tKi6tXr2Ls2LEICgrSWuSLmiU8PT21ParI5GehUaNGWPzZVCTHX857BkatDdvSti/nv/uhY2bhl9Vz0KSBr6Ev58+p0Es4euI8Rg3rhXa9/oyflv8/ddaz7V/H9TPrDefn/G/rjoO4fjMao1/trc67dTsO0//+Ff795d8Mxxi9nry2/E/tqyZtX9tW+w94n3q/4U/etmFPttWOWhv6Ddt5/arBsORu5/ytX9uoLe8aee35r1ES79NwqPorZ1VwmzpHFq1d7RsOMuzr2/r5qh/IyspWzxQZf36InN+j2hYRUcljZt5ENjZV8Oxzz6DHwLZo0KwOLl+4jt/Xn0HMtXTs3XweZ45HoJavK7r3a4vAjo0ZyBOVY1IrLzXzE9/+PHc0m207Dmu9BoEtGqJ5ThC/6NsNWgsw9b2Fqmb+7//4N9q3bYafNuyAR73eaPb8axg6sIt2FBERkemYmX8MYWEXcP70ZdSq7YbGzRpprVSaMTNPD2NqZt6wnbOoP3nbhj3ZVjtqbdjKa9OzvIa/DNt515C1rLR9w45Rv2ow7Gvbal87z3C+Ybvo7zNvO69fNRiW3O2cv/VrG7XlXSOvPf81SuJ9Gg5Vf+WsCm5T58iitat9w0GGfX1bP1/1MzNPRKUTM/OPwc/PFy8O6MxAnoiIiIieCgbzRERERERlFIN5IiIiIqIyisE8EREREVEZxWD+MZwNCcfaRQdwdH+o1kJEREREVHIYzD8CmYF12YL/4tu/huJW3FWs/SQM/5y5Dtevc9IXIiIiIio5DOZNlJWVhagbt7Hth2P4bm4wkGmJwbNqovOgpnjp/3zg7GGL1R8fw4Zl+3EtIkrNBlscEhMTsWvXLm0PavbWBw3DuXLlStVfVHJOYefdvHmTs8QSERERPWUM5k10+3Y0Vs87huC1EWjY3hmte3mjqoNhYihbOxs07+CDFn2qI3TvLayYfRjXr91QfU/a+fPnsXDhQm0POHDgACZNmvSH4FuC7VGjRqn+opJzCjtPrr9s2TJtj4iIiIieBgbzJrp7JwGOdVPg5JOJ3d/F4OSBC2oCEd2ZExewa3kkLKpkoHrDNCQmJGk9hZNsu2S5JcMeFhamteZl3fUMuATQa9asQUhIyH3Z+H79+ql2YwsWLFDtxoxfp6Dg3/i1jOl9kumXaxARERFR6cBg3mRmsLAGhk1+AX3+4oP4CzbY9FUIdv4cil++OY2rByqhwwh3vDatLaxsivavdfTo0dizZ4/aTkhIUGsppZkyZYralgz43Llz1XZBOnXqhA0bNqigW0jALZl1addJW58+fbBx40a1P3z4cBWcC/kCITMY3rlzR72PL774QrULuWbnzp3V9smTJ9U1iIiIiKh0YDBfRObm5vD190K/P9fHC0N8kZFqhhbdvDFoSn00aOYLKytL7UjTrV+/HmPGjMGECRPQvHlz1Sbb3bt3V9sBAQGYMWMG3N3dMWTIEDRs2FD1G/voo4+wbt06tS2Bvf5FQLdz5064uLhg0aJF6tzt27dj9uzZqm/JkiUqkz9t2jT1pWHEiBGqXUh7u3bt1LYE/MHBwffdPSAiIiKip4fB/COytLSERy0XuNQxg6ePM6ytrbSeopOymXHjxmHw4MG5gXJ4eDgcHBzUtqwlqH6YDh065JbaLF68WO0bu3r16n2ZevliIK8hLly4gNatW6ttob+ukD4nJydtzxDc29nZaXtERERE9DQxmC8F/Pz8sGPHDgwYMADvvvuuaqtbt64KsCWLri8PIwG2ZPIluy7n5Q+4vby8EBQUpO0ZymfkNYSzszNu3Mh7YDciIkLbAnx9fVVG3vh9yBcBIiIiInr6GMwXQVZGdqFDTsoQlnJcUcjDpbJInbwEz+LNN99EYGBgbp/+wKq9vb0qy5G2/EaOHIn58+er0W3yk0y9jI8/fvx4da7UwUtpjpC2gQMHqhIb+TJgPJKNlPXI9aRPzuNwlERERESlB4N5Ezk62iM73QK/rj6ESxciVNBuLDs7G5E3b+G3dYeRdjfneKeqWk/hJGsu5OFS/UFXyYDv379fbUvZi54Nlyz+2rVr1baQLLxeIiPHbNu2LfdY4z7J1MvDr+3bt1f7K1asQO/evdW21OnLa8nrSPA+b9683POkTzL1eulNvXr11FpeQ748EBEREdHTY+bt7V20NHIpV6VKFbRt27bAzPXjkqz88SOnEXY8CrBKR01vN1yLiERNnxqIvHEbaXfMUadxdTzbsqF6H1T6yLMDY8eOva/kSJ5/8PT01PaoIpOfhUaNGmHxZ1ORHH8ZZmZmhg61Nmwb2rRF/cnbNuzJttpRa8NWXpuhX2vTtvOuIWtZafuGHaN+1WDY17bVvnae4XzDdtHfZ952Xr9qMCy52zl/69c2asu7Rl57/muUxPs0HKr+ylkV3KbOkUVrV/uGgwz7+rZ+vuqXO6/Z6Nq1632fH0JKEYmInhZm5otAftG3aN0MfV5ti2dbN8Dd2DSkJWchNjIR9Rv657S3QZsXWjCQJyIiIqISwWD+EUjJyjMNfdG1XyBeGtkV3Qe2QaNn/eDgmDcKDBERERFRcWOZDVUoLLOhh9HLbL755ptCH3anikd+PoYOHcoyGyIqVRjMU4XCYJ4eRg/mDTXzl7RWIgMbx9p4ecz7DOaJqFRhmQ0RERERURnFYP4xZNzLQHJiGu6l39NaiIiIiIhKDoP5R5Camopzp65g9Zd78NXMX7Di0x0IOXIZiYlJ2hFERERERMWPwXwRXb96Ez/+8wA2rzgCGyczPN/fB9W9bRC0/ihWzzuEsLOssyUiIiKiksFg3kRpaWlY//02fD7+IDItktDlNX80auMBZzd71AtwQ9dhDeHgk4F/v30SK/61CQkJCdqZT1ZYWBjGjx+v7T1dMluttbX1Iz1svGnTJnXu4MGD1X6DBg3UmoiIiIhMx2DeRNev3UTYnnS41MmGvb0dku6mITs7byCghDtJsLaoAtd6wJWDOcvla1rPkyVfEmJjY7W9p2vGjBnqvUyYMEFrMd2yZcuwbds2/PDDD2o/PDxcrYnKu0sRkRg/ZUHu8uWSDap9266j2H/4jNp+EDlGloLItYiIqOJhMG+izMwsuDfLRKdh/khPz8Dvq64j+McIXDh7FQf/ewVBS28gPiYRbXvXRc3WRRufWrLUkpmWTPXKlStVW2JiospaS5v0SUb+6NGjCAwMxPr161W7kGOmTZuWe76eJZdj9ay3kHa9T9YdO3bMvf6uXbtys+zG5wi9XRZ5HZ3sC2dnZ/VaxsfJexWylteRNnl/cpyQ15B/BpkWXd6Lfi1Z68cQlVeJyamIjUvAxDf6qaVXl1aqvWnDOmjcoLbafpCbkbFqKciWoCPaFhERVSQM5ovCLBs+9dzQdXBTvPLOs7ByTsXv/05EcnpO4P12A7w4vAV8G9XIOU473kQDBw7E9u3bc74kpGPYsGGqbfbs2Rg5cqRqk4B33LhxaN68Ofbv349+/fqpdt2BAwdw8OBBhISEYNKkSVrrwwUHB2Pp0qXqehJU16pVS2XZ5Rp6QC1fLLZs2aLaZYmLi8v9sqG/vqzt7e1zj5N9Pz8/1dewYUNMmTJFta1YsUJ9ERGSjZd/BnltyeobX0v+GYnKmoTEFFyMiFJf+k3h7GSPxvV91FLbO+czI8eJkIvYeyhUbSflBPwffvq9yrYvX/2basvP+Jj8Gf2ff9mr2t/5+xKthYiIyisG849IJqfq2DsAzw4yQ5eBTeHg4KD1FN3kyZMxc+bM+7LS8+fPV0G+ZKsl2Jbg+0GGDBkCOzu73CD65s2bav0wEkzLOXrwLF8iZF8C8Bs3bqi2n3/+Wb0vaZdFavWlLT93d3e1XrhwYe5ryz+LTN7Vu3dvtS+vI6/JzDuVN8kpafj6u234x8J1Kqg3hWTRJdiWRS+bMc66T/7bItT3r6Uy98EHQ1Rwnt+oiZ+otRwTtPuE2hZyvV+DDqn24UM6a61ERFReMZgvBaRERYJpyWLLtk7PdOuLqUwJ5h9GZkktCgn0N27cqGbOlJkQpWyHqCJISU3HnM9/zgmejyM5+f7naB6m5bP+uWU2Ul5jTGrqJdiXgHzhN+tVSY5sG5NjomPu4t2/vKyy+7LW2dtWUefY2VRWfUREVL4xmC8l2rdvr7LgR44Y6l5Hjx6tSm0KEh0drW09mL+/v6pLl7p1qb//4osvtB7TDRgwQL0nOV+WRYsWqbaCSEAvWfhZs2YhNDRUZeLlboI8DyAkIy/v52FlNPIaRGXFnYRkLFyyGfsOnUNGZqbWahrjMhtXF0et1UBq6o2D/Rl/HY5pbw3Veg3kGP+6ntre/QJb1MeU/xmEuZ+vVpl/KcchIqLyi8G8iSpZWyEzDbhyMQpJSckFZuDSUtNw82o07iVnwTrneFPpD69K/fj06dNV29SpU3HhwgXVLoseFEuQHhUVpdoeRoLrBQsWqLKZPn36YMSIEVqP6eRuQffu3dVDrrLUrl07t6bfmHxh0N+nfBnp37+/apf6+7ffflu1Dx8+XO0/iHx50R+mJSoLVvz4O377/SQys0yrkzdVHe8aOHTsfG5mXRa9rl7nVt1RZe/1QP3UmctqrZOAftG8SSpDfzEiUmslIqLyyMzb29u0+8JlhNSyS622PnLLkyLjzF8Ou4nQU+eRnpIFt5qOqOHljFNHzqHhs36Ij0nA9QvxMLfORF2/OvBrVBM2Njba2VRaSAnR2LFjERQUpLUAlpaW8PQsOMtJFYv8LEi52OLPpiI5/uETwK3bfBAR125re4CXpwte7NJcffF/GAm8pXxGgm1j+oOuI4Z2Udsz5i5H904Bqk0y8xLQGx8jQ1p+vPBHdYx3TTd8vfy/uHxsuaqZ/3HDbnXc+fDr2LRqFmxzvhjQ47NxrI2Xx7x/3+eHkPJCIqKnhcF8EWVkZCLyZhT27TyOqLBUmFllwSzbHHauFniuYyP41K4FSytLmJkVcUgbKhEM5ulhihLMPyrJpt+6Hf+HbPut6Hi11stuZD8q5zjJwhu3CX1faueFXEu+JOg18nqmXt+nJ4PBPBGVRiyzKSJLSwvU9PLA4Nd6oc/rLdC4TU10HtIYI/7UD371fGFlbcVAnogeSLLk+QN5IQG6cf28bOevqc9/jFxHv5Zx4C7bDOSJiCoGBvOPwdunFl7oHIh6zxiGhCQiIiIiKkkM5omIiIiIyigG80REREREZRSDeSIiIiKiMorB/GM4dvg0lswOQvB2jo1ORERERCWPwXwR3buXgcvh17Hk441Y/8llWDkm4feVN7Hw/XU4c+oi0tPStSOJiIiIiIoXx5k3UWZmJiIuXMPxoChcvxIJ9zr2qBvgDFs7G6Qkp+JSSAyunkqGS42qaNrRHXXr14KVlemzwJoqMTFRzbLavn17rcVg165dCA0NhYODAzp27Ah3d3etx0DvF61bt0bz5s3VdkXDcebpYfRx5v+z/F/IzsrUWokMzMwt0HfAqxxnnohKFQbzJrpx/Sb+M+skUlNS0e616vDwdrlvPPns7GzE3LqLPatvIPm2BYbPbgDfurW13ifn6NGjmDNnDn744Qe1L8F9nz594OLigk6dOuHOnTuYMWMG1q5di969e6tjBg8erNbSLxjMM5ingunBvP7fF1F+PXr0YDBPRKUKy2xMlJSUAveAVLj5m2Pnt7dxMCgMyXfTVdlNatI9nNh3AUFLb6CKvRlqPZ+mgn5TSUC+adMm9QUkLCxMazUE7tImfeLmzZtYs2YNQkJCcr+szJ49WwXnEnxMmDAB06ZNU/0DBw5U1xXr16/P7ZelogbyRKVNdNwdrNl1FlO+2opzV2O0ViIiItMxmC8CMwtgwPhA9J9cF5Zpztj1QxiCVp/Hjh/OI/VmVXR/wweDJ7WChXXR/rWOHj0ae/bsUdsJCQlqLWUxU6ZMUdvLli3D3Llz1XZ+8+fPx6RJk7Q9Az8/P/Tr1w/nz59X+/qdCj24J6KnKy0tHet2h2Lc0jP49verSEg3x9hvTuHI+ZvaEURERKZhMF9E5ubm8PKpgc7D6qLj0Gdg42CONr3rotvouqjt76lu0xeVZM7HjBlzX9Zctrt37662AwICVOmM1MEPGTIEDRs2VP26/PXx+W3cuFGV3zg7O2PlypVaKxE9DRHXb2HYp3vwP6tj0LraHcwdVAv/290L3X3SMem7M4iIuqMdaRq5Y2d8R89Uch4REZV9DOYfkQT1ztWrwt4VqOZq90hBvE7KYsaNG6dq2/VfyuHh4ephViHrBQsWqO2CFPZL2c7OTpXfREREYPHixbllO0RUMjIyMnD+ehxmL9+JXp+FwK6yOdaOdsCANnVQ2coclhbm6NfaCwEe5hjz5QFEx8ZrZxZu3bp1ePfdd7U908idOjmPiIjKPgbzpYCUxezYsQMDBgzI/aVct25dVQuv17kbZ+KNTZ48+Q+BvnwhkGx//tp4yeDPnDlTle0QUcn5eddpjF10HOGxWfhbt6p4u5sbnKtW0XoNrt2+i4R04O494PDx01qr6aSMTp6z0cvp5Eu+8Rd9aZfPBmmTL/ayGGf0pd34fJ0cI+1ERFQ6MZgvgsyMbJVhe5isrCxk5RxXFJIlk0Xq5H19fVXbm2++icDAwNw+/Zepvb29CtSlTbz33ns4cOCAyupLm2TgpV5+27Ztql/o15BFvhRMnDhR6yGikrDj5DVYZqdjXNtqaO5TFVZWeXfy7iYkYcn2i5i8KRkv1LbE+ABzWFkU7aM5OjpaPXsjI11JOZ0E4BKUDxs2TDsC2LlzJw4dOqSGtt2wYYNafvrpJ9Und+s6d+583/lChrmVu4bSbhz4ExFR6cFg3kTVXBxhkWmNdd8GI+zsRTXuvAxHaWCm9q9GXMemVXuRnmCWc7yT1lc4Ly8vtZYhJvUHXSXo3r9/v9qWMhu9Ll6y+DLspE5KaCSrP3LkSLXfpEkTbN++/Q/j0Ovki8CD+oioeDSoDjTztMTCoBu4FZ+iPjvuJKZiR0gMZm2+nfNJXAmb/qc2erb2wwtNvdG0ob/R50vhoqKisHTpUjVq1bfffotPPvlEfVYIPdMuz85IcC5D1kqyQBb58i/9b7/9tvqyP336dMyaNQtLlizJTSDI54tcV78eERGVLhxnvggkYD8bEoYLpyORkp4IR0dH3I6Kgat7NcTFxcPazBa1G7iifuO6qFSpknYWlSYcZ54eprjGmf9q5S8IqOeJPZfvYX94PBp52uHczURUt6+EPs2ro0nt6jnBexa+/PJLdXcvJSVFBdumjF8un3Xy86y/ZwnC9bko5IH3qlWrokOHDipzrx+jfz5K0kCOl7uAckdPJw/dS6Avi9z5k5G19HkrKjqOM09EpQ0z80VgYWGBhk2eQbeBgXi+UwtYVzLM8CoZtMB2zdF9UGs0a9GQgTwR/YF8Lgxv5412vjYIuXYH47v44O1+/mjm64oqVSrj7NmzKpCX52A8PDxw4sQJ7cyi0Ye3FZKJl4y8lNjod+/yk9I9eUZHAn19kSBeyJ1C+UIwb948joRFRFRKMZh/BJUrV4ZnrRro2LM1Xh3XF937tYN3HQ/Y2NpoRxAR5anp5ozDYVFIS7+HZt4O6N3ECfVrOsLaylIlA+Sun8w1IeUykvWNjIxUo1zdvXtXu8LDSfmcBNvy3I085K4H7lKeFxsbqwJ6yc4bO378uKqD18tnJICXLL0sUnoji2zLg7H+/v7qGCIiKn0YzD8mMzMzbYuIqGCdnmsGR7vK2HwgDInJyaotJTUVx85ewbFz1/H777+rB1MlsL548aJ6CPXUqVNqiNrCyDM3Uucuc0ksXLjwDyUxMkqWk5OTer5G179/f7XWH4CV52yElOfILNOS3Zdl0aJFqq1Zs2bo27evOoaIiEqXclsz/89//pOBNv2BZCKlFpk181SQ4qqZF6lpadiwfR+CLyShhr0l7mUBNWyB7m2b4sTRg6o2/a233lLHyqhZEkhLUN6qVSvVVlSSWZdZoCW4lzKZ/EPV0qNhzTwRlTblLjMvvwTj4+MZyFOBJHspJQ1EJa1ypUoY0qsDnvdzQGa2Obo1rYFxQ7vDu2YN1S/18mk5Ab++PO7PqZTHSFZdym4YyBMRlV/lLpiXX4AyEkR6errWQpRHRrOJiYnR9ohK3oAugZjy8vMIDGiqtQC2trbqgVcZzUYWubMod5Gsra21I4pOSnbkDgOHoiUiKt/KXTCvJm3KWWRkCKL8ZMxs41kxiUqalPJIOaAxGRry448/xogRI9Qiw0jOnj0b9erV044gIiIqWLl8APby5cvFMs48lW0XLlzApUuXEBcXp7UYyJCjRE+TZOYbNmx43yIjyOQP+omIiPIrl8G8lNnIKBAyXBuRkLKrDz74AMHBwerOjTEG80RERFRWlctgXkRERKhpzaVGmmjx4sU4efJk7tT2xqpXr65tEZW8W7ejsT34qLZHRERUNOU2mJeJWGRYNhnqbfny5VorVTQyYY78DHz//fc4ffq01prH3Lzc/idApVxWzmfUtr0n0GHuSfRZkYxpi3eoNiIioqIo15GMlFbILIpLly7FG2+8gW3bthWYmaXyR+rj5c7M66+/rkb0kDG8CyIT7hCVpMTkFGw7egWvfrIT7/8ai1GtKuOHQcC+a8CHq48hMYUjcRERkenK3aRRD1KpUiU1tbkM9cZxxss/qYOXB6HlgVeZe6Ag8nChq6urtkdUvJNGif1HT+OLvem4GhmNno2c0cbHAu7VDDOzRkTewcLdd9Dc2x7vv1q0iaJ27dqlZn8dOXKkugMla/m8mzt3LgYNGqSGqaQng5NGEVFpU2GCeWM3btzAvXv3tD2qiBjIU0GKK5iPi7+D91cdw7LT5nipbgomdKgBe9sq901uJ6WBR8Jj8M6WdPyrtxle7PqC1lM4SVLInUcZAUfuPurB++DBgzF9+nROGvUEMZgnotKmQhYMe3h48MO3gpIaefn/noE8laTZ/9mL7ReysCQnSH+ndx1UtbPJDeTlztHFqCQs3XkF606noFedFFSyNn2EJQnYhWTmJZD/6aef1IRT+Unb+PHj1fGSydfb9H1ZT5s2LbcUUeZjkP387Zs2bVIZfxn+V64n19DPzz8ksN6uH0dERE9ehczM5xcVFaVtUXklZTcuLi7aHlHBiisz/8HiTTgRbY2WtazRv6VHbiAfHZ8TfB9PQExcIprXc0efAHeY5XwiSzDv7mbaKEtHjx5Vk07t379fZeZlwik9Gy+BtGxLe6tWrXKD7QkTJqihexMSEtS5s2bNQrdu3TBlyhSMHTsWw4YNU8G7DCIg1qxZo9Z6ED9p0iR1JyA0NFT1tW7dGj179kTXrl3Vc0pyZ0Del1xv3rx56m7owIEDy8XM3MzME1Fpw2CeiEhTXMH8Vyt/gV/Navhgewq61s7EgFae2HPqCj7ZXwWvNk7HiE714OrihM2bN6vMtwSMQ4cONXm0JSmz0QNlPYA3DuZlRmyZUVYmoxIScL/55psqCJdgXj9XAvU7d+6oTLyQ9yLD+0rALl+G5d+LHCPBrP7vSF5bRo2ys7NTrzdx4kS0b99eZePly4D+JVq+PMgXjrJe8sNgnohKG47LR0RUAqo7O+Cb4V44GmWB//3+Cn6PrIplr9hhYt9mcMnpu379OrZv366y4lu3bsWePXu0Mx+fBOh9+/ZVgb0sK1asQP/+/bXe+x05ckStJWiXrLqDg4PK1j+MBPI6ydYLCfDlPP019TsHRET0ZDGYJyIqZpWtLXE9JgmOjg544zlHdKpng38M9kE9X29VAla5cmWcOHECzs7OqFevnro7IBPfPWgkpqJq0KABNmzYoIJpyYzLIqPdPIxkn2fOnKm+XDyKgIAAVTOvv54sxkE/ERE9GQzmiYiKWfd2zXH68m2EXboG+ypWqOlkjUpWljnBeiaio2Owd+9ezJkzR5W1DBkyRE109/XXX+PcuXPaFR6PlL1IiY3UzUspjCyF6dSpk6qBl2Nl9uSikuExd+/ejY4dO6prSL09ERE9eayZJyLSFOc48+GXrmDVjhC42VvDzLIS/DzscSrsOry9PHEvOlw9MCqzFQvJyC9atAi9e/dWAXhh5FzJfAsZNUay7pIFN97W++ShV8nQS5v+kKt+roxgI2360Jb6CDRyDemT9vzH5H9tua5x1l/6hX5MWceaeSIqbRjMExFpinvSqMtXb+A/207gbkoG/GrYIbBxHdSt5aZq5GWW4kcN5qnkMJgnotKGZTZERCXEx8sDEwa2xYR+LfHqi23QyN9b1cuLu3fvqiy5LOHh4WqfiIioMAzmiYhKkLNjVfjUrIEqlStpLUCdOnUQGRmJzz//XC0yAVRSUhKqVzdtrHkiIqq4WGZDRKQp7jIbKvtYZkNEpQ0z80REREREZRSDeSKipygzMxMpqWnaHhERUdEwmCciekquRUbjy19C8aev9mBfyDWtlYiIyHQM5omISlhKSiqW/HIYQ74+j50hkfC0zcSE78Kx60SEdgQREZFpGMwTEZWQe/cycPz8NfSb+zv+viUVr9VLwtyXfDCqY2283uQe3l4djtCIaO3oopHJmWRCJ32iJyHbMsFTURlfg4iISjcG80RExSw9PR17Q29iypI9GLv0PJp42eCn1x3RubmPdgTQ+VkvdKpjgXFfH8PV65Faq2k6duyIKVOm4MiRI/jpp59UUC/effddNW59UX3yySfaFhERlXYM5omIitm3m49i0opzsEImPuhdDWOerw4H27xx5kX41Wici8kGzDIRej5cay2cZOSDg4Mxb948dOjQAYMGDYK9vb3Wez/JuMvx+UmbcTZ+/Pjxai1fCqRPX4yP0fseJfNPRERPDoN5IqJiduJSDKpZp+Gllq6o42oDCwvDR69M8hEdl4AFv5zH1K2ZeK15ZbwVWBnWVpaq3xRz5szJXUuA/aBs/LRp0zBu3DiVwZdMvgThcry1tbU6V87TBQYGqrVk+qVPFmk7dOiQat+0aRM6d+6s2p2dnVmWQ0T0FDGYJyIqZg1ccgJkb2vM33oDlyITkJ2VjZsxCVhz4DY+3xkDbzcnBE3yRVNfN3g4WsLbwxXZ2abN56dPcCVrPz8/tZ2fZNAPHDigsveyuLi4YOfOnVi3bh1mzZqlzi1ooqzevXurdpmVdvTo0Rg2bJj6EvD222/jq6++wvTp09X5S5Ys0c4gIqKSxmCeiKiYmed80vZu5oK+zavji10x+HJHFD7+LRYW2RmY3KsOxnSrB2trKxUg7969Gx999NETzXZLIB8VFZWbZde99tpr2LJliyqrkYD/QWbOnKkWIVn/8PBwLFy4UF1LsveOjo6qj4iISh6DeSKiEmBpaYFeLbwxpJktYhKSMP+VuhjfqyF83R1RqVIlhIaGqlr3qVOnolmzZjh9+rR25uNzcHBA3759czPwskjW3c7ODjt27FDBvJTRFPQFQr5gSEbe3d1d7ct7rFu37n3XkhIeIiJ6OhjMExEVM38fdxw8H4X4uwmo7VYVPRo6wamqLbKys9UMsFK6snnzZpX1Xrx4MY4fP47Dhw8jJiZGu8LjkRr5+fPnY+XKlbkPswr9IVYhAXp+EtyvWbNGBfBynOzrpTwSwOvX4kOwRERPD4N5IqJi9nxAI3hVr4oN+y7gToIh8E1OTsbuo+dx4Mx1VQYTGRmJHj16oGrVqnjuuedw69YtXL58WR1bmH79+mlbQEBAQO5oNvq2ZNX379+PXbt2qdKYrVu3qn4J5vXSGynt0QN1/XoyzKXU1+vHyL7Yvn27WkubBPsJCQlqn4iISp6Zt7e3aU9ZERGVc5aWlmjUqJEqHXnSJAv/3+17sPHkHXjam+FuWjbqu1VC347NsW9vsAro33rrLXVsRkYGFi1apEphWrVqpdqodJAvXEFBQdqeQc7vUW2LiKjkMTNPRFQCzM3M0LtLOwxo6Q4XZ0e81tEPYwZ3RXWXaqpfAnjJcMsiZSsy0RQREVFhGMwTEZWgrm2aYUzvFmjasJ7WAlVaI2O4f/jhh2qZO3cuzpw5g8qVK2tHEBERFYxlNkREmuIss3kYycpLDb0xMzMz2NrawlzGtaRSg2U2RFTa8LcEEVE+MmGTBNMltVhZWanhI40XydZbWFgUeDyXp7OYOpEXEVFJYjBPRJSPHrhx4WK8yM8FEVFpwzIbIiKNXmaz+LOpSI6/pLUSGdg41sbLY95nmQ0RlSrMzBMRERERlVEM5omIiIiIyigG80REREREZRSDeSIiIiKiMorBPBERERFRGcVgnoioBF2KiMT4KQvUOr/lq3/Dl0s2aHsPdurMZWzbdVTbwwOvVxRyPeNrEhFR2cBgnoioBCUmp2JL0BGsWrtTazFIymmfMXc5ToYWPiTmsZPhuBkZq+1BXU+u+zjkesbXJCKisoHBPBHRY4qOTcCBo2FIv5ehtTxc904BOHYqXAXwuq07jmLciF7anoH0f/jp9yrzLll7IdnzpSu3qsU4ix9+8Qbe+fsStRhn6WXb+BrGr7n/8BnVLv0Jiclaq+F15drGr0tERKUTg3kioscgge+nizbi6++2ITk5TWstXJ/ugSqA1638KQid2jXV9gwm/20R6vvXwsQ3+iH4YAh+/mUvmjasg64dmqulV5dW2pHAr0GHMHxIZzhUtcW/vv1Ftd2KjkfH/m/nXiPkbAS+XbVV9Ukg//LYORj9Sje0bO6PHzfsUe1iwaJ1ai3ntAtspLaJiKh0YjBPRPSIEhJT8PasFdh76BzS0zPUlP+mGtTneXz+tSFolsC6Q9smsLWtovaFZNSlfEaC9IXfrEdsXILadnVxRE0PF7XU9q6hHW0IvBvX90GfHoG4GHFTtQUfCFXZ/gEvtlF9M/76Kj5e+KPqky8Giz/7XwS2qI+u7Ztj9LBuql04VLXBnbvJcKvueN9rEBFR6cNgnojoEdyKvoNP/rkBZ8OvaS1FY2tTWWXX5WHWpau2YnC/F7QeA6mBb/msvwrSZZnx1+GY9tZQrffhDh07r9ZSOiNBv05eUxd/NxE1XJ21vfv9eUxflc0fOuZDkx7IJSKip4fBPBHRI/hmxW8IPnQWWVmmZ+Pze2VgB5V1F5JxN1bHu4YKyu1yAnDJqstS1Cy5v6+nqq3X6+Tli4N8QRDeNd3Ug7Q6KeMxJtn8Tatm5WbyiYiodGIwT0T0CAJb+GP4oBcwckgHtYx+pSPsjMpkTKEH51K3np9k0WdNG6Fq3uVBVFn0B1vdazirkW8Ky5qrEpoOzdH7lRnq/D7DZuCj999QfW+81kNdY/Drs9XiWNVOtQv94ddREz/B0P7ttVYiIiqNzLy9vR89rUREVI5YWlqiUaNGWPzZVCTHFz5E5KOQLPmt2/G5gbw8pKpn5fP3CemPymmT+nXj7L0e2MuxknGXTL58AZBrXMzpk0y+To6Vsh39GJ1+rLTr2Xt5Db1d7goU9W5AeWbjWBsvj3kfQUFBWotBzu9RbYuIqOQxmCci0pREME9lF4N5IiqNWGZDRERERFRGMZgnIiIiIiqjGMwTEREREZVRDOaJiIiIiMooBvNERERERGUUg3kiIiIiojKKQ1MSEWn0oSm/X/UdzM0ttFYig6ysTLzYuz+HpiSiUoXBPBGRRg/mf/jhB62F6H49evRgME9EpQrLbIiInoKY6Bgc3B6OM8cicO9ehtZKRERUNAzmiYhKUFpaGoK3H8e3fzuCg7tPYPN3J/H9578jIiJCO4KIiMh0DOaJiEqAZN8vh9/A4g//i91rrqD5ABt0f7UJOo/0hplNCpb8bwg2rvod8XF3kZ1tevVjYmIijh49mrsQEVHFwmCeiKiYpaamYsvqQ1g85RAcXaug5wQf1KztpvpsbKqgdRd/9PiLC84fuINF7+7EpYuXVZ8pzp8/j8DAQMyZMwdTpkxBx44dVYBPREQVA4N5IqJilpKSijuJ8ahePwM3TmYh/EQ00tLStV4g8sZthO6JQ+Y9oLJTJq5duaH1mKZfv37qod0dO3agdevW+O6771S7ZOr1zL1O379586bWkkfa9GP1tX68rMPCwu5r0/eF8evoayHHFPRaRET0ZDCYJyIqbtlAJfssDJ74HDq94YErJ1Pw04fncXBnKLatDMGWT2Nh65qJwVMbw6epvRz+yIxHVpGMfZ8+fVTWXmzatAnOzs5qX45buXKlahfSJ23SN3jwYHWu0DP/o0ePxk8//aTaZFuOky8Rc+fOVW36cePHj1d3COQa0vfuu++q6xoH+ERE9OQwmCciKkG163hh2Nst0OPP3ogMNYNDNXuM+rgBug1ojapV7bWjiiY6OloFyxKQT5o0SWXndRJYS9ZeMucDBw5ESEiI2o+NjcWoUaNUe/6+6dOna2fn+fzzzzFt2jS1LcfIsmLFCsyYMUO16WbOnKnuEMi1HBwc1HGzZs3CgQMHtCOIiOhJYjBPRFTCZDz7us94o1aAGeq1qAYnZwet59EEBwerTPnGjRuxf/9+NG/eXOsBPDw81Foy55JJ9/PzU/t2dnZqX9rz9xmfr3N3d1drCfwl625tbZ2b8TemH9ewYcPcLxUS1B8/flxtExHRk8VgnoiojNNr5hctWlRgIC7s7e1VttyYZPSlXd/WScD+IBs2bFClOunp6eo1TSV3AoiI6MljME9EVAJktMmszCxtr2AyJGVWVvFMyi1Zdzc3N1UqIyU5X331VW67fAGIiopSbdI3e/Zs1fcgksmX4/R6eSIienoYzBMRFTNraytYW1bGwR3ncenCFWRk/HHG15TkFJw6HIaY60lwcqqqtRZOMusBAQHa3v0kY69n3oWU4Qgpj5FJqvR9sX79elUKI9n9IUOGaK2G68t1dH379lXlM3KNQYMG5fblP07ek/7aXl5eD3yPRET0eMy8vb2LJw1ERFTGSC17o0aNilQ+YiqZNOrYkeM4uusyKttYoWlbH4SHXkGNmi5ITkrB+YNxqOFrgxe6BcCthqt2VskxHm1GAvratWvnPvBKeXr06IGgoCBtz8B4BCEiopLGYJ6ISFOcwbwuNTUNISfP4eKp24iPuwMrayvU8HLGM81qwtunFszMzLQjS5aUzBw5ckRtDxgwAMOGDVPbdD8G80RU2jCYJyLSlEQwr0tKSkL0rXhUqmwFV1cXmFuw6rEsYDBPRKUNf3sQET0Ftra28K7tiRrurgzkiYjokfE3CBFRPjKqjJS7cOFivMjPBRFRacNgnohII6PMJCQk5AZuXLgYL/JzQURU2jCYJyIyIjObypjrRPnJz4U8V0FEVJowmCciMpKSkoKTJ09qe0R55OciLi5O2yMiKh0YzBMRGbl169Z9kykR6eTn4uLFi9oeEVHpwGCeiMhIcnIyzp07h82bN2stRFA/DzJDbkxMjNZiYGFhoW0RET0dDOaJiPK5dOkSvv76a9bOkxIbG6tmxT18+LDWkqdSpUraFhHR08FgnogoHxm55MKFC5g4cWKBARxVHGfOnMGf//xn7Nu3T412lF/16tW1LSKip4MzwBIRPYCUUPj6+qJly5Z466234OzsrPVQeSfZ+FWrVmHTpk0qkJfyq/wqV64MNzc3bY+I6OlgME9EVAgJ4l1dXeHk5ARHR0e0atVK66Hy5uDBg4iPj1fBfEREhHp+oiAy5nytWrW0PSKip4fBPBGRiWQMegn07OzstBYqb+7evYu0tDQkJiZqLX9kbm4OLy8vbY+I6OliME9EVEQyfKWMR08VjzzwWqNGDW2PiOjpYzBPRPSIbt++XWAtNZU/VapUUaVWRESlDYN5IiIiIqIyikNTEhERERGVUQzmiYiIiIjKKAbzRERERERlFIN5IiIiIqIyisE8EREREVEZxWCeiIiIiKiMYjBPRERERFRGMZgnIiIiIiqjGMwTEREREZVRDOaJiIiIiMooBvNERERERGUUg3kiIiIiojKKwTwRERERURnFYJ6IiIiIqIxiME9EREREVEYxmCciIiIiKqMYzBMRERERlVEM5omIiIiIyigG80REREREZRSDeSIiIiKiMorBPBERERFRGcVgnoiIiIiojGIwT0RERERURjGYJyIiIiIqoxjMExERERGVUQzmiYiIiIjKKAbzRERERERlFIN5IiIiIqIyisE8EREREVEZxWCeiIiIiKiMYjBPRERERFRGMZgnIiIiIiqjGMwTEREREZVRDOaJiIiIiMok4P8DAA0FvwJTpGUAAAAASUVORK5CYII=;movable=0;resizable=0;rotatable=0;deletable=0;editable=0;locked=1;connectable=0;" parent="WIyWlLk6GJQsqaUBKTNV-1" vertex="1">
          <mxGeometry x="150" y="80" width="539.7" height="376" as="geometry" />
        </mxCell>
        <mxCell id="KlkmZHF0BozQ7KG4BlhC-3" value="1" style="endArrow=open;html=1;endSize=12;startArrow=diamondThin;startSize=14;startFill=1;edgeStyle=orthogonalEdgeStyle;align=left;verticalAlign=bottom;rounded=0;strokeColor=#FFFFFF;" parent="WIyWlLk6GJQsqaUBKTNV-1" edge="1">
          <mxGeometry x="-1" y="331" relative="1" as="geometry">
            <mxPoint x="280" y="210" as="sourcePoint" />
            <mxPoint x="350" y="210" as="targetPoint" />
            <Array as="points">
              <mxPoint x="340" y="210" />
              <mxPoint x="340" y="210" />
            </Array>
            <mxPoint x="328" y="-311" as="offset" />
          </mxGeometry>
        </mxCell>
        <mxCell id="KlkmZHF0BozQ7KG4BlhC-4" value="1" style="endArrow=open;html=1;endSize=12;startArrow=diamondThin;startSize=14;startFill=1;edgeStyle=orthogonalEdgeStyle;align=left;verticalAlign=bottom;rounded=0;strokeColor=#FFFFFF;" parent="WIyWlLk6GJQsqaUBKTNV-1" edge="1">
          <mxGeometry x="-1" y="-182" relative="1" as="geometry">
            <mxPoint x="190" y="210" as="sourcePoint" />
            <mxPoint x="560" y="300" as="targetPoint" />
            <Array as="points">
              <mxPoint x="160" y="210" />
              <mxPoint x="160" y="440" />
              <mxPoint x="560" y="440" />
            </Array>
            <mxPoint x="2" y="-30" as="offset" />
          </mxGeometry>
        </mxCell>
        <mxCell id="KlkmZHF0BozQ7KG4BlhC-5" value="1" style="endArrow=open;html=1;endSize=12;startArrow=diamondThin;startSize=14;startFill=1;edgeStyle=orthogonalEdgeStyle;align=left;verticalAlign=bottom;rounded=0;strokeColor=#FFFFFF;" parent="WIyWlLk6GJQsqaUBKTNV-1" edge="1">
          <mxGeometry x="0.8462" y="-253" relative="1" as="geometry">
            <mxPoint x="530" y="200" as="sourcePoint" />
            <mxPoint x="460" y="310" as="targetPoint" />
            <Array as="points">
              <mxPoint x="500" y="200" />
              <mxPoint x="500" y="230" />
              <mxPoint x="460" y="230" />
            </Array>
            <mxPoint x="-3" y="40" as="offset" />
          </mxGeometry>
        </mxCell>
        <mxCell id="A7l6eOq6XJ46Z8bpsv8h-3" value="" style="endArrow=classic;html=1;rounded=0;strokeColor=#F5F5F5;" parent="WIyWlLk6GJQsqaUBKTNV-1" edge="1">
          <mxGeometry width="50" height="50" relative="1" as="geometry">
            <mxPoint x="440" y="190" as="sourcePoint" />
            <mxPoint x="530" y="190" as="targetPoint" />
          </mxGeometry>
        </mxCell>
        <mxCell id="A7l6eOq6XJ46Z8bpsv8h-5" value="public" style="edgeLabel;html=1;align=center;verticalAlign=middle;resizable=0;points=[];" parent="A7l6eOq6XJ46Z8bpsv8h-3" vertex="1" connectable="0">
          <mxGeometry x="-0.063" y="2" relative="1" as="geometry">
            <mxPoint x="-12" y="-8" as="offset" />
          </mxGeometry>
        </mxCell>
        <mxCell id="MqQDgGlRZGS2Yj6uh8nT-0" value="Начало" style="ellipse;whiteSpace=wrap;html=1;" vertex="1" parent="WIyWlLk6GJQsqaUBKTNV-1">
          <mxGeometry x="310" y="-1140" width="100" height="60" as="geometry" />
        </mxCell>
        <mxCell id="MqQDgGlRZGS2Yj6uh8nT-10" style="edgeStyle=orthogonalEdgeStyle;rounded=0;orthogonalLoop=1;jettySize=auto;html=1;entryX=0.5;entryY=0;entryDx=0;entryDy=0;" edge="1" parent="WIyWlLk6GJQsqaUBKTNV-1" source="MqQDgGlRZGS2Yj6uh8nT-1" target="MqQDgGlRZGS2Yj6uh8nT-9">
          <mxGeometry relative="1" as="geometry" />
        </mxCell>
        <mxCell id="MqQDgGlRZGS2Yj6uh8nT-1" value="Бесконечный цикл" style="strokeWidth=2;html=1;shape=mxgraph.flowchart.loop_limit;whiteSpace=wrap;" vertex="1" parent="WIyWlLk6GJQsqaUBKTNV-1">
          <mxGeometry x="310" y="-1040" width="100" height="60" as="geometry" />
        </mxCell>
        <mxCell id="MqQDgGlRZGS2Yj6uh8nT-2" style="edgeStyle=orthogonalEdgeStyle;rounded=0;orthogonalLoop=1;jettySize=auto;html=1;entryX=0.5;entryY=0;entryDx=0;entryDy=0;entryPerimeter=0;" edge="1" parent="WIyWlLk6GJQsqaUBKTNV-1" source="MqQDgGlRZGS2Yj6uh8nT-0" target="MqQDgGlRZGS2Yj6uh8nT-1">
          <mxGeometry relative="1" as="geometry" />
        </mxCell>
        <mxCell id="MqQDgGlRZGS2Yj6uh8nT-12" value="" style="edgeStyle=orthogonalEdgeStyle;rounded=0;orthogonalLoop=1;jettySize=auto;html=1;" edge="1" parent="WIyWlLk6GJQsqaUBKTNV-1" source="MqQDgGlRZGS2Yj6uh8nT-9" target="MqQDgGlRZGS2Yj6uh8nT-11">
          <mxGeometry relative="1" as="geometry" />
        </mxCell>
        <mxCell id="MqQDgGlRZGS2Yj6uh8nT-9" value="вывод cars" style="shape=parallelogram;perimeter=parallelogramPerimeter;whiteSpace=wrap;html=1;fixedSize=1;" vertex="1" parent="WIyWlLk6GJQsqaUBKTNV-1">
          <mxGeometry x="300" y="-930" width="120" height="60" as="geometry" />
        </mxCell>
        <mxCell id="MqQDgGlRZGS2Yj6uh8nT-14" value="" style="edgeStyle=orthogonalEdgeStyle;rounded=0;orthogonalLoop=1;jettySize=auto;html=1;" edge="1" parent="WIyWlLk6GJQsqaUBKTNV-1" source="MqQDgGlRZGS2Yj6uh8nT-11" target="MqQDgGlRZGS2Yj6uh8nT-13">
          <mxGeometry relative="1" as="geometry" />
        </mxCell>
        <mxCell id="MqQDgGlRZGS2Yj6uh8nT-11" value="ввод i" style="shape=parallelogram;perimeter=parallelogramPerimeter;whiteSpace=wrap;html=1;fixedSize=1;" vertex="1" parent="WIyWlLk6GJQsqaUBKTNV-1">
          <mxGeometry x="300" y="-830" width="120" height="60" as="geometry" />
        </mxCell>
        <mxCell id="MqQDgGlRZGS2Yj6uh8nT-16" value="" style="edgeStyle=orthogonalEdgeStyle;rounded=0;orthogonalLoop=1;jettySize=auto;html=1;" edge="1" parent="WIyWlLk6GJQsqaUBKTNV-1" source="MqQDgGlRZGS2Yj6uh8nT-13" target="MqQDgGlRZGS2Yj6uh8nT-15">
          <mxGeometry relative="1" as="geometry" />
        </mxCell>
        <mxCell id="MqQDgGlRZGS2Yj6uh8nT-13" value="вывод cars[i]" style="shape=parallelogram;perimeter=parallelogramPerimeter;whiteSpace=wrap;html=1;fixedSize=1;" vertex="1" parent="WIyWlLk6GJQsqaUBKTNV-1">
          <mxGeometry x="300" y="-740" width="120" height="60" as="geometry" />
        </mxCell>
        <mxCell id="MqQDgGlRZGS2Yj6uh8nT-18" style="edgeStyle=orthogonalEdgeStyle;rounded=0;orthogonalLoop=1;jettySize=auto;html=1;" edge="1" parent="WIyWlLk6GJQsqaUBKTNV-1" source="MqQDgGlRZGS2Yj6uh8nT-15" target="MqQDgGlRZGS2Yj6uh8nT-17">
          <mxGeometry relative="1" as="geometry" />
        </mxCell>
        <mxCell id="MqQDgGlRZGS2Yj6uh8nT-15" value="ввод new_date1,new_date2" style="shape=parallelogram;perimeter=parallelogramPerimeter;whiteSpace=wrap;html=1;fixedSize=1;" vertex="1" parent="WIyWlLk6GJQsqaUBKTNV-1">
          <mxGeometry x="285" y="-660" width="150" height="60" as="geometry" />
        </mxCell>
        <mxCell id="MqQDgGlRZGS2Yj6uh8nT-17" value="цикл 1" style="shape=loopLimit;whiteSpace=wrap;html=1;" vertex="1" parent="WIyWlLk6GJQsqaUBKTNV-1">
          <mxGeometry x="307.5" y="-570" width="105" height="60" as="geometry" />
        </mxCell>
      </root>
    </mxGraphModel>
  </diagram>
  <diagram id="1Rbp3myJZRYmaxSloWB-" name="Page-2">
    <mxGraphModel dx="1050" dy="1711" grid="1" gridSize="10" guides="1" tooltips="1" connect="1" arrows="1" fold="1" page="1" pageScale="1" pageWidth="827" pageHeight="1169" math="0" shadow="0">
      <root>
        <mxCell id="0" />
        <mxCell id="1" parent="0" />
        <mxCell id="89ll65cCW0ty2DECS3It-3" value="Appliance" style="swimlane;fontStyle=1;align=center;verticalAlign=top;childLayout=stackLayout;horizontal=1;startSize=26;horizontalStack=0;resizeParent=1;resizeParentMax=0;resizeLast=0;collapsible=1;marginBottom=0;whiteSpace=wrap;html=1;" parent="1" vertex="1">
          <mxGeometry x="320" y="-1140" width="160" height="150" as="geometry" />
        </mxCell>
        <mxCell id="89ll65cCW0ty2DECS3It-4" value="&lt;div&gt;string brand;&lt;/div&gt;&lt;div&gt;string color;&lt;/div&gt;&lt;div&gt;float power;&lt;/div&gt;" style="text;strokeColor=none;fillColor=none;align=left;verticalAlign=top;spacingLeft=4;spacingRight=4;overflow=hidden;rotatable=0;points=[[0,0.5],[1,0.5]];portConstraint=eastwest;whiteSpace=wrap;html=1;" parent="89ll65cCW0ty2DECS3It-3" vertex="1">
          <mxGeometry y="26" width="160" height="54" as="geometry" />
        </mxCell>
        <mxCell id="89ll65cCW0ty2DECS3It-5" value="" style="line;strokeWidth=1;fillColor=none;align=left;verticalAlign=middle;spacingTop=-1;spacingLeft=3;spacingRight=3;rotatable=0;labelPosition=right;points=[];portConstraint=eastwest;strokeColor=inherit;" parent="89ll65cCW0ty2DECS3It-3" vertex="1">
          <mxGeometry y="80" width="160" height="8" as="geometry" />
        </mxCell>
        <mxCell id="89ll65cCW0ty2DECS3It-6" value="Appliance()&lt;br&gt;Appliance(string brand, string color, float power)" style="text;strokeColor=none;fillColor=none;align=left;verticalAlign=top;spacingLeft=4;spacingRight=4;overflow=hidden;rotatable=0;points=[[0,0.5],[1,0.5]];portConstraint=eastwest;whiteSpace=wrap;html=1;" parent="89ll65cCW0ty2DECS3It-3" vertex="1">
          <mxGeometry y="88" width="160" height="62" as="geometry" />
        </mxCell>
        <mxCell id="-K7I98av-aLV858ryAcl-1" value="&lt;p style=&quot;margin:0px;margin-top:4px;text-align:center;&quot;&gt;&lt;b&gt;Fridge&lt;/b&gt;&lt;br&gt;&lt;/p&gt;&lt;hr size=&quot;1&quot;&gt;&lt;p style=&quot;margin:0px;margin-left:4px;&quot;&gt;float capacity;&lt;/p&gt;&lt;p style=&quot;margin:0px;margin-left:4px;&quot;&gt;int num_of_drawers;&lt;/p&gt;&lt;hr size=&quot;1&quot;&gt;&lt;p style=&quot;margin:0px;margin-left:4px;&quot;&gt;Fridge()&lt;br&gt;Fridge(string brand, string color, float power, float capacity, int num_of_drawers)&lt;br&gt;void setdata()&lt;br&gt;friend ostream&amp;amp; operator&amp;lt;&amp;lt; (ostream&amp;amp; o, Fridge fridge)&lt;br&gt;void print(const string&amp;amp; filename, ios_base::openmode mode)&lt;br&gt;void read(vector&amp;lt;Fridge&amp;gt;&amp;amp; input)&lt;br&gt;string getbrand()&lt;br&gt;&lt;/p&gt;&lt;p style=&quot;margin:0px;margin-left:4px;&quot;&gt;friend bool operator&amp;lt;(const Fridge&amp;amp; first, const Fridge&amp;amp; second);&lt;/p&gt;&lt;p style=&quot;margin:0px;margin-left:4px;&quot;&gt;friend bool operator&amp;gt;(const Fridge&amp;amp; first, const Fridge&amp;amp; second);&lt;/p&gt;" style="verticalAlign=top;align=left;overflow=fill;fontSize=12;fontFamily=Helvetica;html=1;whiteSpace=wrap;" parent="1" vertex="1">
          <mxGeometry x="110" y="-790" width="160" height="360" as="geometry" />
        </mxCell>
        <mxCell id="-K7I98av-aLV858ryAcl-4" value="&lt;p style=&quot;margin:0px;margin-top:4px;text-align:center;&quot;&gt;&lt;b&gt;Vacuum&lt;/b&gt;&lt;/p&gt;&lt;hr size=&quot;1&quot;&gt;&lt;p style=&quot;margin:0px;margin-left:4px;&quot;&gt;float noise_level&lt;br&gt;float cord_length&lt;/p&gt;&lt;hr size=&quot;1&quot;&gt;&lt;p style=&quot;border-color: var(--border-color); margin: 0px 0px 0px 4px;&quot;&gt;void getData()&amp;nbsp;&lt;br style=&quot;border-color: var(--border-color);&quot;&gt;void print(ostream&amp;amp; o) override&lt;br style=&quot;border-color: var(--border-color);&quot;&gt;void input(istream&amp;amp; i) override&lt;br style=&quot;border-color: var(--border-color);&quot;&gt;&lt;/p&gt;&lt;p style=&quot;border-color: var(--border-color); margin: 0px 0px 0px 4px;&quot;&gt;void putData()&lt;/p&gt;" style="verticalAlign=top;align=left;overflow=fill;fontSize=12;fontFamily=Helvetica;html=1;whiteSpace=wrap;" parent="1" vertex="1">
          <mxGeometry x="320" y="-730" width="160" height="190" as="geometry" />
        </mxCell>
        <mxCell id="-K7I98av-aLV858ryAcl-9" style="edgeStyle=orthogonalEdgeStyle;rounded=0;orthogonalLoop=1;jettySize=auto;html=1;entryX=0.497;entryY=0.992;entryDx=0;entryDy=0;entryPerimeter=0;" parent="1" source="-K7I98av-aLV858ryAcl-4" target="89ll65cCW0ty2DECS3It-6" edge="1">
          <mxGeometry relative="1" as="geometry" />
        </mxCell>
        <mxCell id="-K7I98av-aLV858ryAcl-10" value="&lt;p style=&quot;margin:0px;margin-top:4px;text-align:center;&quot;&gt;&lt;b&gt;Iron&lt;span style=&quot;white-space: pre;&quot;&gt;&#x9;&lt;/span&gt;&lt;/b&gt;&lt;/p&gt;&lt;hr size=&quot;1&quot;&gt;&lt;p style=&quot;margin:0px;margin-left:4px;&quot;&gt;string surfacetype;&lt;/p&gt;&lt;p style=&quot;margin:0px;margin-left:4px;&quot;&gt;float water_capacity;&lt;/p&gt;&lt;hr size=&quot;1&quot;&gt;&lt;p style=&quot;border-color: var(--border-color); margin: 0px 0px 0px 4px;&quot;&gt;void getData()&amp;nbsp;&lt;br style=&quot;border-color: var(--border-color);&quot;&gt;void print(ostream&amp;amp; o) override&lt;br style=&quot;border-color: var(--border-color);&quot;&gt;void input(istream&amp;amp; i) override&lt;br style=&quot;border-color: var(--border-color);&quot;&gt;&lt;/p&gt;&lt;p style=&quot;border-color: var(--border-color); margin: 0px 0px 0px 4px;&quot;&gt;void putData()&lt;/p&gt;" style="verticalAlign=top;align=left;overflow=fill;fontSize=12;fontFamily=Helvetica;html=1;whiteSpace=wrap;" parent="1" vertex="1">
          <mxGeometry x="540" y="-790" width="160" height="170" as="geometry" />
        </mxCell>
        <mxCell id="-K7I98av-aLV858ryAcl-12" value="" style="endArrow=none;html=1;rounded=0;exitX=0.5;exitY=0;exitDx=0;exitDy=0;entryX=0.5;entryY=0;entryDx=0;entryDy=0;" parent="1" source="-K7I98av-aLV858ryAcl-1" target="-K7I98av-aLV858ryAcl-10" edge="1">
          <mxGeometry width="50" height="50" relative="1" as="geometry">
            <mxPoint x="350" y="-690" as="sourcePoint" />
            <mxPoint x="400" y="-740" as="targetPoint" />
            <Array as="points">
              <mxPoint x="190" y="-840" />
              <mxPoint x="620" y="-840" />
            </Array>
          </mxGeometry>
        </mxCell>
      </root>
    </mxGraphModel>
  </diagram>
  <diagram id="t_PbN5IcTMjAgpEgzZP8" name="Page-3">
    <mxGraphModel dx="1400" dy="723" grid="1" gridSize="10" guides="1" tooltips="1" connect="1" arrows="1" fold="1" page="1" pageScale="1" pageWidth="827" pageHeight="1169" math="0" shadow="0">
      <root>
        <mxCell id="0" />
        <mxCell id="1" parent="0" />
        <mxCell id="Yxdw2tVaKGRCrDaLvaed-15" style="rounded=0;orthogonalLoop=1;jettySize=auto;html=1;entryX=0;entryY=0.5;entryDx=0;entryDy=0;" edge="1" parent="1" source="Yxdw2tVaKGRCrDaLvaed-1" target="Yxdw2tVaKGRCrDaLvaed-5">
          <mxGeometry relative="1" as="geometry" />
        </mxCell>
        <mxCell id="Yxdw2tVaKGRCrDaLvaed-16" style="rounded=0;orthogonalLoop=1;jettySize=auto;html=1;" edge="1" parent="1" source="Yxdw2tVaKGRCrDaLvaed-1" target="Yxdw2tVaKGRCrDaLvaed-7">
          <mxGeometry relative="1" as="geometry" />
        </mxCell>
        <mxCell id="Yxdw2tVaKGRCrDaLvaed-1" value="Администратор" style="shape=umlActor;verticalLabelPosition=bottom;verticalAlign=top;html=1;outlineConnect=0;" vertex="1" parent="1">
          <mxGeometry x="140" y="700" width="30" height="60" as="geometry" />
        </mxCell>
        <mxCell id="Yxdw2tVaKGRCrDaLvaed-2" value="Клиент" style="shape=umlActor;verticalLabelPosition=bottom;verticalAlign=top;html=1;outlineConnect=0;" vertex="1" parent="1">
          <mxGeometry x="670" y="730" width="30" height="60" as="geometry" />
        </mxCell>
        <mxCell id="Yxdw2tVaKGRCrDaLvaed-4" value="Снять автомобиль с аренды" style="ellipse;whiteSpace=wrap;html=1;" vertex="1" parent="1">
          <mxGeometry x="350" y="460" width="120" height="80" as="geometry" />
        </mxCell>
        <mxCell id="Yxdw2tVaKGRCrDaLvaed-5" value="Просмотреть все автомобили в системе" style="ellipse;whiteSpace=wrap;html=1;" vertex="1" parent="1">
          <mxGeometry x="370" y="670" width="120" height="80" as="geometry" />
        </mxCell>
        <mxCell id="Yxdw2tVaKGRCrDaLvaed-6" value="Просмотреть все заказы в системе" style="ellipse;whiteSpace=wrap;html=1;" vertex="1" parent="1">
          <mxGeometry x="350" y="790" width="120" height="80" as="geometry" />
        </mxCell>
        <mxCell id="Yxdw2tVaKGRCrDaLvaed-7" value="Зарегистрировать новый автомобиль" style="ellipse;whiteSpace=wrap;html=1;" vertex="1" parent="1">
          <mxGeometry x="50" y="530" width="120" height="80" as="geometry" />
        </mxCell>
        <mxCell id="Yxdw2tVaKGRCrDaLvaed-8" value="Отправить уведомление&lt;br&gt;пользователю" style="ellipse;whiteSpace=wrap;html=1;" vertex="1" parent="1">
          <mxGeometry x="530" y="350" width="120" height="80" as="geometry" />
        </mxCell>
        <mxCell id="Yxdw2tVaKGRCrDaLvaed-11" style="orthogonalLoop=1;jettySize=auto;html=1;entryX=0.633;entryY=0.025;entryDx=0;entryDy=0;entryPerimeter=0;rounded=0;" edge="1" parent="1" source="Yxdw2tVaKGRCrDaLvaed-8" target="Yxdw2tVaKGRCrDaLvaed-4">
          <mxGeometry relative="1" as="geometry" />
        </mxCell>
        <mxCell id="Yxdw2tVaKGRCrDaLvaed-12" value="&amp;lt;&amp;lt;include&amp;gt;&amp;gt;" style="edgeLabel;html=1;align=center;verticalAlign=middle;resizable=0;points=[];" vertex="1" connectable="0" parent="Yxdw2tVaKGRCrDaLvaed-11">
          <mxGeometry x="-0.2345" y="2" relative="1" as="geometry">
            <mxPoint y="15" as="offset" />
          </mxGeometry>
        </mxCell>
        <mxCell id="Yxdw2tVaKGRCrDaLvaed-17" style="rounded=0;orthogonalLoop=1;jettySize=auto;html=1;entryX=0;entryY=1;entryDx=0;entryDy=0;" edge="1" parent="1" source="Yxdw2tVaKGRCrDaLvaed-1" target="Yxdw2tVaKGRCrDaLvaed-4">
          <mxGeometry relative="1" as="geometry">
            <mxPoint x="180" y="724" as="sourcePoint" />
            <mxPoint x="348" y="544" as="targetPoint" />
          </mxGeometry>
        </mxCell>
        <mxCell id="Yxdw2tVaKGRCrDaLvaed-18" style="rounded=0;orthogonalLoop=1;jettySize=auto;html=1;entryX=0.007;entryY=0.28;entryDx=0;entryDy=0;entryPerimeter=0;" edge="1" parent="1" target="Yxdw2tVaKGRCrDaLvaed-6">
          <mxGeometry relative="1" as="geometry">
            <mxPoint x="180" y="740" as="sourcePoint" />
            <mxPoint x="364" y="740" as="targetPoint" />
          </mxGeometry>
        </mxCell>
        <mxCell id="Yxdw2tVaKGRCrDaLvaed-19" style="rounded=0;orthogonalLoop=1;jettySize=auto;html=1;entryX=1;entryY=0.5;entryDx=0;entryDy=0;exitX=0;exitY=0.3333333333333333;exitDx=0;exitDy=0;exitPerimeter=0;" edge="1" parent="1" source="Yxdw2tVaKGRCrDaLvaed-2" target="Yxdw2tVaKGRCrDaLvaed-5">
          <mxGeometry relative="1" as="geometry">
            <mxPoint x="180" y="734" as="sourcePoint" />
            <mxPoint x="358" y="663" as="targetPoint" />
          </mxGeometry>
        </mxCell>
        <mxCell id="Yxdw2tVaKGRCrDaLvaed-20" value="Проверить уведомления" style="ellipse;whiteSpace=wrap;html=1;" vertex="1" parent="1">
          <mxGeometry x="640" y="550" width="120" height="80" as="geometry" />
        </mxCell>
        <mxCell id="Yxdw2tVaKGRCrDaLvaed-21" style="rounded=0;orthogonalLoop=1;jettySize=auto;html=1;entryX=0.397;entryY=0.98;entryDx=0;entryDy=0;entryPerimeter=0;" edge="1" parent="1" source="Yxdw2tVaKGRCrDaLvaed-2" target="Yxdw2tVaKGRCrDaLvaed-20">
          <mxGeometry relative="1" as="geometry" />
        </mxCell>
        <mxCell id="Yxdw2tVaKGRCrDaLvaed-22" value="Убрать заказ из системы" style="ellipse;whiteSpace=wrap;html=1;" vertex="1" parent="1">
          <mxGeometry x="240" y="870" width="120" height="80" as="geometry" />
        </mxCell>
        <mxCell id="Yxdw2tVaKGRCrDaLvaed-24" value="Предупредить пользователя" style="ellipse;whiteSpace=wrap;html=1;" vertex="1" parent="1">
          <mxGeometry x="60" y="960" width="120" height="80" as="geometry" />
        </mxCell>
        <mxCell id="Yxdw2tVaKGRCrDaLvaed-25" style="orthogonalLoop=1;jettySize=auto;html=1;rounded=0;" edge="1" parent="1" source="Yxdw2tVaKGRCrDaLvaed-24" target="Yxdw2tVaKGRCrDaLvaed-22">
          <mxGeometry relative="1" as="geometry">
            <mxPoint x="340" y="950" as="targetPoint" />
          </mxGeometry>
        </mxCell>
        <mxCell id="Yxdw2tVaKGRCrDaLvaed-26" value="&amp;lt;&amp;lt;include&amp;gt;&amp;gt;" style="edgeLabel;html=1;align=center;verticalAlign=middle;resizable=0;points=[];" vertex="1" connectable="0" parent="Yxdw2tVaKGRCrDaLvaed-25">
          <mxGeometry x="-0.2345" y="2" relative="1" as="geometry">
            <mxPoint y="15" as="offset" />
          </mxGeometry>
        </mxCell>
        <mxCell id="Yxdw2tVaKGRCrDaLvaed-27" style="rounded=0;orthogonalLoop=1;jettySize=auto;html=1;entryX=0.45;entryY=0.03;entryDx=0;entryDy=0;entryPerimeter=0;exitX=1;exitY=1;exitDx=0;exitDy=0;exitPerimeter=0;" edge="1" parent="1" source="Yxdw2tVaKGRCrDaLvaed-1" target="Yxdw2tVaKGRCrDaLvaed-22">
          <mxGeometry relative="1" as="geometry">
            <mxPoint x="190" y="750" as="sourcePoint" />
            <mxPoint x="361" y="822" as="targetPoint" />
          </mxGeometry>
        </mxCell>
        <mxCell id="Yxdw2tVaKGRCrDaLvaed-28" style="rounded=0;orthogonalLoop=1;jettySize=auto;html=1;" edge="1" parent="1" source="Yxdw2tVaKGRCrDaLvaed-2">
          <mxGeometry relative="1" as="geometry">
            <mxPoint x="680" y="760" as="sourcePoint" />
            <mxPoint x="570" y="900" as="targetPoint" />
          </mxGeometry>
        </mxCell>
        <mxCell id="Yxdw2tVaKGRCrDaLvaed-29" value="Просмотреть все свои брони в системе" style="ellipse;whiteSpace=wrap;html=1;" vertex="1" parent="1">
          <mxGeometry x="490" y="900" width="120" height="70" as="geometry" />
        </mxCell>
        <mxCell id="Yxdw2tVaKGRCrDaLvaed-30" value="Забронировать автомобиль" style="ellipse;whiteSpace=wrap;html=1;" vertex="1" parent="1">
          <mxGeometry x="460" y="550" width="120" height="80" as="geometry" />
        </mxCell>
        <mxCell id="Yxdw2tVaKGRCrDaLvaed-32" style="rounded=0;orthogonalLoop=1;jettySize=auto;html=1;exitX=0.25;exitY=0.1;exitDx=0;exitDy=0;exitPerimeter=0;" edge="1" parent="1" source="Yxdw2tVaKGRCrDaLvaed-2" target="Yxdw2tVaKGRCrDaLvaed-30">
          <mxGeometry relative="1" as="geometry">
            <mxPoint x="680" y="760" as="sourcePoint" />
            <mxPoint x="500" y="720" as="targetPoint" />
          </mxGeometry>
        </mxCell>
        <mxCell id="Yxdw2tVaKGRCrDaLvaed-33" value="Выбрать время для получения авто" style="ellipse;whiteSpace=wrap;html=1;" vertex="1" parent="1">
          <mxGeometry x="625" y="430" width="120" height="80" as="geometry" />
        </mxCell>
        <mxCell id="Yxdw2tVaKGRCrDaLvaed-35" value="Изменить данные своего аккаунта" style="ellipse;whiteSpace=wrap;html=1;" vertex="1" parent="1">
          <mxGeometry x="340" y="585" width="120" height="80" as="geometry" />
        </mxCell>
        <mxCell id="Yxdw2tVaKGRCrDaLvaed-36" style="rounded=0;orthogonalLoop=1;jettySize=auto;html=1;entryX=0;entryY=1;entryDx=0;entryDy=0;" edge="1" parent="1" source="Yxdw2tVaKGRCrDaLvaed-1" target="Yxdw2tVaKGRCrDaLvaed-35">
          <mxGeometry relative="1" as="geometry">
            <mxPoint x="180" y="739" as="sourcePoint" />
            <mxPoint x="380" y="720" as="targetPoint" />
          </mxGeometry>
        </mxCell>
        <mxCell id="Yxdw2tVaKGRCrDaLvaed-37" style="rounded=0;orthogonalLoop=1;jettySize=auto;html=1;entryX=1;entryY=0.5;entryDx=0;entryDy=0;" edge="1" parent="1" source="Yxdw2tVaKGRCrDaLvaed-2" target="Yxdw2tVaKGRCrDaLvaed-35">
          <mxGeometry relative="1" as="geometry">
            <mxPoint x="680" y="760" as="sourcePoint" />
            <mxPoint x="500" y="720" as="targetPoint" />
          </mxGeometry>
        </mxCell>
        <mxCell id="Yxdw2tVaKGRCrDaLvaed-38" value="Написать отчет о самых бронируемых автомобилях" style="ellipse;whiteSpace=wrap;html=1;" vertex="1" parent="1">
          <mxGeometry x="160" y="460" width="120" height="80" as="geometry" />
        </mxCell>
        <mxCell id="Yxdw2tVaKGRCrDaLvaed-39" style="rounded=0;orthogonalLoop=1;jettySize=auto;html=1;" edge="1" parent="1" source="Yxdw2tVaKGRCrDaLvaed-1" target="Yxdw2tVaKGRCrDaLvaed-38">
          <mxGeometry relative="1" as="geometry">
            <mxPoint x="180" y="726" as="sourcePoint" />
            <mxPoint x="378" y="538" as="targetPoint" />
          </mxGeometry>
        </mxCell>
        <mxCell id="Yxdw2tVaKGRCrDaLvaed-41" style="orthogonalLoop=1;jettySize=auto;html=1;rounded=0;exitX=0.055;exitY=0.68;exitDx=0;exitDy=0;exitPerimeter=0;" edge="1" parent="1" source="Yxdw2tVaKGRCrDaLvaed-33" target="Yxdw2tVaKGRCrDaLvaed-30">
          <mxGeometry relative="1" as="geometry">
            <mxPoint x="550" y="422" as="sourcePoint" />
            <mxPoint x="436" y="472" as="targetPoint" />
          </mxGeometry>
        </mxCell>
        <mxCell id="Yxdw2tVaKGRCrDaLvaed-42" value="&amp;lt;&amp;lt;include&amp;gt;&amp;gt;" style="edgeLabel;html=1;align=center;verticalAlign=middle;resizable=0;points=[];" vertex="1" connectable="0" parent="Yxdw2tVaKGRCrDaLvaed-41">
          <mxGeometry x="-0.2345" y="2" relative="1" as="geometry">
            <mxPoint y="15" as="offset" />
          </mxGeometry>
        </mxCell>
        <mxCell id="Yxdw2tVaKGRCrDaLvaed-43" value="Назначить администратора" style="ellipse;whiteSpace=wrap;html=1;" vertex="1" parent="1">
          <mxGeometry x="50" y="840" width="120" height="80" as="geometry" />
        </mxCell>
        <mxCell id="Yxdw2tVaKGRCrDaLvaed-44" style="rounded=0;orthogonalLoop=1;jettySize=auto;html=1;" edge="1" parent="1" source="Yxdw2tVaKGRCrDaLvaed-1" target="Yxdw2tVaKGRCrDaLvaed-43">
          <mxGeometry relative="1" as="geometry">
            <mxPoint x="180" y="770" as="sourcePoint" />
            <mxPoint x="304" y="882" as="targetPoint" />
          </mxGeometry>
        </mxCell>
      </root>
    </mxGraphModel>
  </diagram>
</mxfile>
